G04 #@! TF.GenerationSoftware,KiCad,Pcbnew,(5.1.8)-1*
G04 #@! TF.CreationDate,2022-10-22T17:33:47+02:00*
G04 #@! TF.ProjectId,RP_LM2596-KfzPowerSafeguard,52505f4c-4d32-4353-9936-2d4b667a506f,rev?*
G04 #@! TF.SameCoordinates,Original*
G04 #@! TF.FileFunction,Soldermask,Bot*
G04 #@! TF.FilePolarity,Negative*
%FSLAX46Y46*%
G04 Gerber Fmt 4.6, Leading zero omitted, Abs format (unit mm)*
G04 Created by KiCad (PCBNEW (5.1.8)-1) date 2022-10-22 17:33:47*
%MOMM*%
%LPD*%
G01*
G04 APERTURE LIST*
%ADD10C,3.200000*%
%ADD11R,2.540000X2.540000*%
%ADD12C,2.540000*%
%ADD13C,2.800000*%
%ADD14R,1.700000X1.700000*%
%ADD15O,1.700000X1.700000*%
%ADD16R,1.200000X2.200000*%
%ADD17R,5.800000X6.400000*%
G04 APERTURE END LIST*
D10*
X103505000Y-71755000D03*
X133985000Y-88265000D03*
D11*
X98425000Y-71120000D03*
D12*
X98425000Y-88900000D03*
X139065000Y-71120000D03*
X139065000Y-88900000D03*
D13*
X85090000Y-79970000D03*
X85090000Y-74970000D03*
X91440000Y-74970000D03*
X91440000Y-79970000D03*
X85765000Y-86360000D03*
X90765000Y-86360000D03*
X107990000Y-95845000D03*
X112990000Y-95845000D03*
X91440000Y-97750000D03*
X91440000Y-92750000D03*
D10*
X85090000Y-64135000D03*
X121920000Y-64135000D03*
X85090000Y-95885000D03*
X121920000Y-95885000D03*
D13*
X107990000Y-64135000D03*
X112990000Y-64135000D03*
D14*
X127000000Y-61595000D03*
D15*
X129540000Y-61595000D03*
X127000000Y-64135000D03*
X129540000Y-64135000D03*
X127000000Y-66675000D03*
X129540000Y-66675000D03*
X129540000Y-98425000D03*
X127000000Y-98425000D03*
X129540000Y-95885000D03*
X127000000Y-95885000D03*
X129540000Y-93345000D03*
D14*
X127000000Y-93345000D03*
X127000000Y-76835000D03*
D15*
X129540000Y-76835000D03*
X127000000Y-79375000D03*
X129540000Y-79375000D03*
X127000000Y-81915000D03*
X129540000Y-81915000D03*
D16*
X106420000Y-85480000D03*
X101860000Y-85480000D03*
D17*
X104140000Y-79180000D03*
X113030000Y-83380000D03*
D16*
X115310000Y-77080000D03*
X110750000Y-77080000D03*
M02*
