M48
; DRILL file {KiCad (5.1.8)-1} date 10/22/22 17:33:55
; FORMAT={-:-/ absolute / inch / decimal}
; #@! TF.CreationDate,2022-10-22T17:33:55+02:00
; #@! TF.GenerationSoftware,Kicad,Pcbnew,(5.1.8)-1
; #@! TF.FileFunction,Plated,1,2,PTH
FMAT,2
INCH
T1C0.0157
T2C0.0394
T3C0.0512
T4C0.0591
%
G90
G05
T1
X4.2Y-2.92
X4.225Y-3.5
X4.35Y-2.925
X4.49Y-3.87
X4.5Y-2.425
X4.615Y-3.25
X4.665Y-2.885
X4.725Y-3.185
X4.805Y-2.9235
X5.005Y-2.925
T2
X3.875Y-2.8
X3.875Y-3.5
X5.475Y-2.8
X5.475Y-3.5
X5.0Y-3.025
X5.0Y-3.125
X5.0Y-3.225
X5.1Y-3.025
X5.1Y-3.125
X5.1Y-3.225
X5.0Y-2.425
X5.0Y-2.525
X5.0Y-2.625
X5.1Y-2.425
X5.1Y-2.525
X5.1Y-2.625
X5.0Y-3.675
X5.0Y-3.775
X5.0Y-3.875
X5.1Y-3.675
X5.1Y-3.775
X5.1Y-3.875
T3
X3.65Y-2.6
X3.875Y-3.15
X4.1Y-3.3
X4.45Y-3.1
X4.575Y-2.8866
T4
X3.35Y-2.9516
X3.35Y-3.1484
X3.6Y-3.6516
X3.6Y-3.8484
X3.3766Y-3.4
X3.5734Y-3.4
X4.2516Y-3.7734
X4.4484Y-3.7734
X4.2516Y-2.525
X4.4484Y-2.525
X3.6Y-2.9516
X3.6Y-3.1484
T0
M30
