G04 #@! TF.GenerationSoftware,KiCad,Pcbnew,(5.1.8)-1*
G04 #@! TF.CreationDate,2022-10-22T17:33:47+02:00*
G04 #@! TF.ProjectId,RP_LM2596-KfzPowerSafeguard,52505f4c-4d32-4353-9936-2d4b667a506f,rev?*
G04 #@! TF.SameCoordinates,Original*
G04 #@! TF.FileFunction,Copper,L2,Bot*
G04 #@! TF.FilePolarity,Positive*
%FSLAX46Y46*%
G04 Gerber Fmt 4.6, Leading zero omitted, Abs format (unit mm)*
G04 Created by KiCad (PCBNEW (5.1.8)-1) date 2022-10-22 17:33:47*
%MOMM*%
%LPD*%
G01*
G04 APERTURE LIST*
G04 #@! TA.AperFunction,NonConductor*
%ADD10C,0.300000*%
G04 #@! TD*
G04 #@! TA.AperFunction,ComponentPad*
%ADD11R,2.540000X2.540000*%
G04 #@! TD*
G04 #@! TA.AperFunction,ComponentPad*
%ADD12C,2.540000*%
G04 #@! TD*
G04 #@! TA.AperFunction,ComponentPad*
%ADD13C,2.800000*%
G04 #@! TD*
G04 #@! TA.AperFunction,ComponentPad*
%ADD14R,1.700000X1.700000*%
G04 #@! TD*
G04 #@! TA.AperFunction,ComponentPad*
%ADD15O,1.700000X1.700000*%
G04 #@! TD*
G04 #@! TA.AperFunction,SMDPad,CuDef*
%ADD16R,1.200000X2.200000*%
G04 #@! TD*
G04 #@! TA.AperFunction,SMDPad,CuDef*
%ADD17R,5.800000X6.400000*%
G04 #@! TD*
G04 #@! TA.AperFunction,ViaPad*
%ADD18C,2.000000*%
G04 #@! TD*
G04 #@! TA.AperFunction,ViaPad*
%ADD19C,0.800000*%
G04 #@! TD*
G04 #@! TA.AperFunction,Conductor*
%ADD20C,2.000000*%
G04 #@! TD*
G04 #@! TA.AperFunction,Conductor*
%ADD21C,0.250000*%
G04 #@! TD*
G04 #@! TA.AperFunction,Conductor*
%ADD22C,1.500000*%
G04 #@! TD*
G04 #@! TA.AperFunction,Conductor*
%ADD23C,0.254000*%
G04 #@! TD*
G04 #@! TA.AperFunction,Conductor*
%ADD24C,0.100000*%
G04 #@! TD*
G04 APERTURE END LIST*
D10*
X104440714Y-62908571D02*
X104940714Y-62194285D01*
X105297857Y-62908571D02*
X105297857Y-61408571D01*
X104726428Y-61408571D01*
X104583571Y-61480000D01*
X104512142Y-61551428D01*
X104440714Y-61694285D01*
X104440714Y-61908571D01*
X104512142Y-62051428D01*
X104583571Y-62122857D01*
X104726428Y-62194285D01*
X105297857Y-62194285D01*
X103797857Y-62908571D02*
X103797857Y-61408571D01*
X103226428Y-61408571D01*
X103083571Y-61480000D01*
X103012142Y-61551428D01*
X102940714Y-61694285D01*
X102940714Y-61908571D01*
X103012142Y-62051428D01*
X103083571Y-62122857D01*
X103226428Y-62194285D01*
X103797857Y-62194285D01*
X100869285Y-61408571D02*
X100726428Y-61408571D01*
X100583571Y-61480000D01*
X100512142Y-61551428D01*
X100440714Y-61694285D01*
X100369285Y-61980000D01*
X100369285Y-62337142D01*
X100440714Y-62622857D01*
X100512142Y-62765714D01*
X100583571Y-62837142D01*
X100726428Y-62908571D01*
X100869285Y-62908571D01*
X101012142Y-62837142D01*
X101083571Y-62765714D01*
X101155000Y-62622857D01*
X101226428Y-62337142D01*
X101226428Y-61980000D01*
X101155000Y-61694285D01*
X101083571Y-61551428D01*
X101012142Y-61480000D01*
X100869285Y-61408571D01*
X99083571Y-61408571D02*
X99369285Y-61408571D01*
X99512142Y-61480000D01*
X99583571Y-61551428D01*
X99726428Y-61765714D01*
X99797857Y-62051428D01*
X99797857Y-62622857D01*
X99726428Y-62765714D01*
X99655000Y-62837142D01*
X99512142Y-62908571D01*
X99226428Y-62908571D01*
X99083571Y-62837142D01*
X99012142Y-62765714D01*
X98940714Y-62622857D01*
X98940714Y-62265714D01*
X99012142Y-62122857D01*
X99083571Y-62051428D01*
X99226428Y-61980000D01*
X99512142Y-61980000D01*
X99655000Y-62051428D01*
X99726428Y-62122857D01*
X99797857Y-62265714D01*
X98297857Y-62765714D02*
X98226428Y-62837142D01*
X98297857Y-62908571D01*
X98369285Y-62837142D01*
X98297857Y-62765714D01*
X98297857Y-62908571D01*
X97297857Y-61408571D02*
X97155000Y-61408571D01*
X97012142Y-61480000D01*
X96940714Y-61551428D01*
X96869285Y-61694285D01*
X96797857Y-61980000D01*
X96797857Y-62337142D01*
X96869285Y-62622857D01*
X96940714Y-62765714D01*
X97012142Y-62837142D01*
X97155000Y-62908571D01*
X97297857Y-62908571D01*
X97440714Y-62837142D01*
X97512142Y-62765714D01*
X97583571Y-62622857D01*
X97655000Y-62337142D01*
X97655000Y-61980000D01*
X97583571Y-61694285D01*
X97512142Y-61551428D01*
X97440714Y-61480000D01*
X97297857Y-61408571D01*
X96083571Y-62908571D02*
X95797857Y-62908571D01*
X95655000Y-62837142D01*
X95583571Y-62765714D01*
X95440714Y-62551428D01*
X95369285Y-62265714D01*
X95369285Y-61694285D01*
X95440714Y-61551428D01*
X95512142Y-61480000D01*
X95655000Y-61408571D01*
X95940714Y-61408571D01*
X96083571Y-61480000D01*
X96155000Y-61551428D01*
X96226428Y-61694285D01*
X96226428Y-62051428D01*
X96155000Y-62194285D01*
X96083571Y-62265714D01*
X95940714Y-62337142D01*
X95655000Y-62337142D01*
X95512142Y-62265714D01*
X95440714Y-62194285D01*
X95369285Y-62051428D01*
X94726428Y-62765714D02*
X94655000Y-62837142D01*
X94726428Y-62908571D01*
X94797857Y-62837142D01*
X94726428Y-62765714D01*
X94726428Y-62908571D01*
X94083571Y-61551428D02*
X94012142Y-61480000D01*
X93869285Y-61408571D01*
X93512142Y-61408571D01*
X93369285Y-61480000D01*
X93297857Y-61551428D01*
X93226428Y-61694285D01*
X93226428Y-61837142D01*
X93297857Y-62051428D01*
X94155000Y-62908571D01*
X93226428Y-62908571D01*
X92297857Y-61408571D02*
X92155000Y-61408571D01*
X92012142Y-61480000D01*
X91940714Y-61551428D01*
X91869285Y-61694285D01*
X91797857Y-61980000D01*
X91797857Y-62337142D01*
X91869285Y-62622857D01*
X91940714Y-62765714D01*
X92012142Y-62837142D01*
X92155000Y-62908571D01*
X92297857Y-62908571D01*
X92440714Y-62837142D01*
X92512142Y-62765714D01*
X92583571Y-62622857D01*
X92655000Y-62337142D01*
X92655000Y-61980000D01*
X92583571Y-61694285D01*
X92512142Y-61551428D01*
X92440714Y-61480000D01*
X92297857Y-61408571D01*
X91226428Y-61551428D02*
X91155000Y-61480000D01*
X91012142Y-61408571D01*
X90655000Y-61408571D01*
X90512142Y-61480000D01*
X90440714Y-61551428D01*
X90369285Y-61694285D01*
X90369285Y-61837142D01*
X90440714Y-62051428D01*
X91297857Y-62908571D01*
X90369285Y-62908571D01*
X89797857Y-61551428D02*
X89726428Y-61480000D01*
X89583571Y-61408571D01*
X89226428Y-61408571D01*
X89083571Y-61480000D01*
X89012142Y-61551428D01*
X88940714Y-61694285D01*
X88940714Y-61837142D01*
X89012142Y-62051428D01*
X89869285Y-62908571D01*
X88940714Y-62908571D01*
D11*
X98425000Y-71120000D03*
D12*
X98425000Y-88900000D03*
X139065000Y-71120000D03*
X139065000Y-88900000D03*
D13*
X85090000Y-79970000D03*
X85090000Y-74970000D03*
X91440000Y-74970000D03*
X91440000Y-79970000D03*
X85765000Y-86360000D03*
X90765000Y-86360000D03*
X107990000Y-95845000D03*
X112990000Y-95845000D03*
X91440000Y-97750000D03*
X91440000Y-92750000D03*
X107990000Y-64135000D03*
X112990000Y-64135000D03*
D14*
X127000000Y-61595000D03*
D15*
X129540000Y-61595000D03*
X127000000Y-64135000D03*
X129540000Y-64135000D03*
X127000000Y-66675000D03*
X129540000Y-66675000D03*
X129540000Y-98425000D03*
X127000000Y-98425000D03*
X129540000Y-95885000D03*
X127000000Y-95885000D03*
X129540000Y-93345000D03*
D14*
X127000000Y-93345000D03*
X127000000Y-76835000D03*
D15*
X129540000Y-76835000D03*
X127000000Y-79375000D03*
X129540000Y-79375000D03*
X127000000Y-81915000D03*
X129540000Y-81915000D03*
D16*
X106420000Y-85480000D03*
X101860000Y-85480000D03*
D17*
X104140000Y-79180000D03*
X113030000Y-83380000D03*
D16*
X115310000Y-77080000D03*
X110750000Y-77080000D03*
D18*
X92710000Y-66040000D03*
D19*
X106680000Y-74168000D03*
X118491000Y-73279000D03*
X114046000Y-98298000D03*
X114300000Y-61595000D03*
D18*
X98425000Y-80010000D03*
D19*
X120015000Y-80899000D03*
X117221000Y-82550000D03*
D18*
X116205000Y-73320000D03*
D19*
X122047000Y-74258000D03*
X127127000Y-74295000D03*
X107315000Y-88900000D03*
X110490000Y-74295000D03*
D18*
X113030000Y-78740000D03*
X104140000Y-83820000D03*
D20*
X92710000Y-66040000D02*
X103505000Y-66040000D01*
X103505000Y-66040000D02*
X108585000Y-71120000D01*
X129540000Y-71120000D02*
X129540000Y-66675000D01*
X129540000Y-66675000D02*
X129540000Y-64135000D01*
X129540000Y-64135000D02*
X129540000Y-61595000D01*
X129540000Y-74930000D02*
X129540000Y-76835000D01*
X129540000Y-71120000D02*
X129540000Y-74930000D01*
X129540000Y-76835000D02*
X129540000Y-79375000D01*
X129540000Y-79375000D02*
X129540000Y-81915000D01*
X129540000Y-98425000D02*
X129540000Y-95885000D01*
X129540000Y-95885000D02*
X129540000Y-93345000D01*
X134620000Y-93345000D02*
X129540000Y-93345000D01*
X139065000Y-88900000D02*
X134620000Y-93345000D01*
D21*
X108585000Y-71697315D02*
X108585000Y-71120000D01*
X106680000Y-73602315D02*
X108585000Y-71697315D01*
X106680000Y-74168000D02*
X106680000Y-73602315D01*
X114046000Y-98298000D02*
X116078000Y-96266000D01*
X116078000Y-96266000D02*
X116078000Y-94869000D01*
X120396000Y-90551000D02*
X129540000Y-90551000D01*
X116078000Y-94869000D02*
X120396000Y-90551000D01*
D20*
X129540000Y-93345000D02*
X129540000Y-90551000D01*
X129540000Y-90551000D02*
X129540000Y-81915000D01*
X91440000Y-79970000D02*
X91440000Y-74970000D01*
X91440000Y-67310000D02*
X92710000Y-66040000D01*
X91440000Y-74970000D02*
X91440000Y-67310000D01*
X94575000Y-92750000D02*
X98425000Y-88900000D01*
X91440000Y-92750000D02*
X94575000Y-92750000D01*
X91440000Y-81915000D02*
X98425000Y-88900000D01*
X91440000Y-79970000D02*
X91440000Y-81915000D01*
X110490000Y-71120000D02*
X112395000Y-71120000D01*
X108585000Y-71120000D02*
X110490000Y-71120000D01*
X112395000Y-71120000D02*
X114300000Y-69215000D01*
X118745000Y-69215000D02*
X120650000Y-71120000D01*
X120650000Y-71120000D02*
X129540000Y-71120000D01*
D21*
X116840000Y-64135000D02*
X114300000Y-61595000D01*
X116840000Y-69215000D02*
X116840000Y-64135000D01*
D20*
X116840000Y-69215000D02*
X118745000Y-69215000D01*
X114300000Y-69215000D02*
X116840000Y-69215000D01*
D21*
X118491000Y-73279000D02*
X120650000Y-71120000D01*
D22*
X98425000Y-80010000D02*
X98425000Y-84455000D01*
X99450000Y-85480000D02*
X101860000Y-85480000D01*
X98425000Y-84455000D02*
X99450000Y-85480000D01*
X101860000Y-85480000D02*
X101860000Y-92970000D01*
X104735000Y-95845000D02*
X107990000Y-95845000D01*
X101860000Y-92970000D02*
X104735000Y-95845000D01*
D21*
X120015000Y-80899000D02*
X118364000Y-82550000D01*
X118364000Y-82550000D02*
X117221000Y-82550000D01*
D22*
X115310000Y-77080000D02*
X115310000Y-74215000D01*
X115310000Y-74215000D02*
X116205000Y-73320000D01*
D21*
X122047000Y-74258000D02*
X127090000Y-74258000D01*
X127090000Y-74258000D02*
X127127000Y-74295000D01*
X106420000Y-88005000D02*
X106420000Y-85480000D01*
X107315000Y-88900000D02*
X106420000Y-88005000D01*
X110490000Y-76820000D02*
X110750000Y-77080000D01*
X110490000Y-74295000D02*
X110490000Y-76820000D01*
D22*
X113030000Y-83380000D02*
X113030000Y-78740000D01*
X104140000Y-83820000D02*
X104140000Y-79180000D01*
D23*
X125619463Y-60390506D02*
X125560498Y-60500820D01*
X125524188Y-60620518D01*
X125511928Y-60745000D01*
X125511928Y-62445000D01*
X125524188Y-62569482D01*
X125560498Y-62689180D01*
X125619463Y-62799494D01*
X125698815Y-62896185D01*
X125795506Y-62975537D01*
X125905820Y-63034502D01*
X125978380Y-63056513D01*
X125846525Y-63188368D01*
X125684010Y-63431589D01*
X125572068Y-63701842D01*
X125515000Y-63988740D01*
X125515000Y-64281260D01*
X125572068Y-64568158D01*
X125684010Y-64838411D01*
X125846525Y-65081632D01*
X126053368Y-65288475D01*
X126227760Y-65405000D01*
X126053368Y-65521525D01*
X125846525Y-65728368D01*
X125684010Y-65971589D01*
X125572068Y-66241842D01*
X125515000Y-66528740D01*
X125515000Y-66821260D01*
X125572068Y-67108158D01*
X125684010Y-67378411D01*
X125846525Y-67621632D01*
X126053368Y-67828475D01*
X126296589Y-67990990D01*
X126566842Y-68102932D01*
X126853740Y-68160000D01*
X127146260Y-68160000D01*
X127433158Y-68102932D01*
X127703411Y-67990990D01*
X127946632Y-67828475D01*
X128153475Y-67621632D01*
X128271100Y-67445594D01*
X128442412Y-67675269D01*
X128658645Y-67870178D01*
X128908748Y-68019157D01*
X129183109Y-68116481D01*
X129413000Y-67995814D01*
X129413000Y-66802000D01*
X129667000Y-66802000D01*
X129667000Y-67995814D01*
X129896891Y-68116481D01*
X130171252Y-68019157D01*
X130421355Y-67870178D01*
X130637588Y-67675269D01*
X130811641Y-67441920D01*
X130936825Y-67179099D01*
X130981476Y-67031890D01*
X130860155Y-66802000D01*
X129667000Y-66802000D01*
X129413000Y-66802000D01*
X129393000Y-66802000D01*
X129393000Y-66548000D01*
X129413000Y-66548000D01*
X129413000Y-64262000D01*
X129667000Y-64262000D01*
X129667000Y-66548000D01*
X130860155Y-66548000D01*
X130981476Y-66318110D01*
X130936825Y-66170901D01*
X130811641Y-65908080D01*
X130637588Y-65674731D01*
X130421355Y-65479822D01*
X130295745Y-65405000D01*
X130421355Y-65330178D01*
X130637588Y-65135269D01*
X130811641Y-64901920D01*
X130936825Y-64639099D01*
X130981476Y-64491890D01*
X130860155Y-64262000D01*
X129667000Y-64262000D01*
X129413000Y-64262000D01*
X129393000Y-64262000D01*
X129393000Y-64008000D01*
X129413000Y-64008000D01*
X129413000Y-61722000D01*
X129667000Y-61722000D01*
X129667000Y-64008000D01*
X130860155Y-64008000D01*
X130981476Y-63778110D01*
X130936825Y-63630901D01*
X130811641Y-63368080D01*
X130637588Y-63134731D01*
X130421355Y-62939822D01*
X130295745Y-62865000D01*
X130421355Y-62790178D01*
X130637588Y-62595269D01*
X130811641Y-62361920D01*
X130936825Y-62099099D01*
X130981476Y-61951890D01*
X130860155Y-61722000D01*
X129667000Y-61722000D01*
X129413000Y-61722000D01*
X129393000Y-61722000D01*
X129393000Y-61468000D01*
X129413000Y-61468000D01*
X129413000Y-61448000D01*
X129667000Y-61448000D01*
X129667000Y-61468000D01*
X130860155Y-61468000D01*
X130981476Y-61238110D01*
X130936825Y-61090901D01*
X130811641Y-60828080D01*
X130637588Y-60594731D01*
X130421355Y-60399822D01*
X130337715Y-60350000D01*
X140945000Y-60350000D01*
X140945000Y-70806693D01*
X140896791Y-70564332D01*
X140753189Y-70217644D01*
X140544710Y-69905634D01*
X140279366Y-69640290D01*
X139967356Y-69431811D01*
X139620668Y-69288209D01*
X139252626Y-69215000D01*
X138877374Y-69215000D01*
X138509332Y-69288209D01*
X138162644Y-69431811D01*
X137850634Y-69640290D01*
X137585290Y-69905634D01*
X137376811Y-70217644D01*
X137233209Y-70564332D01*
X137160000Y-70932374D01*
X137160000Y-71307626D01*
X137233209Y-71675668D01*
X137376811Y-72022356D01*
X137585290Y-72334366D01*
X137850634Y-72599710D01*
X138162644Y-72808189D01*
X138509332Y-72951791D01*
X138877374Y-73025000D01*
X139252626Y-73025000D01*
X139620668Y-72951791D01*
X139967356Y-72808189D01*
X140279366Y-72599710D01*
X140544710Y-72334366D01*
X140753189Y-72022356D01*
X140896791Y-71675668D01*
X140945000Y-71433306D01*
X140945001Y-88582019D01*
X140931618Y-88475773D01*
X140812988Y-88119765D01*
X140684871Y-87880076D01*
X140392852Y-87751753D01*
X139244605Y-88900000D01*
X140392852Y-90048247D01*
X140684871Y-89919924D01*
X140852723Y-89584305D01*
X140945001Y-89247477D01*
X140945001Y-99670000D01*
X130337715Y-99670000D01*
X130421355Y-99620178D01*
X130637588Y-99425269D01*
X130811641Y-99191920D01*
X130936825Y-98929099D01*
X130981476Y-98781890D01*
X130860155Y-98552000D01*
X129667000Y-98552000D01*
X129667000Y-98572000D01*
X129413000Y-98572000D01*
X129413000Y-98552000D01*
X129393000Y-98552000D01*
X129393000Y-98298000D01*
X129413000Y-98298000D01*
X129413000Y-96012000D01*
X129667000Y-96012000D01*
X129667000Y-98298000D01*
X130860155Y-98298000D01*
X130981476Y-98068110D01*
X130936825Y-97920901D01*
X130811641Y-97658080D01*
X130637588Y-97424731D01*
X130421355Y-97229822D01*
X130295745Y-97155000D01*
X130421355Y-97080178D01*
X130637588Y-96885269D01*
X130811641Y-96651920D01*
X130936825Y-96389099D01*
X130981476Y-96241890D01*
X130860155Y-96012000D01*
X129667000Y-96012000D01*
X129413000Y-96012000D01*
X129393000Y-96012000D01*
X129393000Y-95758000D01*
X129413000Y-95758000D01*
X129413000Y-93472000D01*
X129667000Y-93472000D01*
X129667000Y-95758000D01*
X130860155Y-95758000D01*
X130981476Y-95528110D01*
X130936825Y-95380901D01*
X130811641Y-95118080D01*
X130637588Y-94884731D01*
X130421355Y-94689822D01*
X130295745Y-94615000D01*
X130421355Y-94540178D01*
X130637588Y-94345269D01*
X130811641Y-94111920D01*
X130936825Y-93849099D01*
X130981476Y-93701890D01*
X130860155Y-93472000D01*
X129667000Y-93472000D01*
X129413000Y-93472000D01*
X129393000Y-93472000D01*
X129393000Y-93218000D01*
X129413000Y-93218000D01*
X129413000Y-92024186D01*
X129667000Y-92024186D01*
X129667000Y-93218000D01*
X130860155Y-93218000D01*
X130981476Y-92988110D01*
X130936825Y-92840901D01*
X130811641Y-92578080D01*
X130637588Y-92344731D01*
X130421355Y-92149822D01*
X130171252Y-92000843D01*
X129896891Y-91903519D01*
X129667000Y-92024186D01*
X129413000Y-92024186D01*
X129183109Y-91903519D01*
X128908748Y-92000843D01*
X128658645Y-92149822D01*
X128462498Y-92326626D01*
X128439502Y-92250820D01*
X128380537Y-92140506D01*
X128301185Y-92043815D01*
X128204494Y-91964463D01*
X128094180Y-91905498D01*
X127974482Y-91869188D01*
X127850000Y-91856928D01*
X126150000Y-91856928D01*
X126025518Y-91869188D01*
X125905820Y-91905498D01*
X125795506Y-91964463D01*
X125698815Y-92043815D01*
X125619463Y-92140506D01*
X125560498Y-92250820D01*
X125524188Y-92370518D01*
X125511928Y-92495000D01*
X125511928Y-94195000D01*
X125524188Y-94319482D01*
X125560498Y-94439180D01*
X125619463Y-94549494D01*
X125698815Y-94646185D01*
X125795506Y-94725537D01*
X125905820Y-94784502D01*
X125978380Y-94806513D01*
X125846525Y-94938368D01*
X125684010Y-95181589D01*
X125572068Y-95451842D01*
X125515000Y-95738740D01*
X125515000Y-96031260D01*
X125572068Y-96318158D01*
X125684010Y-96588411D01*
X125846525Y-96831632D01*
X126053368Y-97038475D01*
X126227760Y-97155000D01*
X126053368Y-97271525D01*
X125846525Y-97478368D01*
X125684010Y-97721589D01*
X125572068Y-97991842D01*
X125515000Y-98278740D01*
X125515000Y-98571260D01*
X125572068Y-98858158D01*
X125684010Y-99128411D01*
X125846525Y-99371632D01*
X126053368Y-99578475D01*
X126190345Y-99670000D01*
X92115758Y-99670000D01*
X92265540Y-99620795D01*
X92536865Y-99475770D01*
X92680842Y-99170447D01*
X91440000Y-97929605D01*
X90199158Y-99170447D01*
X90343135Y-99475770D01*
X90700892Y-99656597D01*
X90749012Y-99670000D01*
X81305000Y-99670000D01*
X81305000Y-95664872D01*
X82855000Y-95664872D01*
X82855000Y-96105128D01*
X82940890Y-96536925D01*
X83109369Y-96943669D01*
X83353962Y-97309729D01*
X83665271Y-97621038D01*
X84031331Y-97865631D01*
X84438075Y-98034110D01*
X84869872Y-98120000D01*
X85310128Y-98120000D01*
X85741925Y-98034110D01*
X86148669Y-97865631D01*
X86251716Y-97796777D01*
X89395690Y-97796777D01*
X89444096Y-98194704D01*
X89569205Y-98575540D01*
X89714230Y-98846865D01*
X90019553Y-98990842D01*
X91260395Y-97750000D01*
X91619605Y-97750000D01*
X92860447Y-98990842D01*
X93165770Y-98846865D01*
X93346597Y-98489108D01*
X93454155Y-98102947D01*
X93484310Y-97703223D01*
X93435904Y-97305296D01*
X93310795Y-96924460D01*
X93165770Y-96653135D01*
X92860447Y-96509158D01*
X91619605Y-97750000D01*
X91260395Y-97750000D01*
X90019553Y-96509158D01*
X89714230Y-96653135D01*
X89533403Y-97010892D01*
X89425845Y-97397053D01*
X89395690Y-97796777D01*
X86251716Y-97796777D01*
X86514729Y-97621038D01*
X86826038Y-97309729D01*
X87070631Y-96943669D01*
X87239110Y-96536925D01*
X87280358Y-96329553D01*
X90199158Y-96329553D01*
X91440000Y-97570395D01*
X92680842Y-96329553D01*
X92536865Y-96024230D01*
X92179108Y-95843403D01*
X91792947Y-95735845D01*
X91393223Y-95705690D01*
X90995296Y-95754096D01*
X90614460Y-95879205D01*
X90343135Y-96024230D01*
X90199158Y-96329553D01*
X87280358Y-96329553D01*
X87325000Y-96105128D01*
X87325000Y-95664872D01*
X87239110Y-95233075D01*
X87070631Y-94826331D01*
X86826038Y-94460271D01*
X86536214Y-94170447D01*
X90199158Y-94170447D01*
X90343135Y-94475770D01*
X90700892Y-94656597D01*
X91087053Y-94764155D01*
X91486777Y-94794310D01*
X91884704Y-94745904D01*
X92265540Y-94620795D01*
X92536865Y-94475770D01*
X92680842Y-94170447D01*
X91440000Y-92929605D01*
X90199158Y-94170447D01*
X86536214Y-94170447D01*
X86514729Y-94148962D01*
X86148669Y-93904369D01*
X85741925Y-93735890D01*
X85310128Y-93650000D01*
X84869872Y-93650000D01*
X84438075Y-93735890D01*
X84031331Y-93904369D01*
X83665271Y-94148962D01*
X83353962Y-94460271D01*
X83109369Y-94826331D01*
X82940890Y-95233075D01*
X82855000Y-95664872D01*
X81305000Y-95664872D01*
X81305000Y-92796777D01*
X89395690Y-92796777D01*
X89444096Y-93194704D01*
X89569205Y-93575540D01*
X89714230Y-93846865D01*
X90019553Y-93990842D01*
X91260395Y-92750000D01*
X91619605Y-92750000D01*
X92860447Y-93990842D01*
X93165770Y-93846865D01*
X93346597Y-93489108D01*
X93454155Y-93102947D01*
X93484310Y-92703223D01*
X93435904Y-92305296D01*
X93310795Y-91924460D01*
X93165770Y-91653135D01*
X92860447Y-91509158D01*
X91619605Y-92750000D01*
X91260395Y-92750000D01*
X90019553Y-91509158D01*
X89714230Y-91653135D01*
X89533403Y-92010892D01*
X89425845Y-92397053D01*
X89395690Y-92796777D01*
X81305000Y-92796777D01*
X81305000Y-91329553D01*
X90199158Y-91329553D01*
X91440000Y-92570395D01*
X92680842Y-91329553D01*
X92536865Y-91024230D01*
X92179108Y-90843403D01*
X91792947Y-90735845D01*
X91393223Y-90705690D01*
X90995296Y-90754096D01*
X90614460Y-90879205D01*
X90343135Y-91024230D01*
X90199158Y-91329553D01*
X81305000Y-91329553D01*
X81305000Y-90227852D01*
X97276753Y-90227852D01*
X97405076Y-90519871D01*
X97740695Y-90687723D01*
X98102611Y-90786874D01*
X98476916Y-90813514D01*
X98849227Y-90766618D01*
X99205235Y-90647988D01*
X99444924Y-90519871D01*
X99573247Y-90227852D01*
X98425000Y-89079605D01*
X97276753Y-90227852D01*
X81305000Y-90227852D01*
X81305000Y-88951916D01*
X96511486Y-88951916D01*
X96558382Y-89324227D01*
X96677012Y-89680235D01*
X96805129Y-89919924D01*
X97097148Y-90048247D01*
X98245395Y-88900000D01*
X98604605Y-88900000D01*
X99752852Y-90048247D01*
X100044871Y-89919924D01*
X100212723Y-89584305D01*
X100311874Y-89222389D01*
X100338514Y-88848084D01*
X100291618Y-88475773D01*
X100172988Y-88119765D01*
X100044871Y-87880076D01*
X99752852Y-87751753D01*
X98604605Y-88900000D01*
X98245395Y-88900000D01*
X97097148Y-87751753D01*
X96805129Y-87880076D01*
X96637277Y-88215695D01*
X96538126Y-88577611D01*
X96511486Y-88951916D01*
X81305000Y-88951916D01*
X81305000Y-86159570D01*
X83730000Y-86159570D01*
X83730000Y-86560430D01*
X83808204Y-86953587D01*
X83961607Y-87323934D01*
X84184313Y-87657237D01*
X84467763Y-87940687D01*
X84801066Y-88163393D01*
X85171413Y-88316796D01*
X85564570Y-88395000D01*
X85965430Y-88395000D01*
X86358587Y-88316796D01*
X86728934Y-88163393D01*
X87062237Y-87940687D01*
X87345687Y-87657237D01*
X87568393Y-87323934D01*
X87721796Y-86953587D01*
X87800000Y-86560430D01*
X87800000Y-86159570D01*
X88730000Y-86159570D01*
X88730000Y-86560430D01*
X88808204Y-86953587D01*
X88961607Y-87323934D01*
X89184313Y-87657237D01*
X89467763Y-87940687D01*
X89801066Y-88163393D01*
X90171413Y-88316796D01*
X90564570Y-88395000D01*
X90965430Y-88395000D01*
X91358587Y-88316796D01*
X91728934Y-88163393D01*
X92062237Y-87940687D01*
X92345687Y-87657237D01*
X92402541Y-87572148D01*
X97276753Y-87572148D01*
X98425000Y-88720395D01*
X99573247Y-87572148D01*
X99444924Y-87280129D01*
X99109305Y-87112277D01*
X98747389Y-87013126D01*
X98373084Y-86986486D01*
X98000773Y-87033382D01*
X97644765Y-87152012D01*
X97405076Y-87280129D01*
X97276753Y-87572148D01*
X92402541Y-87572148D01*
X92568393Y-87323934D01*
X92721796Y-86953587D01*
X92800000Y-86560430D01*
X92800000Y-86159570D01*
X92721796Y-85766413D01*
X92568393Y-85396066D01*
X92345687Y-85062763D01*
X92062237Y-84779313D01*
X91728934Y-84556607D01*
X91358587Y-84403204D01*
X90965430Y-84325000D01*
X90564570Y-84325000D01*
X90171413Y-84403204D01*
X89801066Y-84556607D01*
X89467763Y-84779313D01*
X89184313Y-85062763D01*
X88961607Y-85396066D01*
X88808204Y-85766413D01*
X88730000Y-86159570D01*
X87800000Y-86159570D01*
X87721796Y-85766413D01*
X87568393Y-85396066D01*
X87345687Y-85062763D01*
X87062237Y-84779313D01*
X86728934Y-84556607D01*
X86358587Y-84403204D01*
X85965430Y-84325000D01*
X85564570Y-84325000D01*
X85171413Y-84403204D01*
X84801066Y-84556607D01*
X84467763Y-84779313D01*
X84184313Y-85062763D01*
X83961607Y-85396066D01*
X83808204Y-85766413D01*
X83730000Y-86159570D01*
X81305000Y-86159570D01*
X81305000Y-79769570D01*
X83055000Y-79769570D01*
X83055000Y-80170430D01*
X83133204Y-80563587D01*
X83286607Y-80933934D01*
X83509313Y-81267237D01*
X83792763Y-81550687D01*
X84126066Y-81773393D01*
X84496413Y-81926796D01*
X84889570Y-82005000D01*
X85290430Y-82005000D01*
X85683587Y-81926796D01*
X86053934Y-81773393D01*
X86387237Y-81550687D01*
X86547477Y-81390447D01*
X90199158Y-81390447D01*
X90343135Y-81695770D01*
X90700892Y-81876597D01*
X91087053Y-81984155D01*
X91486777Y-82014310D01*
X91884704Y-81965904D01*
X92265540Y-81840795D01*
X92536865Y-81695770D01*
X92680842Y-81390447D01*
X91440000Y-80149605D01*
X90199158Y-81390447D01*
X86547477Y-81390447D01*
X86670687Y-81267237D01*
X86893393Y-80933934D01*
X87046796Y-80563587D01*
X87125000Y-80170430D01*
X87125000Y-80016777D01*
X89395690Y-80016777D01*
X89444096Y-80414704D01*
X89569205Y-80795540D01*
X89714230Y-81066865D01*
X90019553Y-81210842D01*
X91260395Y-79970000D01*
X91619605Y-79970000D01*
X92860447Y-81210842D01*
X93165770Y-81066865D01*
X93346597Y-80709108D01*
X93454155Y-80322947D01*
X93484310Y-79923223D01*
X93475278Y-79848967D01*
X96790000Y-79848967D01*
X96790000Y-80171033D01*
X96852832Y-80486912D01*
X96976082Y-80784463D01*
X97040000Y-80880123D01*
X97040001Y-84386961D01*
X97033300Y-84455000D01*
X97060040Y-84726507D01*
X97139236Y-84987580D01*
X97267844Y-85228188D01*
X97397548Y-85386233D01*
X97397551Y-85386236D01*
X97440920Y-85439081D01*
X97493764Y-85482449D01*
X98422550Y-86411236D01*
X98465919Y-86464081D01*
X98518764Y-86507450D01*
X98518766Y-86507452D01*
X98544976Y-86528962D01*
X98676812Y-86637157D01*
X98917419Y-86765764D01*
X99178492Y-86844960D01*
X99201892Y-86847265D01*
X99381963Y-86865000D01*
X99381971Y-86865000D01*
X99450000Y-86871700D01*
X99518029Y-86865000D01*
X100475000Y-86865000D01*
X100475001Y-92901961D01*
X100468300Y-92970000D01*
X100495040Y-93241507D01*
X100574236Y-93502580D01*
X100702844Y-93743188D01*
X100832548Y-93901233D01*
X100832551Y-93901236D01*
X100875920Y-93954081D01*
X100928764Y-93997449D01*
X103707550Y-96776236D01*
X103750919Y-96829081D01*
X103803764Y-96872450D01*
X103803766Y-96872452D01*
X103819384Y-96885269D01*
X103961812Y-97002157D01*
X104152695Y-97104186D01*
X104202419Y-97130764D01*
X104463492Y-97209960D01*
X104486892Y-97212265D01*
X104666963Y-97230000D01*
X104666971Y-97230000D01*
X104735000Y-97236700D01*
X104803029Y-97230000D01*
X106497076Y-97230000D01*
X106692763Y-97425687D01*
X107026066Y-97648393D01*
X107396413Y-97801796D01*
X107789570Y-97880000D01*
X108190430Y-97880000D01*
X108583587Y-97801796D01*
X108953934Y-97648393D01*
X109287237Y-97425687D01*
X109570687Y-97142237D01*
X109793393Y-96808934D01*
X109946796Y-96438587D01*
X110025000Y-96045430D01*
X110025000Y-95644570D01*
X110955000Y-95644570D01*
X110955000Y-96045430D01*
X111033204Y-96438587D01*
X111186607Y-96808934D01*
X111409313Y-97142237D01*
X111692763Y-97425687D01*
X112026066Y-97648393D01*
X112396413Y-97801796D01*
X112789570Y-97880000D01*
X113190430Y-97880000D01*
X113583587Y-97801796D01*
X113953934Y-97648393D01*
X114287237Y-97425687D01*
X114570687Y-97142237D01*
X114793393Y-96808934D01*
X114946796Y-96438587D01*
X115025000Y-96045430D01*
X115025000Y-95664872D01*
X119685000Y-95664872D01*
X119685000Y-96105128D01*
X119770890Y-96536925D01*
X119939369Y-96943669D01*
X120183962Y-97309729D01*
X120495271Y-97621038D01*
X120861331Y-97865631D01*
X121268075Y-98034110D01*
X121699872Y-98120000D01*
X122140128Y-98120000D01*
X122571925Y-98034110D01*
X122978669Y-97865631D01*
X123344729Y-97621038D01*
X123656038Y-97309729D01*
X123900631Y-96943669D01*
X124069110Y-96536925D01*
X124155000Y-96105128D01*
X124155000Y-95664872D01*
X124069110Y-95233075D01*
X123900631Y-94826331D01*
X123656038Y-94460271D01*
X123344729Y-94148962D01*
X122978669Y-93904369D01*
X122571925Y-93735890D01*
X122140128Y-93650000D01*
X121699872Y-93650000D01*
X121268075Y-93735890D01*
X120861331Y-93904369D01*
X120495271Y-94148962D01*
X120183962Y-94460271D01*
X119939369Y-94826331D01*
X119770890Y-95233075D01*
X119685000Y-95664872D01*
X115025000Y-95664872D01*
X115025000Y-95644570D01*
X114946796Y-95251413D01*
X114793393Y-94881066D01*
X114570687Y-94547763D01*
X114287237Y-94264313D01*
X113953934Y-94041607D01*
X113583587Y-93888204D01*
X113190430Y-93810000D01*
X112789570Y-93810000D01*
X112396413Y-93888204D01*
X112026066Y-94041607D01*
X111692763Y-94264313D01*
X111409313Y-94547763D01*
X111186607Y-94881066D01*
X111033204Y-95251413D01*
X110955000Y-95644570D01*
X110025000Y-95644570D01*
X109946796Y-95251413D01*
X109793393Y-94881066D01*
X109570687Y-94547763D01*
X109287237Y-94264313D01*
X108953934Y-94041607D01*
X108583587Y-93888204D01*
X108190430Y-93810000D01*
X107789570Y-93810000D01*
X107396413Y-93888204D01*
X107026066Y-94041607D01*
X106692763Y-94264313D01*
X106497076Y-94460000D01*
X105308686Y-94460000D01*
X103245000Y-92396315D01*
X103245000Y-85548037D01*
X103251701Y-85480000D01*
X103224960Y-85208493D01*
X103212212Y-85166470D01*
X103365537Y-85268918D01*
X103663088Y-85392168D01*
X103978967Y-85455000D01*
X104301033Y-85455000D01*
X104616912Y-85392168D01*
X104914463Y-85268918D01*
X105181928Y-85090203D01*
X105181928Y-86580000D01*
X105194188Y-86704482D01*
X105230498Y-86824180D01*
X105289463Y-86934494D01*
X105368815Y-87031185D01*
X105465506Y-87110537D01*
X105575820Y-87169502D01*
X105660000Y-87195038D01*
X105660000Y-87967677D01*
X105656324Y-88005000D01*
X105660000Y-88042322D01*
X105660000Y-88042332D01*
X105670997Y-88153985D01*
X105714454Y-88297246D01*
X105785026Y-88429276D01*
X105823145Y-88475723D01*
X105879999Y-88545001D01*
X105909002Y-88568803D01*
X106280000Y-88939801D01*
X106280000Y-89001939D01*
X106319774Y-89201898D01*
X106397795Y-89390256D01*
X106511063Y-89559774D01*
X106655226Y-89703937D01*
X106824744Y-89817205D01*
X107013102Y-89895226D01*
X107213061Y-89935000D01*
X107416939Y-89935000D01*
X107616898Y-89895226D01*
X107805256Y-89817205D01*
X107974774Y-89703937D01*
X108118937Y-89559774D01*
X108232205Y-89390256D01*
X108310226Y-89201898D01*
X108350000Y-89001939D01*
X108350000Y-88798061D01*
X108310226Y-88598102D01*
X108232205Y-88409744D01*
X108118937Y-88240226D01*
X107974774Y-88096063D01*
X107898162Y-88044872D01*
X131750000Y-88044872D01*
X131750000Y-88485128D01*
X131835890Y-88916925D01*
X132004369Y-89323669D01*
X132248962Y-89689729D01*
X132560271Y-90001038D01*
X132926331Y-90245631D01*
X133333075Y-90414110D01*
X133764872Y-90500000D01*
X134205128Y-90500000D01*
X134636925Y-90414110D01*
X135043669Y-90245631D01*
X135070277Y-90227852D01*
X137916753Y-90227852D01*
X138045076Y-90519871D01*
X138380695Y-90687723D01*
X138742611Y-90786874D01*
X139116916Y-90813514D01*
X139489227Y-90766618D01*
X139845235Y-90647988D01*
X140084924Y-90519871D01*
X140213247Y-90227852D01*
X139065000Y-89079605D01*
X137916753Y-90227852D01*
X135070277Y-90227852D01*
X135409729Y-90001038D01*
X135721038Y-89689729D01*
X135965631Y-89323669D01*
X136119616Y-88951916D01*
X137151486Y-88951916D01*
X137198382Y-89324227D01*
X137317012Y-89680235D01*
X137445129Y-89919924D01*
X137737148Y-90048247D01*
X138885395Y-88900000D01*
X137737148Y-87751753D01*
X137445129Y-87880076D01*
X137277277Y-88215695D01*
X137178126Y-88577611D01*
X137151486Y-88951916D01*
X136119616Y-88951916D01*
X136134110Y-88916925D01*
X136220000Y-88485128D01*
X136220000Y-88044872D01*
X136134110Y-87613075D01*
X136117158Y-87572148D01*
X137916753Y-87572148D01*
X139065000Y-88720395D01*
X140213247Y-87572148D01*
X140084924Y-87280129D01*
X139749305Y-87112277D01*
X139387389Y-87013126D01*
X139013084Y-86986486D01*
X138640773Y-87033382D01*
X138284765Y-87152012D01*
X138045076Y-87280129D01*
X137916753Y-87572148D01*
X136117158Y-87572148D01*
X135965631Y-87206331D01*
X135721038Y-86840271D01*
X135409729Y-86528962D01*
X135043669Y-86284369D01*
X134636925Y-86115890D01*
X134205128Y-86030000D01*
X133764872Y-86030000D01*
X133333075Y-86115890D01*
X132926331Y-86284369D01*
X132560271Y-86528962D01*
X132248962Y-86840271D01*
X132004369Y-87206331D01*
X131835890Y-87613075D01*
X131750000Y-88044872D01*
X107898162Y-88044872D01*
X107805256Y-87982795D01*
X107616898Y-87904774D01*
X107416939Y-87865000D01*
X107354801Y-87865000D01*
X107180000Y-87690199D01*
X107180000Y-87195038D01*
X107264180Y-87169502D01*
X107374494Y-87110537D01*
X107471185Y-87031185D01*
X107550537Y-86934494D01*
X107609502Y-86824180D01*
X107645812Y-86704482D01*
X107658072Y-86580000D01*
X107658072Y-84380000D01*
X107645812Y-84255518D01*
X107609502Y-84135820D01*
X107550537Y-84025506D01*
X107471185Y-83928815D01*
X107374494Y-83849463D01*
X107264180Y-83790498D01*
X107144482Y-83754188D01*
X107020000Y-83741928D01*
X105820000Y-83741928D01*
X105775000Y-83746360D01*
X105775000Y-83658967D01*
X105712168Y-83343088D01*
X105588918Y-83045537D01*
X105570566Y-83018072D01*
X107040000Y-83018072D01*
X107164482Y-83005812D01*
X107284180Y-82969502D01*
X107394494Y-82910537D01*
X107491185Y-82831185D01*
X107570537Y-82734494D01*
X107629502Y-82624180D01*
X107665812Y-82504482D01*
X107678072Y-82380000D01*
X107678072Y-75980000D01*
X107665812Y-75855518D01*
X107629502Y-75735820D01*
X107570537Y-75625506D01*
X107491185Y-75528815D01*
X107394494Y-75449463D01*
X107284180Y-75390498D01*
X107164482Y-75354188D01*
X107040000Y-75341928D01*
X101240000Y-75341928D01*
X101115518Y-75354188D01*
X100995820Y-75390498D01*
X100885506Y-75449463D01*
X100788815Y-75528815D01*
X100709463Y-75625506D01*
X100650498Y-75735820D01*
X100614188Y-75855518D01*
X100601928Y-75980000D01*
X100601928Y-82380000D01*
X100614188Y-82504482D01*
X100650498Y-82624180D01*
X100709463Y-82734494D01*
X100788815Y-82831185D01*
X100885506Y-82910537D01*
X100995820Y-82969502D01*
X101115518Y-83005812D01*
X101240000Y-83018072D01*
X102709434Y-83018072D01*
X102691082Y-83045537D01*
X102567832Y-83343088D01*
X102505000Y-83658967D01*
X102505000Y-83746360D01*
X102460000Y-83741928D01*
X101260000Y-83741928D01*
X101135518Y-83754188D01*
X101015820Y-83790498D01*
X100905506Y-83849463D01*
X100808815Y-83928815D01*
X100729463Y-84025506D01*
X100692317Y-84095000D01*
X100023686Y-84095000D01*
X99810000Y-83881315D01*
X99810000Y-80880123D01*
X99873918Y-80784463D01*
X99997168Y-80486912D01*
X100060000Y-80171033D01*
X100060000Y-79848967D01*
X99997168Y-79533088D01*
X99873918Y-79235537D01*
X99694987Y-78967748D01*
X99467252Y-78740013D01*
X99199463Y-78561082D01*
X98901912Y-78437832D01*
X98586033Y-78375000D01*
X98263967Y-78375000D01*
X97948088Y-78437832D01*
X97650537Y-78561082D01*
X97382748Y-78740013D01*
X97155013Y-78967748D01*
X96976082Y-79235537D01*
X96852832Y-79533088D01*
X96790000Y-79848967D01*
X93475278Y-79848967D01*
X93435904Y-79525296D01*
X93310795Y-79144460D01*
X93165770Y-78873135D01*
X92860447Y-78729158D01*
X91619605Y-79970000D01*
X91260395Y-79970000D01*
X90019553Y-78729158D01*
X89714230Y-78873135D01*
X89533403Y-79230892D01*
X89425845Y-79617053D01*
X89395690Y-80016777D01*
X87125000Y-80016777D01*
X87125000Y-79769570D01*
X87046796Y-79376413D01*
X86893393Y-79006066D01*
X86670687Y-78672763D01*
X86547477Y-78549553D01*
X90199158Y-78549553D01*
X91440000Y-79790395D01*
X92680842Y-78549553D01*
X92536865Y-78244230D01*
X92179108Y-78063403D01*
X91792947Y-77955845D01*
X91393223Y-77925690D01*
X90995296Y-77974096D01*
X90614460Y-78099205D01*
X90343135Y-78244230D01*
X90199158Y-78549553D01*
X86547477Y-78549553D01*
X86387237Y-78389313D01*
X86053934Y-78166607D01*
X85683587Y-78013204D01*
X85290430Y-77935000D01*
X84889570Y-77935000D01*
X84496413Y-78013204D01*
X84126066Y-78166607D01*
X83792763Y-78389313D01*
X83509313Y-78672763D01*
X83286607Y-79006066D01*
X83133204Y-79376413D01*
X83055000Y-79769570D01*
X81305000Y-79769570D01*
X81305000Y-74769570D01*
X83055000Y-74769570D01*
X83055000Y-75170430D01*
X83133204Y-75563587D01*
X83286607Y-75933934D01*
X83509313Y-76267237D01*
X83792763Y-76550687D01*
X84126066Y-76773393D01*
X84496413Y-76926796D01*
X84889570Y-77005000D01*
X85290430Y-77005000D01*
X85683587Y-76926796D01*
X86053934Y-76773393D01*
X86387237Y-76550687D01*
X86547477Y-76390447D01*
X90199158Y-76390447D01*
X90343135Y-76695770D01*
X90700892Y-76876597D01*
X91087053Y-76984155D01*
X91486777Y-77014310D01*
X91884704Y-76965904D01*
X92265540Y-76840795D01*
X92536865Y-76695770D01*
X92680842Y-76390447D01*
X91440000Y-75149605D01*
X90199158Y-76390447D01*
X86547477Y-76390447D01*
X86670687Y-76267237D01*
X86893393Y-75933934D01*
X87046796Y-75563587D01*
X87125000Y-75170430D01*
X87125000Y-75016777D01*
X89395690Y-75016777D01*
X89444096Y-75414704D01*
X89569205Y-75795540D01*
X89714230Y-76066865D01*
X90019553Y-76210842D01*
X91260395Y-74970000D01*
X91619605Y-74970000D01*
X92860447Y-76210842D01*
X93165770Y-76066865D01*
X93346597Y-75709108D01*
X93454155Y-75322947D01*
X93484310Y-74923223D01*
X93435904Y-74525296D01*
X93326761Y-74193061D01*
X109455000Y-74193061D01*
X109455000Y-74396939D01*
X109494774Y-74596898D01*
X109572795Y-74785256D01*
X109686063Y-74954774D01*
X109730000Y-74998711D01*
X109730000Y-75503222D01*
X109698815Y-75528815D01*
X109619463Y-75625506D01*
X109560498Y-75735820D01*
X109524188Y-75855518D01*
X109511928Y-75980000D01*
X109511928Y-78180000D01*
X109524188Y-78304482D01*
X109560498Y-78424180D01*
X109619463Y-78534494D01*
X109698815Y-78631185D01*
X109795506Y-78710537D01*
X109905820Y-78769502D01*
X110025518Y-78805812D01*
X110150000Y-78818072D01*
X111350000Y-78818072D01*
X111395000Y-78813640D01*
X111395000Y-78901033D01*
X111457832Y-79216912D01*
X111581082Y-79514463D01*
X111599434Y-79541928D01*
X110130000Y-79541928D01*
X110005518Y-79554188D01*
X109885820Y-79590498D01*
X109775506Y-79649463D01*
X109678815Y-79728815D01*
X109599463Y-79825506D01*
X109540498Y-79935820D01*
X109504188Y-80055518D01*
X109491928Y-80180000D01*
X109491928Y-86580000D01*
X109504188Y-86704482D01*
X109540498Y-86824180D01*
X109599463Y-86934494D01*
X109678815Y-87031185D01*
X109775506Y-87110537D01*
X109885820Y-87169502D01*
X110005518Y-87205812D01*
X110130000Y-87218072D01*
X115930000Y-87218072D01*
X116054482Y-87205812D01*
X116174180Y-87169502D01*
X116284494Y-87110537D01*
X116381185Y-87031185D01*
X116460537Y-86934494D01*
X116519502Y-86824180D01*
X116555812Y-86704482D01*
X116568072Y-86580000D01*
X116568072Y-83358511D01*
X116730744Y-83467205D01*
X116919102Y-83545226D01*
X117119061Y-83585000D01*
X117322939Y-83585000D01*
X117522898Y-83545226D01*
X117711256Y-83467205D01*
X117880774Y-83353937D01*
X117924711Y-83310000D01*
X118326678Y-83310000D01*
X118364000Y-83313676D01*
X118401322Y-83310000D01*
X118401333Y-83310000D01*
X118512986Y-83299003D01*
X118656247Y-83255546D01*
X118788276Y-83184974D01*
X118904001Y-83090001D01*
X118927804Y-83060997D01*
X120054802Y-81934000D01*
X120116939Y-81934000D01*
X120316898Y-81894226D01*
X120505256Y-81816205D01*
X120674774Y-81702937D01*
X120818937Y-81558774D01*
X120932205Y-81389256D01*
X121010226Y-81200898D01*
X121050000Y-81000939D01*
X121050000Y-80797061D01*
X121010226Y-80597102D01*
X120932205Y-80408744D01*
X120818937Y-80239226D01*
X120674774Y-80095063D01*
X120505256Y-79981795D01*
X120316898Y-79903774D01*
X120116939Y-79864000D01*
X119913061Y-79864000D01*
X119713102Y-79903774D01*
X119524744Y-79981795D01*
X119355226Y-80095063D01*
X119211063Y-80239226D01*
X119097795Y-80408744D01*
X119019774Y-80597102D01*
X118980000Y-80797061D01*
X118980000Y-80859198D01*
X118049199Y-81790000D01*
X117924711Y-81790000D01*
X117880774Y-81746063D01*
X117711256Y-81632795D01*
X117522898Y-81554774D01*
X117322939Y-81515000D01*
X117119061Y-81515000D01*
X116919102Y-81554774D01*
X116730744Y-81632795D01*
X116568072Y-81741489D01*
X116568072Y-80180000D01*
X116555812Y-80055518D01*
X116519502Y-79935820D01*
X116460537Y-79825506D01*
X116381185Y-79728815D01*
X116284494Y-79649463D01*
X116174180Y-79590498D01*
X116054482Y-79554188D01*
X115930000Y-79541928D01*
X114460566Y-79541928D01*
X114478918Y-79514463D01*
X114602168Y-79216912D01*
X114665000Y-78901033D01*
X114665000Y-78813640D01*
X114710000Y-78818072D01*
X115910000Y-78818072D01*
X116034482Y-78805812D01*
X116154180Y-78769502D01*
X116264494Y-78710537D01*
X116361185Y-78631185D01*
X116440537Y-78534494D01*
X116499502Y-78424180D01*
X116535812Y-78304482D01*
X116548072Y-78180000D01*
X116548072Y-77701807D01*
X116595764Y-77612581D01*
X116674960Y-77351507D01*
X116695000Y-77148037D01*
X116695000Y-75985000D01*
X125511928Y-75985000D01*
X125511928Y-77685000D01*
X125524188Y-77809482D01*
X125560498Y-77929180D01*
X125619463Y-78039494D01*
X125698815Y-78136185D01*
X125795506Y-78215537D01*
X125905820Y-78274502D01*
X125978380Y-78296513D01*
X125846525Y-78428368D01*
X125684010Y-78671589D01*
X125572068Y-78941842D01*
X125515000Y-79228740D01*
X125515000Y-79521260D01*
X125572068Y-79808158D01*
X125684010Y-80078411D01*
X125846525Y-80321632D01*
X126053368Y-80528475D01*
X126227760Y-80645000D01*
X126053368Y-80761525D01*
X125846525Y-80968368D01*
X125684010Y-81211589D01*
X125572068Y-81481842D01*
X125515000Y-81768740D01*
X125515000Y-82061260D01*
X125572068Y-82348158D01*
X125684010Y-82618411D01*
X125846525Y-82861632D01*
X126053368Y-83068475D01*
X126296589Y-83230990D01*
X126566842Y-83342932D01*
X126853740Y-83400000D01*
X127146260Y-83400000D01*
X127433158Y-83342932D01*
X127703411Y-83230990D01*
X127946632Y-83068475D01*
X128153475Y-82861632D01*
X128271100Y-82685594D01*
X128442412Y-82915269D01*
X128658645Y-83110178D01*
X128908748Y-83259157D01*
X129183109Y-83356481D01*
X129413000Y-83235814D01*
X129413000Y-82042000D01*
X129667000Y-82042000D01*
X129667000Y-83235814D01*
X129896891Y-83356481D01*
X130171252Y-83259157D01*
X130421355Y-83110178D01*
X130637588Y-82915269D01*
X130811641Y-82681920D01*
X130936825Y-82419099D01*
X130981476Y-82271890D01*
X130860155Y-82042000D01*
X129667000Y-82042000D01*
X129413000Y-82042000D01*
X129393000Y-82042000D01*
X129393000Y-81788000D01*
X129413000Y-81788000D01*
X129413000Y-79502000D01*
X129667000Y-79502000D01*
X129667000Y-81788000D01*
X130860155Y-81788000D01*
X130981476Y-81558110D01*
X130936825Y-81410901D01*
X130811641Y-81148080D01*
X130637588Y-80914731D01*
X130421355Y-80719822D01*
X130295745Y-80645000D01*
X130421355Y-80570178D01*
X130637588Y-80375269D01*
X130811641Y-80141920D01*
X130936825Y-79879099D01*
X130981476Y-79731890D01*
X130860155Y-79502000D01*
X129667000Y-79502000D01*
X129413000Y-79502000D01*
X129393000Y-79502000D01*
X129393000Y-79248000D01*
X129413000Y-79248000D01*
X129413000Y-76962000D01*
X129667000Y-76962000D01*
X129667000Y-79248000D01*
X130860155Y-79248000D01*
X130981476Y-79018110D01*
X130936825Y-78870901D01*
X130811641Y-78608080D01*
X130637588Y-78374731D01*
X130421355Y-78179822D01*
X130295745Y-78105000D01*
X130421355Y-78030178D01*
X130637588Y-77835269D01*
X130811641Y-77601920D01*
X130936825Y-77339099D01*
X130981476Y-77191890D01*
X130860155Y-76962000D01*
X129667000Y-76962000D01*
X129413000Y-76962000D01*
X129393000Y-76962000D01*
X129393000Y-76708000D01*
X129413000Y-76708000D01*
X129413000Y-75514186D01*
X129667000Y-75514186D01*
X129667000Y-76708000D01*
X130860155Y-76708000D01*
X130981476Y-76478110D01*
X130936825Y-76330901D01*
X130811641Y-76068080D01*
X130637588Y-75834731D01*
X130421355Y-75639822D01*
X130171252Y-75490843D01*
X129896891Y-75393519D01*
X129667000Y-75514186D01*
X129413000Y-75514186D01*
X129183109Y-75393519D01*
X128908748Y-75490843D01*
X128658645Y-75639822D01*
X128462498Y-75816626D01*
X128439502Y-75740820D01*
X128380537Y-75630506D01*
X128301185Y-75533815D01*
X128204494Y-75454463D01*
X128094180Y-75395498D01*
X127974482Y-75359188D01*
X127850000Y-75346928D01*
X126150000Y-75346928D01*
X126025518Y-75359188D01*
X125905820Y-75395498D01*
X125795506Y-75454463D01*
X125698815Y-75533815D01*
X125619463Y-75630506D01*
X125560498Y-75740820D01*
X125524188Y-75860518D01*
X125511928Y-75985000D01*
X116695000Y-75985000D01*
X116695000Y-74886747D01*
X116979463Y-74768918D01*
X117247252Y-74589987D01*
X117474987Y-74362252D01*
X117612759Y-74156061D01*
X121012000Y-74156061D01*
X121012000Y-74359939D01*
X121051774Y-74559898D01*
X121129795Y-74748256D01*
X121243063Y-74917774D01*
X121387226Y-75061937D01*
X121556744Y-75175205D01*
X121745102Y-75253226D01*
X121945061Y-75293000D01*
X122148939Y-75293000D01*
X122348898Y-75253226D01*
X122537256Y-75175205D01*
X122706774Y-75061937D01*
X122750711Y-75018000D01*
X126386289Y-75018000D01*
X126467226Y-75098937D01*
X126636744Y-75212205D01*
X126825102Y-75290226D01*
X127025061Y-75330000D01*
X127228939Y-75330000D01*
X127428898Y-75290226D01*
X127617256Y-75212205D01*
X127786774Y-75098937D01*
X127930937Y-74954774D01*
X128044205Y-74785256D01*
X128122226Y-74596898D01*
X128162000Y-74396939D01*
X128162000Y-74193061D01*
X128122226Y-73993102D01*
X128044205Y-73804744D01*
X127930937Y-73635226D01*
X127786774Y-73491063D01*
X127617256Y-73377795D01*
X127428898Y-73299774D01*
X127228939Y-73260000D01*
X127025061Y-73260000D01*
X126825102Y-73299774D01*
X126636744Y-73377795D01*
X126467226Y-73491063D01*
X126460289Y-73498000D01*
X122750711Y-73498000D01*
X122706774Y-73454063D01*
X122537256Y-73340795D01*
X122348898Y-73262774D01*
X122148939Y-73223000D01*
X121945061Y-73223000D01*
X121745102Y-73262774D01*
X121556744Y-73340795D01*
X121387226Y-73454063D01*
X121243063Y-73598226D01*
X121129795Y-73767744D01*
X121051774Y-73956102D01*
X121012000Y-74156061D01*
X117612759Y-74156061D01*
X117653918Y-74094463D01*
X117777168Y-73796912D01*
X117840000Y-73481033D01*
X117840000Y-73158967D01*
X117777168Y-72843088D01*
X117653918Y-72545537D01*
X117474987Y-72277748D01*
X117247252Y-72050013D01*
X116979463Y-71871082D01*
X116681912Y-71747832D01*
X116366033Y-71685000D01*
X116043967Y-71685000D01*
X115728088Y-71747832D01*
X115430537Y-71871082D01*
X115162748Y-72050013D01*
X114935013Y-72277748D01*
X114756082Y-72545537D01*
X114632832Y-72843088D01*
X114610387Y-72955928D01*
X114378765Y-73187550D01*
X114325920Y-73230919D01*
X114282551Y-73283764D01*
X114282548Y-73283767D01*
X114152844Y-73441812D01*
X114024236Y-73682420D01*
X113945040Y-73943493D01*
X113918300Y-74215000D01*
X113925001Y-74283039D01*
X113925000Y-77148036D01*
X113945040Y-77351506D01*
X113957788Y-77393531D01*
X113804463Y-77291082D01*
X113506912Y-77167832D01*
X113191033Y-77105000D01*
X112868967Y-77105000D01*
X112553088Y-77167832D01*
X112255537Y-77291082D01*
X111988072Y-77469797D01*
X111988072Y-75980000D01*
X111975812Y-75855518D01*
X111939502Y-75735820D01*
X111880537Y-75625506D01*
X111801185Y-75528815D01*
X111704494Y-75449463D01*
X111594180Y-75390498D01*
X111474482Y-75354188D01*
X111350000Y-75341928D01*
X111250000Y-75341928D01*
X111250000Y-74998711D01*
X111293937Y-74954774D01*
X111407205Y-74785256D01*
X111485226Y-74596898D01*
X111525000Y-74396939D01*
X111525000Y-74193061D01*
X111485226Y-73993102D01*
X111407205Y-73804744D01*
X111293937Y-73635226D01*
X111149774Y-73491063D01*
X110980256Y-73377795D01*
X110791898Y-73299774D01*
X110591939Y-73260000D01*
X110388061Y-73260000D01*
X110188102Y-73299774D01*
X109999744Y-73377795D01*
X109830226Y-73491063D01*
X109686063Y-73635226D01*
X109572795Y-73804744D01*
X109494774Y-73993102D01*
X109455000Y-74193061D01*
X93326761Y-74193061D01*
X93310795Y-74144460D01*
X93165770Y-73873135D01*
X92860447Y-73729158D01*
X91619605Y-74970000D01*
X91260395Y-74970000D01*
X90019553Y-73729158D01*
X89714230Y-73873135D01*
X89533403Y-74230892D01*
X89425845Y-74617053D01*
X89395690Y-75016777D01*
X87125000Y-75016777D01*
X87125000Y-74769570D01*
X87046796Y-74376413D01*
X86893393Y-74006066D01*
X86670687Y-73672763D01*
X86547477Y-73549553D01*
X90199158Y-73549553D01*
X91440000Y-74790395D01*
X92680842Y-73549553D01*
X92536865Y-73244230D01*
X92179108Y-73063403D01*
X91792947Y-72955845D01*
X91393223Y-72925690D01*
X90995296Y-72974096D01*
X90614460Y-73099205D01*
X90343135Y-73244230D01*
X90199158Y-73549553D01*
X86547477Y-73549553D01*
X86387237Y-73389313D01*
X86053934Y-73166607D01*
X85683587Y-73013204D01*
X85290430Y-72935000D01*
X84889570Y-72935000D01*
X84496413Y-73013204D01*
X84126066Y-73166607D01*
X83792763Y-73389313D01*
X83509313Y-73672763D01*
X83286607Y-74006066D01*
X83133204Y-74376413D01*
X83055000Y-74769570D01*
X81305000Y-74769570D01*
X81305000Y-69850000D01*
X96516928Y-69850000D01*
X96516928Y-72390000D01*
X96529188Y-72514482D01*
X96565498Y-72634180D01*
X96624463Y-72744494D01*
X96703815Y-72841185D01*
X96800506Y-72920537D01*
X96910820Y-72979502D01*
X97030518Y-73015812D01*
X97155000Y-73028072D01*
X99695000Y-73028072D01*
X99819482Y-73015812D01*
X99939180Y-72979502D01*
X100049494Y-72920537D01*
X100146185Y-72841185D01*
X100225537Y-72744494D01*
X100284502Y-72634180D01*
X100320812Y-72514482D01*
X100333072Y-72390000D01*
X100333072Y-71534872D01*
X101270000Y-71534872D01*
X101270000Y-71975128D01*
X101355890Y-72406925D01*
X101524369Y-72813669D01*
X101768962Y-73179729D01*
X102080271Y-73491038D01*
X102446331Y-73735631D01*
X102853075Y-73904110D01*
X103284872Y-73990000D01*
X103725128Y-73990000D01*
X104156925Y-73904110D01*
X104563669Y-73735631D01*
X104929729Y-73491038D01*
X105241038Y-73179729D01*
X105485631Y-72813669D01*
X105654110Y-72406925D01*
X105740000Y-71975128D01*
X105740000Y-71534872D01*
X105654110Y-71103075D01*
X105485631Y-70696331D01*
X105241038Y-70330271D01*
X104929729Y-70018962D01*
X104563669Y-69774369D01*
X104156925Y-69605890D01*
X103725128Y-69520000D01*
X103284872Y-69520000D01*
X102853075Y-69605890D01*
X102446331Y-69774369D01*
X102080271Y-70018962D01*
X101768962Y-70330271D01*
X101524369Y-70696331D01*
X101355890Y-71103075D01*
X101270000Y-71534872D01*
X100333072Y-71534872D01*
X100333072Y-69850000D01*
X100320812Y-69725518D01*
X100284502Y-69605820D01*
X100225537Y-69495506D01*
X100146185Y-69398815D01*
X100049494Y-69319463D01*
X99939180Y-69260498D01*
X99819482Y-69224188D01*
X99695000Y-69211928D01*
X97155000Y-69211928D01*
X97030518Y-69224188D01*
X96910820Y-69260498D01*
X96800506Y-69319463D01*
X96703815Y-69398815D01*
X96624463Y-69495506D01*
X96565498Y-69605820D01*
X96529188Y-69725518D01*
X96516928Y-69850000D01*
X81305000Y-69850000D01*
X81305000Y-63914872D01*
X82855000Y-63914872D01*
X82855000Y-64355128D01*
X82940890Y-64786925D01*
X83109369Y-65193669D01*
X83353962Y-65559729D01*
X83665271Y-65871038D01*
X84031331Y-66115631D01*
X84438075Y-66284110D01*
X84869872Y-66370000D01*
X85310128Y-66370000D01*
X85741925Y-66284110D01*
X86148669Y-66115631D01*
X86514729Y-65871038D01*
X86826038Y-65559729D01*
X87070631Y-65193669D01*
X87239110Y-64786925D01*
X87325000Y-64355128D01*
X87325000Y-63914872D01*
X87239110Y-63483075D01*
X87070631Y-63076331D01*
X86826038Y-62710271D01*
X86514729Y-62398962D01*
X86148669Y-62154369D01*
X85741925Y-61985890D01*
X85310128Y-61900000D01*
X84869872Y-61900000D01*
X84438075Y-61985890D01*
X84031331Y-62154369D01*
X83665271Y-62398962D01*
X83353962Y-62710271D01*
X83109369Y-63076331D01*
X82940890Y-63483075D01*
X82855000Y-63914872D01*
X81305000Y-63914872D01*
X81305000Y-60440000D01*
X87870000Y-60440000D01*
X87870000Y-64260000D01*
X105955000Y-64260000D01*
X105955000Y-64335430D01*
X106033204Y-64728587D01*
X106186607Y-65098934D01*
X106409313Y-65432237D01*
X106692763Y-65715687D01*
X107026066Y-65938393D01*
X107396413Y-66091796D01*
X107789570Y-66170000D01*
X108190430Y-66170000D01*
X108583587Y-66091796D01*
X108953934Y-65938393D01*
X109287237Y-65715687D01*
X109570687Y-65432237D01*
X109793393Y-65098934D01*
X109946796Y-64728587D01*
X110025000Y-64335430D01*
X110025000Y-63934570D01*
X110955000Y-63934570D01*
X110955000Y-64335430D01*
X111033204Y-64728587D01*
X111186607Y-65098934D01*
X111409313Y-65432237D01*
X111692763Y-65715687D01*
X112026066Y-65938393D01*
X112396413Y-66091796D01*
X112789570Y-66170000D01*
X113190430Y-66170000D01*
X113583587Y-66091796D01*
X113953934Y-65938393D01*
X114287237Y-65715687D01*
X114570687Y-65432237D01*
X114793393Y-65098934D01*
X114946796Y-64728587D01*
X115025000Y-64335430D01*
X115025000Y-63934570D01*
X115021082Y-63914872D01*
X119685000Y-63914872D01*
X119685000Y-64355128D01*
X119770890Y-64786925D01*
X119939369Y-65193669D01*
X120183962Y-65559729D01*
X120495271Y-65871038D01*
X120861331Y-66115631D01*
X121268075Y-66284110D01*
X121699872Y-66370000D01*
X122140128Y-66370000D01*
X122571925Y-66284110D01*
X122978669Y-66115631D01*
X123344729Y-65871038D01*
X123656038Y-65559729D01*
X123900631Y-65193669D01*
X124069110Y-64786925D01*
X124155000Y-64355128D01*
X124155000Y-63914872D01*
X124069110Y-63483075D01*
X123900631Y-63076331D01*
X123656038Y-62710271D01*
X123344729Y-62398962D01*
X122978669Y-62154369D01*
X122571925Y-61985890D01*
X122140128Y-61900000D01*
X121699872Y-61900000D01*
X121268075Y-61985890D01*
X120861331Y-62154369D01*
X120495271Y-62398962D01*
X120183962Y-62710271D01*
X119939369Y-63076331D01*
X119770890Y-63483075D01*
X119685000Y-63914872D01*
X115021082Y-63914872D01*
X114946796Y-63541413D01*
X114793393Y-63171066D01*
X114570687Y-62837763D01*
X114287237Y-62554313D01*
X113953934Y-62331607D01*
X113583587Y-62178204D01*
X113190430Y-62100000D01*
X112789570Y-62100000D01*
X112396413Y-62178204D01*
X112026066Y-62331607D01*
X111692763Y-62554313D01*
X111409313Y-62837763D01*
X111186607Y-63171066D01*
X111033204Y-63541413D01*
X110955000Y-63934570D01*
X110025000Y-63934570D01*
X109946796Y-63541413D01*
X109793393Y-63171066D01*
X109570687Y-62837763D01*
X109287237Y-62554313D01*
X108953934Y-62331607D01*
X108583587Y-62178204D01*
X108190430Y-62100000D01*
X107789570Y-62100000D01*
X107396413Y-62178204D01*
X107026066Y-62331607D01*
X106692763Y-62554313D01*
X106440000Y-62807076D01*
X106440000Y-60440000D01*
X87870000Y-60440000D01*
X81305000Y-60440000D01*
X81305000Y-60350000D01*
X125652705Y-60350000D01*
X125619463Y-60390506D01*
G04 #@! TA.AperFunction,Conductor*
D24*
G36*
X125619463Y-60390506D02*
G01*
X125560498Y-60500820D01*
X125524188Y-60620518D01*
X125511928Y-60745000D01*
X125511928Y-62445000D01*
X125524188Y-62569482D01*
X125560498Y-62689180D01*
X125619463Y-62799494D01*
X125698815Y-62896185D01*
X125795506Y-62975537D01*
X125905820Y-63034502D01*
X125978380Y-63056513D01*
X125846525Y-63188368D01*
X125684010Y-63431589D01*
X125572068Y-63701842D01*
X125515000Y-63988740D01*
X125515000Y-64281260D01*
X125572068Y-64568158D01*
X125684010Y-64838411D01*
X125846525Y-65081632D01*
X126053368Y-65288475D01*
X126227760Y-65405000D01*
X126053368Y-65521525D01*
X125846525Y-65728368D01*
X125684010Y-65971589D01*
X125572068Y-66241842D01*
X125515000Y-66528740D01*
X125515000Y-66821260D01*
X125572068Y-67108158D01*
X125684010Y-67378411D01*
X125846525Y-67621632D01*
X126053368Y-67828475D01*
X126296589Y-67990990D01*
X126566842Y-68102932D01*
X126853740Y-68160000D01*
X127146260Y-68160000D01*
X127433158Y-68102932D01*
X127703411Y-67990990D01*
X127946632Y-67828475D01*
X128153475Y-67621632D01*
X128271100Y-67445594D01*
X128442412Y-67675269D01*
X128658645Y-67870178D01*
X128908748Y-68019157D01*
X129183109Y-68116481D01*
X129413000Y-67995814D01*
X129413000Y-66802000D01*
X129667000Y-66802000D01*
X129667000Y-67995814D01*
X129896891Y-68116481D01*
X130171252Y-68019157D01*
X130421355Y-67870178D01*
X130637588Y-67675269D01*
X130811641Y-67441920D01*
X130936825Y-67179099D01*
X130981476Y-67031890D01*
X130860155Y-66802000D01*
X129667000Y-66802000D01*
X129413000Y-66802000D01*
X129393000Y-66802000D01*
X129393000Y-66548000D01*
X129413000Y-66548000D01*
X129413000Y-64262000D01*
X129667000Y-64262000D01*
X129667000Y-66548000D01*
X130860155Y-66548000D01*
X130981476Y-66318110D01*
X130936825Y-66170901D01*
X130811641Y-65908080D01*
X130637588Y-65674731D01*
X130421355Y-65479822D01*
X130295745Y-65405000D01*
X130421355Y-65330178D01*
X130637588Y-65135269D01*
X130811641Y-64901920D01*
X130936825Y-64639099D01*
X130981476Y-64491890D01*
X130860155Y-64262000D01*
X129667000Y-64262000D01*
X129413000Y-64262000D01*
X129393000Y-64262000D01*
X129393000Y-64008000D01*
X129413000Y-64008000D01*
X129413000Y-61722000D01*
X129667000Y-61722000D01*
X129667000Y-64008000D01*
X130860155Y-64008000D01*
X130981476Y-63778110D01*
X130936825Y-63630901D01*
X130811641Y-63368080D01*
X130637588Y-63134731D01*
X130421355Y-62939822D01*
X130295745Y-62865000D01*
X130421355Y-62790178D01*
X130637588Y-62595269D01*
X130811641Y-62361920D01*
X130936825Y-62099099D01*
X130981476Y-61951890D01*
X130860155Y-61722000D01*
X129667000Y-61722000D01*
X129413000Y-61722000D01*
X129393000Y-61722000D01*
X129393000Y-61468000D01*
X129413000Y-61468000D01*
X129413000Y-61448000D01*
X129667000Y-61448000D01*
X129667000Y-61468000D01*
X130860155Y-61468000D01*
X130981476Y-61238110D01*
X130936825Y-61090901D01*
X130811641Y-60828080D01*
X130637588Y-60594731D01*
X130421355Y-60399822D01*
X130337715Y-60350000D01*
X140945000Y-60350000D01*
X140945000Y-70806693D01*
X140896791Y-70564332D01*
X140753189Y-70217644D01*
X140544710Y-69905634D01*
X140279366Y-69640290D01*
X139967356Y-69431811D01*
X139620668Y-69288209D01*
X139252626Y-69215000D01*
X138877374Y-69215000D01*
X138509332Y-69288209D01*
X138162644Y-69431811D01*
X137850634Y-69640290D01*
X137585290Y-69905634D01*
X137376811Y-70217644D01*
X137233209Y-70564332D01*
X137160000Y-70932374D01*
X137160000Y-71307626D01*
X137233209Y-71675668D01*
X137376811Y-72022356D01*
X137585290Y-72334366D01*
X137850634Y-72599710D01*
X138162644Y-72808189D01*
X138509332Y-72951791D01*
X138877374Y-73025000D01*
X139252626Y-73025000D01*
X139620668Y-72951791D01*
X139967356Y-72808189D01*
X140279366Y-72599710D01*
X140544710Y-72334366D01*
X140753189Y-72022356D01*
X140896791Y-71675668D01*
X140945000Y-71433306D01*
X140945001Y-88582019D01*
X140931618Y-88475773D01*
X140812988Y-88119765D01*
X140684871Y-87880076D01*
X140392852Y-87751753D01*
X139244605Y-88900000D01*
X140392852Y-90048247D01*
X140684871Y-89919924D01*
X140852723Y-89584305D01*
X140945001Y-89247477D01*
X140945001Y-99670000D01*
X130337715Y-99670000D01*
X130421355Y-99620178D01*
X130637588Y-99425269D01*
X130811641Y-99191920D01*
X130936825Y-98929099D01*
X130981476Y-98781890D01*
X130860155Y-98552000D01*
X129667000Y-98552000D01*
X129667000Y-98572000D01*
X129413000Y-98572000D01*
X129413000Y-98552000D01*
X129393000Y-98552000D01*
X129393000Y-98298000D01*
X129413000Y-98298000D01*
X129413000Y-96012000D01*
X129667000Y-96012000D01*
X129667000Y-98298000D01*
X130860155Y-98298000D01*
X130981476Y-98068110D01*
X130936825Y-97920901D01*
X130811641Y-97658080D01*
X130637588Y-97424731D01*
X130421355Y-97229822D01*
X130295745Y-97155000D01*
X130421355Y-97080178D01*
X130637588Y-96885269D01*
X130811641Y-96651920D01*
X130936825Y-96389099D01*
X130981476Y-96241890D01*
X130860155Y-96012000D01*
X129667000Y-96012000D01*
X129413000Y-96012000D01*
X129393000Y-96012000D01*
X129393000Y-95758000D01*
X129413000Y-95758000D01*
X129413000Y-93472000D01*
X129667000Y-93472000D01*
X129667000Y-95758000D01*
X130860155Y-95758000D01*
X130981476Y-95528110D01*
X130936825Y-95380901D01*
X130811641Y-95118080D01*
X130637588Y-94884731D01*
X130421355Y-94689822D01*
X130295745Y-94615000D01*
X130421355Y-94540178D01*
X130637588Y-94345269D01*
X130811641Y-94111920D01*
X130936825Y-93849099D01*
X130981476Y-93701890D01*
X130860155Y-93472000D01*
X129667000Y-93472000D01*
X129413000Y-93472000D01*
X129393000Y-93472000D01*
X129393000Y-93218000D01*
X129413000Y-93218000D01*
X129413000Y-92024186D01*
X129667000Y-92024186D01*
X129667000Y-93218000D01*
X130860155Y-93218000D01*
X130981476Y-92988110D01*
X130936825Y-92840901D01*
X130811641Y-92578080D01*
X130637588Y-92344731D01*
X130421355Y-92149822D01*
X130171252Y-92000843D01*
X129896891Y-91903519D01*
X129667000Y-92024186D01*
X129413000Y-92024186D01*
X129183109Y-91903519D01*
X128908748Y-92000843D01*
X128658645Y-92149822D01*
X128462498Y-92326626D01*
X128439502Y-92250820D01*
X128380537Y-92140506D01*
X128301185Y-92043815D01*
X128204494Y-91964463D01*
X128094180Y-91905498D01*
X127974482Y-91869188D01*
X127850000Y-91856928D01*
X126150000Y-91856928D01*
X126025518Y-91869188D01*
X125905820Y-91905498D01*
X125795506Y-91964463D01*
X125698815Y-92043815D01*
X125619463Y-92140506D01*
X125560498Y-92250820D01*
X125524188Y-92370518D01*
X125511928Y-92495000D01*
X125511928Y-94195000D01*
X125524188Y-94319482D01*
X125560498Y-94439180D01*
X125619463Y-94549494D01*
X125698815Y-94646185D01*
X125795506Y-94725537D01*
X125905820Y-94784502D01*
X125978380Y-94806513D01*
X125846525Y-94938368D01*
X125684010Y-95181589D01*
X125572068Y-95451842D01*
X125515000Y-95738740D01*
X125515000Y-96031260D01*
X125572068Y-96318158D01*
X125684010Y-96588411D01*
X125846525Y-96831632D01*
X126053368Y-97038475D01*
X126227760Y-97155000D01*
X126053368Y-97271525D01*
X125846525Y-97478368D01*
X125684010Y-97721589D01*
X125572068Y-97991842D01*
X125515000Y-98278740D01*
X125515000Y-98571260D01*
X125572068Y-98858158D01*
X125684010Y-99128411D01*
X125846525Y-99371632D01*
X126053368Y-99578475D01*
X126190345Y-99670000D01*
X92115758Y-99670000D01*
X92265540Y-99620795D01*
X92536865Y-99475770D01*
X92680842Y-99170447D01*
X91440000Y-97929605D01*
X90199158Y-99170447D01*
X90343135Y-99475770D01*
X90700892Y-99656597D01*
X90749012Y-99670000D01*
X81305000Y-99670000D01*
X81305000Y-95664872D01*
X82855000Y-95664872D01*
X82855000Y-96105128D01*
X82940890Y-96536925D01*
X83109369Y-96943669D01*
X83353962Y-97309729D01*
X83665271Y-97621038D01*
X84031331Y-97865631D01*
X84438075Y-98034110D01*
X84869872Y-98120000D01*
X85310128Y-98120000D01*
X85741925Y-98034110D01*
X86148669Y-97865631D01*
X86251716Y-97796777D01*
X89395690Y-97796777D01*
X89444096Y-98194704D01*
X89569205Y-98575540D01*
X89714230Y-98846865D01*
X90019553Y-98990842D01*
X91260395Y-97750000D01*
X91619605Y-97750000D01*
X92860447Y-98990842D01*
X93165770Y-98846865D01*
X93346597Y-98489108D01*
X93454155Y-98102947D01*
X93484310Y-97703223D01*
X93435904Y-97305296D01*
X93310795Y-96924460D01*
X93165770Y-96653135D01*
X92860447Y-96509158D01*
X91619605Y-97750000D01*
X91260395Y-97750000D01*
X90019553Y-96509158D01*
X89714230Y-96653135D01*
X89533403Y-97010892D01*
X89425845Y-97397053D01*
X89395690Y-97796777D01*
X86251716Y-97796777D01*
X86514729Y-97621038D01*
X86826038Y-97309729D01*
X87070631Y-96943669D01*
X87239110Y-96536925D01*
X87280358Y-96329553D01*
X90199158Y-96329553D01*
X91440000Y-97570395D01*
X92680842Y-96329553D01*
X92536865Y-96024230D01*
X92179108Y-95843403D01*
X91792947Y-95735845D01*
X91393223Y-95705690D01*
X90995296Y-95754096D01*
X90614460Y-95879205D01*
X90343135Y-96024230D01*
X90199158Y-96329553D01*
X87280358Y-96329553D01*
X87325000Y-96105128D01*
X87325000Y-95664872D01*
X87239110Y-95233075D01*
X87070631Y-94826331D01*
X86826038Y-94460271D01*
X86536214Y-94170447D01*
X90199158Y-94170447D01*
X90343135Y-94475770D01*
X90700892Y-94656597D01*
X91087053Y-94764155D01*
X91486777Y-94794310D01*
X91884704Y-94745904D01*
X92265540Y-94620795D01*
X92536865Y-94475770D01*
X92680842Y-94170447D01*
X91440000Y-92929605D01*
X90199158Y-94170447D01*
X86536214Y-94170447D01*
X86514729Y-94148962D01*
X86148669Y-93904369D01*
X85741925Y-93735890D01*
X85310128Y-93650000D01*
X84869872Y-93650000D01*
X84438075Y-93735890D01*
X84031331Y-93904369D01*
X83665271Y-94148962D01*
X83353962Y-94460271D01*
X83109369Y-94826331D01*
X82940890Y-95233075D01*
X82855000Y-95664872D01*
X81305000Y-95664872D01*
X81305000Y-92796777D01*
X89395690Y-92796777D01*
X89444096Y-93194704D01*
X89569205Y-93575540D01*
X89714230Y-93846865D01*
X90019553Y-93990842D01*
X91260395Y-92750000D01*
X91619605Y-92750000D01*
X92860447Y-93990842D01*
X93165770Y-93846865D01*
X93346597Y-93489108D01*
X93454155Y-93102947D01*
X93484310Y-92703223D01*
X93435904Y-92305296D01*
X93310795Y-91924460D01*
X93165770Y-91653135D01*
X92860447Y-91509158D01*
X91619605Y-92750000D01*
X91260395Y-92750000D01*
X90019553Y-91509158D01*
X89714230Y-91653135D01*
X89533403Y-92010892D01*
X89425845Y-92397053D01*
X89395690Y-92796777D01*
X81305000Y-92796777D01*
X81305000Y-91329553D01*
X90199158Y-91329553D01*
X91440000Y-92570395D01*
X92680842Y-91329553D01*
X92536865Y-91024230D01*
X92179108Y-90843403D01*
X91792947Y-90735845D01*
X91393223Y-90705690D01*
X90995296Y-90754096D01*
X90614460Y-90879205D01*
X90343135Y-91024230D01*
X90199158Y-91329553D01*
X81305000Y-91329553D01*
X81305000Y-90227852D01*
X97276753Y-90227852D01*
X97405076Y-90519871D01*
X97740695Y-90687723D01*
X98102611Y-90786874D01*
X98476916Y-90813514D01*
X98849227Y-90766618D01*
X99205235Y-90647988D01*
X99444924Y-90519871D01*
X99573247Y-90227852D01*
X98425000Y-89079605D01*
X97276753Y-90227852D01*
X81305000Y-90227852D01*
X81305000Y-88951916D01*
X96511486Y-88951916D01*
X96558382Y-89324227D01*
X96677012Y-89680235D01*
X96805129Y-89919924D01*
X97097148Y-90048247D01*
X98245395Y-88900000D01*
X98604605Y-88900000D01*
X99752852Y-90048247D01*
X100044871Y-89919924D01*
X100212723Y-89584305D01*
X100311874Y-89222389D01*
X100338514Y-88848084D01*
X100291618Y-88475773D01*
X100172988Y-88119765D01*
X100044871Y-87880076D01*
X99752852Y-87751753D01*
X98604605Y-88900000D01*
X98245395Y-88900000D01*
X97097148Y-87751753D01*
X96805129Y-87880076D01*
X96637277Y-88215695D01*
X96538126Y-88577611D01*
X96511486Y-88951916D01*
X81305000Y-88951916D01*
X81305000Y-86159570D01*
X83730000Y-86159570D01*
X83730000Y-86560430D01*
X83808204Y-86953587D01*
X83961607Y-87323934D01*
X84184313Y-87657237D01*
X84467763Y-87940687D01*
X84801066Y-88163393D01*
X85171413Y-88316796D01*
X85564570Y-88395000D01*
X85965430Y-88395000D01*
X86358587Y-88316796D01*
X86728934Y-88163393D01*
X87062237Y-87940687D01*
X87345687Y-87657237D01*
X87568393Y-87323934D01*
X87721796Y-86953587D01*
X87800000Y-86560430D01*
X87800000Y-86159570D01*
X88730000Y-86159570D01*
X88730000Y-86560430D01*
X88808204Y-86953587D01*
X88961607Y-87323934D01*
X89184313Y-87657237D01*
X89467763Y-87940687D01*
X89801066Y-88163393D01*
X90171413Y-88316796D01*
X90564570Y-88395000D01*
X90965430Y-88395000D01*
X91358587Y-88316796D01*
X91728934Y-88163393D01*
X92062237Y-87940687D01*
X92345687Y-87657237D01*
X92402541Y-87572148D01*
X97276753Y-87572148D01*
X98425000Y-88720395D01*
X99573247Y-87572148D01*
X99444924Y-87280129D01*
X99109305Y-87112277D01*
X98747389Y-87013126D01*
X98373084Y-86986486D01*
X98000773Y-87033382D01*
X97644765Y-87152012D01*
X97405076Y-87280129D01*
X97276753Y-87572148D01*
X92402541Y-87572148D01*
X92568393Y-87323934D01*
X92721796Y-86953587D01*
X92800000Y-86560430D01*
X92800000Y-86159570D01*
X92721796Y-85766413D01*
X92568393Y-85396066D01*
X92345687Y-85062763D01*
X92062237Y-84779313D01*
X91728934Y-84556607D01*
X91358587Y-84403204D01*
X90965430Y-84325000D01*
X90564570Y-84325000D01*
X90171413Y-84403204D01*
X89801066Y-84556607D01*
X89467763Y-84779313D01*
X89184313Y-85062763D01*
X88961607Y-85396066D01*
X88808204Y-85766413D01*
X88730000Y-86159570D01*
X87800000Y-86159570D01*
X87721796Y-85766413D01*
X87568393Y-85396066D01*
X87345687Y-85062763D01*
X87062237Y-84779313D01*
X86728934Y-84556607D01*
X86358587Y-84403204D01*
X85965430Y-84325000D01*
X85564570Y-84325000D01*
X85171413Y-84403204D01*
X84801066Y-84556607D01*
X84467763Y-84779313D01*
X84184313Y-85062763D01*
X83961607Y-85396066D01*
X83808204Y-85766413D01*
X83730000Y-86159570D01*
X81305000Y-86159570D01*
X81305000Y-79769570D01*
X83055000Y-79769570D01*
X83055000Y-80170430D01*
X83133204Y-80563587D01*
X83286607Y-80933934D01*
X83509313Y-81267237D01*
X83792763Y-81550687D01*
X84126066Y-81773393D01*
X84496413Y-81926796D01*
X84889570Y-82005000D01*
X85290430Y-82005000D01*
X85683587Y-81926796D01*
X86053934Y-81773393D01*
X86387237Y-81550687D01*
X86547477Y-81390447D01*
X90199158Y-81390447D01*
X90343135Y-81695770D01*
X90700892Y-81876597D01*
X91087053Y-81984155D01*
X91486777Y-82014310D01*
X91884704Y-81965904D01*
X92265540Y-81840795D01*
X92536865Y-81695770D01*
X92680842Y-81390447D01*
X91440000Y-80149605D01*
X90199158Y-81390447D01*
X86547477Y-81390447D01*
X86670687Y-81267237D01*
X86893393Y-80933934D01*
X87046796Y-80563587D01*
X87125000Y-80170430D01*
X87125000Y-80016777D01*
X89395690Y-80016777D01*
X89444096Y-80414704D01*
X89569205Y-80795540D01*
X89714230Y-81066865D01*
X90019553Y-81210842D01*
X91260395Y-79970000D01*
X91619605Y-79970000D01*
X92860447Y-81210842D01*
X93165770Y-81066865D01*
X93346597Y-80709108D01*
X93454155Y-80322947D01*
X93484310Y-79923223D01*
X93475278Y-79848967D01*
X96790000Y-79848967D01*
X96790000Y-80171033D01*
X96852832Y-80486912D01*
X96976082Y-80784463D01*
X97040000Y-80880123D01*
X97040001Y-84386961D01*
X97033300Y-84455000D01*
X97060040Y-84726507D01*
X97139236Y-84987580D01*
X97267844Y-85228188D01*
X97397548Y-85386233D01*
X97397551Y-85386236D01*
X97440920Y-85439081D01*
X97493764Y-85482449D01*
X98422550Y-86411236D01*
X98465919Y-86464081D01*
X98518764Y-86507450D01*
X98518766Y-86507452D01*
X98544976Y-86528962D01*
X98676812Y-86637157D01*
X98917419Y-86765764D01*
X99178492Y-86844960D01*
X99201892Y-86847265D01*
X99381963Y-86865000D01*
X99381971Y-86865000D01*
X99450000Y-86871700D01*
X99518029Y-86865000D01*
X100475000Y-86865000D01*
X100475001Y-92901961D01*
X100468300Y-92970000D01*
X100495040Y-93241507D01*
X100574236Y-93502580D01*
X100702844Y-93743188D01*
X100832548Y-93901233D01*
X100832551Y-93901236D01*
X100875920Y-93954081D01*
X100928764Y-93997449D01*
X103707550Y-96776236D01*
X103750919Y-96829081D01*
X103803764Y-96872450D01*
X103803766Y-96872452D01*
X103819384Y-96885269D01*
X103961812Y-97002157D01*
X104152695Y-97104186D01*
X104202419Y-97130764D01*
X104463492Y-97209960D01*
X104486892Y-97212265D01*
X104666963Y-97230000D01*
X104666971Y-97230000D01*
X104735000Y-97236700D01*
X104803029Y-97230000D01*
X106497076Y-97230000D01*
X106692763Y-97425687D01*
X107026066Y-97648393D01*
X107396413Y-97801796D01*
X107789570Y-97880000D01*
X108190430Y-97880000D01*
X108583587Y-97801796D01*
X108953934Y-97648393D01*
X109287237Y-97425687D01*
X109570687Y-97142237D01*
X109793393Y-96808934D01*
X109946796Y-96438587D01*
X110025000Y-96045430D01*
X110025000Y-95644570D01*
X110955000Y-95644570D01*
X110955000Y-96045430D01*
X111033204Y-96438587D01*
X111186607Y-96808934D01*
X111409313Y-97142237D01*
X111692763Y-97425687D01*
X112026066Y-97648393D01*
X112396413Y-97801796D01*
X112789570Y-97880000D01*
X113190430Y-97880000D01*
X113583587Y-97801796D01*
X113953934Y-97648393D01*
X114287237Y-97425687D01*
X114570687Y-97142237D01*
X114793393Y-96808934D01*
X114946796Y-96438587D01*
X115025000Y-96045430D01*
X115025000Y-95664872D01*
X119685000Y-95664872D01*
X119685000Y-96105128D01*
X119770890Y-96536925D01*
X119939369Y-96943669D01*
X120183962Y-97309729D01*
X120495271Y-97621038D01*
X120861331Y-97865631D01*
X121268075Y-98034110D01*
X121699872Y-98120000D01*
X122140128Y-98120000D01*
X122571925Y-98034110D01*
X122978669Y-97865631D01*
X123344729Y-97621038D01*
X123656038Y-97309729D01*
X123900631Y-96943669D01*
X124069110Y-96536925D01*
X124155000Y-96105128D01*
X124155000Y-95664872D01*
X124069110Y-95233075D01*
X123900631Y-94826331D01*
X123656038Y-94460271D01*
X123344729Y-94148962D01*
X122978669Y-93904369D01*
X122571925Y-93735890D01*
X122140128Y-93650000D01*
X121699872Y-93650000D01*
X121268075Y-93735890D01*
X120861331Y-93904369D01*
X120495271Y-94148962D01*
X120183962Y-94460271D01*
X119939369Y-94826331D01*
X119770890Y-95233075D01*
X119685000Y-95664872D01*
X115025000Y-95664872D01*
X115025000Y-95644570D01*
X114946796Y-95251413D01*
X114793393Y-94881066D01*
X114570687Y-94547763D01*
X114287237Y-94264313D01*
X113953934Y-94041607D01*
X113583587Y-93888204D01*
X113190430Y-93810000D01*
X112789570Y-93810000D01*
X112396413Y-93888204D01*
X112026066Y-94041607D01*
X111692763Y-94264313D01*
X111409313Y-94547763D01*
X111186607Y-94881066D01*
X111033204Y-95251413D01*
X110955000Y-95644570D01*
X110025000Y-95644570D01*
X109946796Y-95251413D01*
X109793393Y-94881066D01*
X109570687Y-94547763D01*
X109287237Y-94264313D01*
X108953934Y-94041607D01*
X108583587Y-93888204D01*
X108190430Y-93810000D01*
X107789570Y-93810000D01*
X107396413Y-93888204D01*
X107026066Y-94041607D01*
X106692763Y-94264313D01*
X106497076Y-94460000D01*
X105308686Y-94460000D01*
X103245000Y-92396315D01*
X103245000Y-85548037D01*
X103251701Y-85480000D01*
X103224960Y-85208493D01*
X103212212Y-85166470D01*
X103365537Y-85268918D01*
X103663088Y-85392168D01*
X103978967Y-85455000D01*
X104301033Y-85455000D01*
X104616912Y-85392168D01*
X104914463Y-85268918D01*
X105181928Y-85090203D01*
X105181928Y-86580000D01*
X105194188Y-86704482D01*
X105230498Y-86824180D01*
X105289463Y-86934494D01*
X105368815Y-87031185D01*
X105465506Y-87110537D01*
X105575820Y-87169502D01*
X105660000Y-87195038D01*
X105660000Y-87967677D01*
X105656324Y-88005000D01*
X105660000Y-88042322D01*
X105660000Y-88042332D01*
X105670997Y-88153985D01*
X105714454Y-88297246D01*
X105785026Y-88429276D01*
X105823145Y-88475723D01*
X105879999Y-88545001D01*
X105909002Y-88568803D01*
X106280000Y-88939801D01*
X106280000Y-89001939D01*
X106319774Y-89201898D01*
X106397795Y-89390256D01*
X106511063Y-89559774D01*
X106655226Y-89703937D01*
X106824744Y-89817205D01*
X107013102Y-89895226D01*
X107213061Y-89935000D01*
X107416939Y-89935000D01*
X107616898Y-89895226D01*
X107805256Y-89817205D01*
X107974774Y-89703937D01*
X108118937Y-89559774D01*
X108232205Y-89390256D01*
X108310226Y-89201898D01*
X108350000Y-89001939D01*
X108350000Y-88798061D01*
X108310226Y-88598102D01*
X108232205Y-88409744D01*
X108118937Y-88240226D01*
X107974774Y-88096063D01*
X107898162Y-88044872D01*
X131750000Y-88044872D01*
X131750000Y-88485128D01*
X131835890Y-88916925D01*
X132004369Y-89323669D01*
X132248962Y-89689729D01*
X132560271Y-90001038D01*
X132926331Y-90245631D01*
X133333075Y-90414110D01*
X133764872Y-90500000D01*
X134205128Y-90500000D01*
X134636925Y-90414110D01*
X135043669Y-90245631D01*
X135070277Y-90227852D01*
X137916753Y-90227852D01*
X138045076Y-90519871D01*
X138380695Y-90687723D01*
X138742611Y-90786874D01*
X139116916Y-90813514D01*
X139489227Y-90766618D01*
X139845235Y-90647988D01*
X140084924Y-90519871D01*
X140213247Y-90227852D01*
X139065000Y-89079605D01*
X137916753Y-90227852D01*
X135070277Y-90227852D01*
X135409729Y-90001038D01*
X135721038Y-89689729D01*
X135965631Y-89323669D01*
X136119616Y-88951916D01*
X137151486Y-88951916D01*
X137198382Y-89324227D01*
X137317012Y-89680235D01*
X137445129Y-89919924D01*
X137737148Y-90048247D01*
X138885395Y-88900000D01*
X137737148Y-87751753D01*
X137445129Y-87880076D01*
X137277277Y-88215695D01*
X137178126Y-88577611D01*
X137151486Y-88951916D01*
X136119616Y-88951916D01*
X136134110Y-88916925D01*
X136220000Y-88485128D01*
X136220000Y-88044872D01*
X136134110Y-87613075D01*
X136117158Y-87572148D01*
X137916753Y-87572148D01*
X139065000Y-88720395D01*
X140213247Y-87572148D01*
X140084924Y-87280129D01*
X139749305Y-87112277D01*
X139387389Y-87013126D01*
X139013084Y-86986486D01*
X138640773Y-87033382D01*
X138284765Y-87152012D01*
X138045076Y-87280129D01*
X137916753Y-87572148D01*
X136117158Y-87572148D01*
X135965631Y-87206331D01*
X135721038Y-86840271D01*
X135409729Y-86528962D01*
X135043669Y-86284369D01*
X134636925Y-86115890D01*
X134205128Y-86030000D01*
X133764872Y-86030000D01*
X133333075Y-86115890D01*
X132926331Y-86284369D01*
X132560271Y-86528962D01*
X132248962Y-86840271D01*
X132004369Y-87206331D01*
X131835890Y-87613075D01*
X131750000Y-88044872D01*
X107898162Y-88044872D01*
X107805256Y-87982795D01*
X107616898Y-87904774D01*
X107416939Y-87865000D01*
X107354801Y-87865000D01*
X107180000Y-87690199D01*
X107180000Y-87195038D01*
X107264180Y-87169502D01*
X107374494Y-87110537D01*
X107471185Y-87031185D01*
X107550537Y-86934494D01*
X107609502Y-86824180D01*
X107645812Y-86704482D01*
X107658072Y-86580000D01*
X107658072Y-84380000D01*
X107645812Y-84255518D01*
X107609502Y-84135820D01*
X107550537Y-84025506D01*
X107471185Y-83928815D01*
X107374494Y-83849463D01*
X107264180Y-83790498D01*
X107144482Y-83754188D01*
X107020000Y-83741928D01*
X105820000Y-83741928D01*
X105775000Y-83746360D01*
X105775000Y-83658967D01*
X105712168Y-83343088D01*
X105588918Y-83045537D01*
X105570566Y-83018072D01*
X107040000Y-83018072D01*
X107164482Y-83005812D01*
X107284180Y-82969502D01*
X107394494Y-82910537D01*
X107491185Y-82831185D01*
X107570537Y-82734494D01*
X107629502Y-82624180D01*
X107665812Y-82504482D01*
X107678072Y-82380000D01*
X107678072Y-75980000D01*
X107665812Y-75855518D01*
X107629502Y-75735820D01*
X107570537Y-75625506D01*
X107491185Y-75528815D01*
X107394494Y-75449463D01*
X107284180Y-75390498D01*
X107164482Y-75354188D01*
X107040000Y-75341928D01*
X101240000Y-75341928D01*
X101115518Y-75354188D01*
X100995820Y-75390498D01*
X100885506Y-75449463D01*
X100788815Y-75528815D01*
X100709463Y-75625506D01*
X100650498Y-75735820D01*
X100614188Y-75855518D01*
X100601928Y-75980000D01*
X100601928Y-82380000D01*
X100614188Y-82504482D01*
X100650498Y-82624180D01*
X100709463Y-82734494D01*
X100788815Y-82831185D01*
X100885506Y-82910537D01*
X100995820Y-82969502D01*
X101115518Y-83005812D01*
X101240000Y-83018072D01*
X102709434Y-83018072D01*
X102691082Y-83045537D01*
X102567832Y-83343088D01*
X102505000Y-83658967D01*
X102505000Y-83746360D01*
X102460000Y-83741928D01*
X101260000Y-83741928D01*
X101135518Y-83754188D01*
X101015820Y-83790498D01*
X100905506Y-83849463D01*
X100808815Y-83928815D01*
X100729463Y-84025506D01*
X100692317Y-84095000D01*
X100023686Y-84095000D01*
X99810000Y-83881315D01*
X99810000Y-80880123D01*
X99873918Y-80784463D01*
X99997168Y-80486912D01*
X100060000Y-80171033D01*
X100060000Y-79848967D01*
X99997168Y-79533088D01*
X99873918Y-79235537D01*
X99694987Y-78967748D01*
X99467252Y-78740013D01*
X99199463Y-78561082D01*
X98901912Y-78437832D01*
X98586033Y-78375000D01*
X98263967Y-78375000D01*
X97948088Y-78437832D01*
X97650537Y-78561082D01*
X97382748Y-78740013D01*
X97155013Y-78967748D01*
X96976082Y-79235537D01*
X96852832Y-79533088D01*
X96790000Y-79848967D01*
X93475278Y-79848967D01*
X93435904Y-79525296D01*
X93310795Y-79144460D01*
X93165770Y-78873135D01*
X92860447Y-78729158D01*
X91619605Y-79970000D01*
X91260395Y-79970000D01*
X90019553Y-78729158D01*
X89714230Y-78873135D01*
X89533403Y-79230892D01*
X89425845Y-79617053D01*
X89395690Y-80016777D01*
X87125000Y-80016777D01*
X87125000Y-79769570D01*
X87046796Y-79376413D01*
X86893393Y-79006066D01*
X86670687Y-78672763D01*
X86547477Y-78549553D01*
X90199158Y-78549553D01*
X91440000Y-79790395D01*
X92680842Y-78549553D01*
X92536865Y-78244230D01*
X92179108Y-78063403D01*
X91792947Y-77955845D01*
X91393223Y-77925690D01*
X90995296Y-77974096D01*
X90614460Y-78099205D01*
X90343135Y-78244230D01*
X90199158Y-78549553D01*
X86547477Y-78549553D01*
X86387237Y-78389313D01*
X86053934Y-78166607D01*
X85683587Y-78013204D01*
X85290430Y-77935000D01*
X84889570Y-77935000D01*
X84496413Y-78013204D01*
X84126066Y-78166607D01*
X83792763Y-78389313D01*
X83509313Y-78672763D01*
X83286607Y-79006066D01*
X83133204Y-79376413D01*
X83055000Y-79769570D01*
X81305000Y-79769570D01*
X81305000Y-74769570D01*
X83055000Y-74769570D01*
X83055000Y-75170430D01*
X83133204Y-75563587D01*
X83286607Y-75933934D01*
X83509313Y-76267237D01*
X83792763Y-76550687D01*
X84126066Y-76773393D01*
X84496413Y-76926796D01*
X84889570Y-77005000D01*
X85290430Y-77005000D01*
X85683587Y-76926796D01*
X86053934Y-76773393D01*
X86387237Y-76550687D01*
X86547477Y-76390447D01*
X90199158Y-76390447D01*
X90343135Y-76695770D01*
X90700892Y-76876597D01*
X91087053Y-76984155D01*
X91486777Y-77014310D01*
X91884704Y-76965904D01*
X92265540Y-76840795D01*
X92536865Y-76695770D01*
X92680842Y-76390447D01*
X91440000Y-75149605D01*
X90199158Y-76390447D01*
X86547477Y-76390447D01*
X86670687Y-76267237D01*
X86893393Y-75933934D01*
X87046796Y-75563587D01*
X87125000Y-75170430D01*
X87125000Y-75016777D01*
X89395690Y-75016777D01*
X89444096Y-75414704D01*
X89569205Y-75795540D01*
X89714230Y-76066865D01*
X90019553Y-76210842D01*
X91260395Y-74970000D01*
X91619605Y-74970000D01*
X92860447Y-76210842D01*
X93165770Y-76066865D01*
X93346597Y-75709108D01*
X93454155Y-75322947D01*
X93484310Y-74923223D01*
X93435904Y-74525296D01*
X93326761Y-74193061D01*
X109455000Y-74193061D01*
X109455000Y-74396939D01*
X109494774Y-74596898D01*
X109572795Y-74785256D01*
X109686063Y-74954774D01*
X109730000Y-74998711D01*
X109730000Y-75503222D01*
X109698815Y-75528815D01*
X109619463Y-75625506D01*
X109560498Y-75735820D01*
X109524188Y-75855518D01*
X109511928Y-75980000D01*
X109511928Y-78180000D01*
X109524188Y-78304482D01*
X109560498Y-78424180D01*
X109619463Y-78534494D01*
X109698815Y-78631185D01*
X109795506Y-78710537D01*
X109905820Y-78769502D01*
X110025518Y-78805812D01*
X110150000Y-78818072D01*
X111350000Y-78818072D01*
X111395000Y-78813640D01*
X111395000Y-78901033D01*
X111457832Y-79216912D01*
X111581082Y-79514463D01*
X111599434Y-79541928D01*
X110130000Y-79541928D01*
X110005518Y-79554188D01*
X109885820Y-79590498D01*
X109775506Y-79649463D01*
X109678815Y-79728815D01*
X109599463Y-79825506D01*
X109540498Y-79935820D01*
X109504188Y-80055518D01*
X109491928Y-80180000D01*
X109491928Y-86580000D01*
X109504188Y-86704482D01*
X109540498Y-86824180D01*
X109599463Y-86934494D01*
X109678815Y-87031185D01*
X109775506Y-87110537D01*
X109885820Y-87169502D01*
X110005518Y-87205812D01*
X110130000Y-87218072D01*
X115930000Y-87218072D01*
X116054482Y-87205812D01*
X116174180Y-87169502D01*
X116284494Y-87110537D01*
X116381185Y-87031185D01*
X116460537Y-86934494D01*
X116519502Y-86824180D01*
X116555812Y-86704482D01*
X116568072Y-86580000D01*
X116568072Y-83358511D01*
X116730744Y-83467205D01*
X116919102Y-83545226D01*
X117119061Y-83585000D01*
X117322939Y-83585000D01*
X117522898Y-83545226D01*
X117711256Y-83467205D01*
X117880774Y-83353937D01*
X117924711Y-83310000D01*
X118326678Y-83310000D01*
X118364000Y-83313676D01*
X118401322Y-83310000D01*
X118401333Y-83310000D01*
X118512986Y-83299003D01*
X118656247Y-83255546D01*
X118788276Y-83184974D01*
X118904001Y-83090001D01*
X118927804Y-83060997D01*
X120054802Y-81934000D01*
X120116939Y-81934000D01*
X120316898Y-81894226D01*
X120505256Y-81816205D01*
X120674774Y-81702937D01*
X120818937Y-81558774D01*
X120932205Y-81389256D01*
X121010226Y-81200898D01*
X121050000Y-81000939D01*
X121050000Y-80797061D01*
X121010226Y-80597102D01*
X120932205Y-80408744D01*
X120818937Y-80239226D01*
X120674774Y-80095063D01*
X120505256Y-79981795D01*
X120316898Y-79903774D01*
X120116939Y-79864000D01*
X119913061Y-79864000D01*
X119713102Y-79903774D01*
X119524744Y-79981795D01*
X119355226Y-80095063D01*
X119211063Y-80239226D01*
X119097795Y-80408744D01*
X119019774Y-80597102D01*
X118980000Y-80797061D01*
X118980000Y-80859198D01*
X118049199Y-81790000D01*
X117924711Y-81790000D01*
X117880774Y-81746063D01*
X117711256Y-81632795D01*
X117522898Y-81554774D01*
X117322939Y-81515000D01*
X117119061Y-81515000D01*
X116919102Y-81554774D01*
X116730744Y-81632795D01*
X116568072Y-81741489D01*
X116568072Y-80180000D01*
X116555812Y-80055518D01*
X116519502Y-79935820D01*
X116460537Y-79825506D01*
X116381185Y-79728815D01*
X116284494Y-79649463D01*
X116174180Y-79590498D01*
X116054482Y-79554188D01*
X115930000Y-79541928D01*
X114460566Y-79541928D01*
X114478918Y-79514463D01*
X114602168Y-79216912D01*
X114665000Y-78901033D01*
X114665000Y-78813640D01*
X114710000Y-78818072D01*
X115910000Y-78818072D01*
X116034482Y-78805812D01*
X116154180Y-78769502D01*
X116264494Y-78710537D01*
X116361185Y-78631185D01*
X116440537Y-78534494D01*
X116499502Y-78424180D01*
X116535812Y-78304482D01*
X116548072Y-78180000D01*
X116548072Y-77701807D01*
X116595764Y-77612581D01*
X116674960Y-77351507D01*
X116695000Y-77148037D01*
X116695000Y-75985000D01*
X125511928Y-75985000D01*
X125511928Y-77685000D01*
X125524188Y-77809482D01*
X125560498Y-77929180D01*
X125619463Y-78039494D01*
X125698815Y-78136185D01*
X125795506Y-78215537D01*
X125905820Y-78274502D01*
X125978380Y-78296513D01*
X125846525Y-78428368D01*
X125684010Y-78671589D01*
X125572068Y-78941842D01*
X125515000Y-79228740D01*
X125515000Y-79521260D01*
X125572068Y-79808158D01*
X125684010Y-80078411D01*
X125846525Y-80321632D01*
X126053368Y-80528475D01*
X126227760Y-80645000D01*
X126053368Y-80761525D01*
X125846525Y-80968368D01*
X125684010Y-81211589D01*
X125572068Y-81481842D01*
X125515000Y-81768740D01*
X125515000Y-82061260D01*
X125572068Y-82348158D01*
X125684010Y-82618411D01*
X125846525Y-82861632D01*
X126053368Y-83068475D01*
X126296589Y-83230990D01*
X126566842Y-83342932D01*
X126853740Y-83400000D01*
X127146260Y-83400000D01*
X127433158Y-83342932D01*
X127703411Y-83230990D01*
X127946632Y-83068475D01*
X128153475Y-82861632D01*
X128271100Y-82685594D01*
X128442412Y-82915269D01*
X128658645Y-83110178D01*
X128908748Y-83259157D01*
X129183109Y-83356481D01*
X129413000Y-83235814D01*
X129413000Y-82042000D01*
X129667000Y-82042000D01*
X129667000Y-83235814D01*
X129896891Y-83356481D01*
X130171252Y-83259157D01*
X130421355Y-83110178D01*
X130637588Y-82915269D01*
X130811641Y-82681920D01*
X130936825Y-82419099D01*
X130981476Y-82271890D01*
X130860155Y-82042000D01*
X129667000Y-82042000D01*
X129413000Y-82042000D01*
X129393000Y-82042000D01*
X129393000Y-81788000D01*
X129413000Y-81788000D01*
X129413000Y-79502000D01*
X129667000Y-79502000D01*
X129667000Y-81788000D01*
X130860155Y-81788000D01*
X130981476Y-81558110D01*
X130936825Y-81410901D01*
X130811641Y-81148080D01*
X130637588Y-80914731D01*
X130421355Y-80719822D01*
X130295745Y-80645000D01*
X130421355Y-80570178D01*
X130637588Y-80375269D01*
X130811641Y-80141920D01*
X130936825Y-79879099D01*
X130981476Y-79731890D01*
X130860155Y-79502000D01*
X129667000Y-79502000D01*
X129413000Y-79502000D01*
X129393000Y-79502000D01*
X129393000Y-79248000D01*
X129413000Y-79248000D01*
X129413000Y-76962000D01*
X129667000Y-76962000D01*
X129667000Y-79248000D01*
X130860155Y-79248000D01*
X130981476Y-79018110D01*
X130936825Y-78870901D01*
X130811641Y-78608080D01*
X130637588Y-78374731D01*
X130421355Y-78179822D01*
X130295745Y-78105000D01*
X130421355Y-78030178D01*
X130637588Y-77835269D01*
X130811641Y-77601920D01*
X130936825Y-77339099D01*
X130981476Y-77191890D01*
X130860155Y-76962000D01*
X129667000Y-76962000D01*
X129413000Y-76962000D01*
X129393000Y-76962000D01*
X129393000Y-76708000D01*
X129413000Y-76708000D01*
X129413000Y-75514186D01*
X129667000Y-75514186D01*
X129667000Y-76708000D01*
X130860155Y-76708000D01*
X130981476Y-76478110D01*
X130936825Y-76330901D01*
X130811641Y-76068080D01*
X130637588Y-75834731D01*
X130421355Y-75639822D01*
X130171252Y-75490843D01*
X129896891Y-75393519D01*
X129667000Y-75514186D01*
X129413000Y-75514186D01*
X129183109Y-75393519D01*
X128908748Y-75490843D01*
X128658645Y-75639822D01*
X128462498Y-75816626D01*
X128439502Y-75740820D01*
X128380537Y-75630506D01*
X128301185Y-75533815D01*
X128204494Y-75454463D01*
X128094180Y-75395498D01*
X127974482Y-75359188D01*
X127850000Y-75346928D01*
X126150000Y-75346928D01*
X126025518Y-75359188D01*
X125905820Y-75395498D01*
X125795506Y-75454463D01*
X125698815Y-75533815D01*
X125619463Y-75630506D01*
X125560498Y-75740820D01*
X125524188Y-75860518D01*
X125511928Y-75985000D01*
X116695000Y-75985000D01*
X116695000Y-74886747D01*
X116979463Y-74768918D01*
X117247252Y-74589987D01*
X117474987Y-74362252D01*
X117612759Y-74156061D01*
X121012000Y-74156061D01*
X121012000Y-74359939D01*
X121051774Y-74559898D01*
X121129795Y-74748256D01*
X121243063Y-74917774D01*
X121387226Y-75061937D01*
X121556744Y-75175205D01*
X121745102Y-75253226D01*
X121945061Y-75293000D01*
X122148939Y-75293000D01*
X122348898Y-75253226D01*
X122537256Y-75175205D01*
X122706774Y-75061937D01*
X122750711Y-75018000D01*
X126386289Y-75018000D01*
X126467226Y-75098937D01*
X126636744Y-75212205D01*
X126825102Y-75290226D01*
X127025061Y-75330000D01*
X127228939Y-75330000D01*
X127428898Y-75290226D01*
X127617256Y-75212205D01*
X127786774Y-75098937D01*
X127930937Y-74954774D01*
X128044205Y-74785256D01*
X128122226Y-74596898D01*
X128162000Y-74396939D01*
X128162000Y-74193061D01*
X128122226Y-73993102D01*
X128044205Y-73804744D01*
X127930937Y-73635226D01*
X127786774Y-73491063D01*
X127617256Y-73377795D01*
X127428898Y-73299774D01*
X127228939Y-73260000D01*
X127025061Y-73260000D01*
X126825102Y-73299774D01*
X126636744Y-73377795D01*
X126467226Y-73491063D01*
X126460289Y-73498000D01*
X122750711Y-73498000D01*
X122706774Y-73454063D01*
X122537256Y-73340795D01*
X122348898Y-73262774D01*
X122148939Y-73223000D01*
X121945061Y-73223000D01*
X121745102Y-73262774D01*
X121556744Y-73340795D01*
X121387226Y-73454063D01*
X121243063Y-73598226D01*
X121129795Y-73767744D01*
X121051774Y-73956102D01*
X121012000Y-74156061D01*
X117612759Y-74156061D01*
X117653918Y-74094463D01*
X117777168Y-73796912D01*
X117840000Y-73481033D01*
X117840000Y-73158967D01*
X117777168Y-72843088D01*
X117653918Y-72545537D01*
X117474987Y-72277748D01*
X117247252Y-72050013D01*
X116979463Y-71871082D01*
X116681912Y-71747832D01*
X116366033Y-71685000D01*
X116043967Y-71685000D01*
X115728088Y-71747832D01*
X115430537Y-71871082D01*
X115162748Y-72050013D01*
X114935013Y-72277748D01*
X114756082Y-72545537D01*
X114632832Y-72843088D01*
X114610387Y-72955928D01*
X114378765Y-73187550D01*
X114325920Y-73230919D01*
X114282551Y-73283764D01*
X114282548Y-73283767D01*
X114152844Y-73441812D01*
X114024236Y-73682420D01*
X113945040Y-73943493D01*
X113918300Y-74215000D01*
X113925001Y-74283039D01*
X113925000Y-77148036D01*
X113945040Y-77351506D01*
X113957788Y-77393531D01*
X113804463Y-77291082D01*
X113506912Y-77167832D01*
X113191033Y-77105000D01*
X112868967Y-77105000D01*
X112553088Y-77167832D01*
X112255537Y-77291082D01*
X111988072Y-77469797D01*
X111988072Y-75980000D01*
X111975812Y-75855518D01*
X111939502Y-75735820D01*
X111880537Y-75625506D01*
X111801185Y-75528815D01*
X111704494Y-75449463D01*
X111594180Y-75390498D01*
X111474482Y-75354188D01*
X111350000Y-75341928D01*
X111250000Y-75341928D01*
X111250000Y-74998711D01*
X111293937Y-74954774D01*
X111407205Y-74785256D01*
X111485226Y-74596898D01*
X111525000Y-74396939D01*
X111525000Y-74193061D01*
X111485226Y-73993102D01*
X111407205Y-73804744D01*
X111293937Y-73635226D01*
X111149774Y-73491063D01*
X110980256Y-73377795D01*
X110791898Y-73299774D01*
X110591939Y-73260000D01*
X110388061Y-73260000D01*
X110188102Y-73299774D01*
X109999744Y-73377795D01*
X109830226Y-73491063D01*
X109686063Y-73635226D01*
X109572795Y-73804744D01*
X109494774Y-73993102D01*
X109455000Y-74193061D01*
X93326761Y-74193061D01*
X93310795Y-74144460D01*
X93165770Y-73873135D01*
X92860447Y-73729158D01*
X91619605Y-74970000D01*
X91260395Y-74970000D01*
X90019553Y-73729158D01*
X89714230Y-73873135D01*
X89533403Y-74230892D01*
X89425845Y-74617053D01*
X89395690Y-75016777D01*
X87125000Y-75016777D01*
X87125000Y-74769570D01*
X87046796Y-74376413D01*
X86893393Y-74006066D01*
X86670687Y-73672763D01*
X86547477Y-73549553D01*
X90199158Y-73549553D01*
X91440000Y-74790395D01*
X92680842Y-73549553D01*
X92536865Y-73244230D01*
X92179108Y-73063403D01*
X91792947Y-72955845D01*
X91393223Y-72925690D01*
X90995296Y-72974096D01*
X90614460Y-73099205D01*
X90343135Y-73244230D01*
X90199158Y-73549553D01*
X86547477Y-73549553D01*
X86387237Y-73389313D01*
X86053934Y-73166607D01*
X85683587Y-73013204D01*
X85290430Y-72935000D01*
X84889570Y-72935000D01*
X84496413Y-73013204D01*
X84126066Y-73166607D01*
X83792763Y-73389313D01*
X83509313Y-73672763D01*
X83286607Y-74006066D01*
X83133204Y-74376413D01*
X83055000Y-74769570D01*
X81305000Y-74769570D01*
X81305000Y-69850000D01*
X96516928Y-69850000D01*
X96516928Y-72390000D01*
X96529188Y-72514482D01*
X96565498Y-72634180D01*
X96624463Y-72744494D01*
X96703815Y-72841185D01*
X96800506Y-72920537D01*
X96910820Y-72979502D01*
X97030518Y-73015812D01*
X97155000Y-73028072D01*
X99695000Y-73028072D01*
X99819482Y-73015812D01*
X99939180Y-72979502D01*
X100049494Y-72920537D01*
X100146185Y-72841185D01*
X100225537Y-72744494D01*
X100284502Y-72634180D01*
X100320812Y-72514482D01*
X100333072Y-72390000D01*
X100333072Y-71534872D01*
X101270000Y-71534872D01*
X101270000Y-71975128D01*
X101355890Y-72406925D01*
X101524369Y-72813669D01*
X101768962Y-73179729D01*
X102080271Y-73491038D01*
X102446331Y-73735631D01*
X102853075Y-73904110D01*
X103284872Y-73990000D01*
X103725128Y-73990000D01*
X104156925Y-73904110D01*
X104563669Y-73735631D01*
X104929729Y-73491038D01*
X105241038Y-73179729D01*
X105485631Y-72813669D01*
X105654110Y-72406925D01*
X105740000Y-71975128D01*
X105740000Y-71534872D01*
X105654110Y-71103075D01*
X105485631Y-70696331D01*
X105241038Y-70330271D01*
X104929729Y-70018962D01*
X104563669Y-69774369D01*
X104156925Y-69605890D01*
X103725128Y-69520000D01*
X103284872Y-69520000D01*
X102853075Y-69605890D01*
X102446331Y-69774369D01*
X102080271Y-70018962D01*
X101768962Y-70330271D01*
X101524369Y-70696331D01*
X101355890Y-71103075D01*
X101270000Y-71534872D01*
X100333072Y-71534872D01*
X100333072Y-69850000D01*
X100320812Y-69725518D01*
X100284502Y-69605820D01*
X100225537Y-69495506D01*
X100146185Y-69398815D01*
X100049494Y-69319463D01*
X99939180Y-69260498D01*
X99819482Y-69224188D01*
X99695000Y-69211928D01*
X97155000Y-69211928D01*
X97030518Y-69224188D01*
X96910820Y-69260498D01*
X96800506Y-69319463D01*
X96703815Y-69398815D01*
X96624463Y-69495506D01*
X96565498Y-69605820D01*
X96529188Y-69725518D01*
X96516928Y-69850000D01*
X81305000Y-69850000D01*
X81305000Y-63914872D01*
X82855000Y-63914872D01*
X82855000Y-64355128D01*
X82940890Y-64786925D01*
X83109369Y-65193669D01*
X83353962Y-65559729D01*
X83665271Y-65871038D01*
X84031331Y-66115631D01*
X84438075Y-66284110D01*
X84869872Y-66370000D01*
X85310128Y-66370000D01*
X85741925Y-66284110D01*
X86148669Y-66115631D01*
X86514729Y-65871038D01*
X86826038Y-65559729D01*
X87070631Y-65193669D01*
X87239110Y-64786925D01*
X87325000Y-64355128D01*
X87325000Y-63914872D01*
X87239110Y-63483075D01*
X87070631Y-63076331D01*
X86826038Y-62710271D01*
X86514729Y-62398962D01*
X86148669Y-62154369D01*
X85741925Y-61985890D01*
X85310128Y-61900000D01*
X84869872Y-61900000D01*
X84438075Y-61985890D01*
X84031331Y-62154369D01*
X83665271Y-62398962D01*
X83353962Y-62710271D01*
X83109369Y-63076331D01*
X82940890Y-63483075D01*
X82855000Y-63914872D01*
X81305000Y-63914872D01*
X81305000Y-60440000D01*
X87870000Y-60440000D01*
X87870000Y-64260000D01*
X105955000Y-64260000D01*
X105955000Y-64335430D01*
X106033204Y-64728587D01*
X106186607Y-65098934D01*
X106409313Y-65432237D01*
X106692763Y-65715687D01*
X107026066Y-65938393D01*
X107396413Y-66091796D01*
X107789570Y-66170000D01*
X108190430Y-66170000D01*
X108583587Y-66091796D01*
X108953934Y-65938393D01*
X109287237Y-65715687D01*
X109570687Y-65432237D01*
X109793393Y-65098934D01*
X109946796Y-64728587D01*
X110025000Y-64335430D01*
X110025000Y-63934570D01*
X110955000Y-63934570D01*
X110955000Y-64335430D01*
X111033204Y-64728587D01*
X111186607Y-65098934D01*
X111409313Y-65432237D01*
X111692763Y-65715687D01*
X112026066Y-65938393D01*
X112396413Y-66091796D01*
X112789570Y-66170000D01*
X113190430Y-66170000D01*
X113583587Y-66091796D01*
X113953934Y-65938393D01*
X114287237Y-65715687D01*
X114570687Y-65432237D01*
X114793393Y-65098934D01*
X114946796Y-64728587D01*
X115025000Y-64335430D01*
X115025000Y-63934570D01*
X115021082Y-63914872D01*
X119685000Y-63914872D01*
X119685000Y-64355128D01*
X119770890Y-64786925D01*
X119939369Y-65193669D01*
X120183962Y-65559729D01*
X120495271Y-65871038D01*
X120861331Y-66115631D01*
X121268075Y-66284110D01*
X121699872Y-66370000D01*
X122140128Y-66370000D01*
X122571925Y-66284110D01*
X122978669Y-66115631D01*
X123344729Y-65871038D01*
X123656038Y-65559729D01*
X123900631Y-65193669D01*
X124069110Y-64786925D01*
X124155000Y-64355128D01*
X124155000Y-63914872D01*
X124069110Y-63483075D01*
X123900631Y-63076331D01*
X123656038Y-62710271D01*
X123344729Y-62398962D01*
X122978669Y-62154369D01*
X122571925Y-61985890D01*
X122140128Y-61900000D01*
X121699872Y-61900000D01*
X121268075Y-61985890D01*
X120861331Y-62154369D01*
X120495271Y-62398962D01*
X120183962Y-62710271D01*
X119939369Y-63076331D01*
X119770890Y-63483075D01*
X119685000Y-63914872D01*
X115021082Y-63914872D01*
X114946796Y-63541413D01*
X114793393Y-63171066D01*
X114570687Y-62837763D01*
X114287237Y-62554313D01*
X113953934Y-62331607D01*
X113583587Y-62178204D01*
X113190430Y-62100000D01*
X112789570Y-62100000D01*
X112396413Y-62178204D01*
X112026066Y-62331607D01*
X111692763Y-62554313D01*
X111409313Y-62837763D01*
X111186607Y-63171066D01*
X111033204Y-63541413D01*
X110955000Y-63934570D01*
X110025000Y-63934570D01*
X109946796Y-63541413D01*
X109793393Y-63171066D01*
X109570687Y-62837763D01*
X109287237Y-62554313D01*
X108953934Y-62331607D01*
X108583587Y-62178204D01*
X108190430Y-62100000D01*
X107789570Y-62100000D01*
X107396413Y-62178204D01*
X107026066Y-62331607D01*
X106692763Y-62554313D01*
X106440000Y-62807076D01*
X106440000Y-60440000D01*
X87870000Y-60440000D01*
X81305000Y-60440000D01*
X81305000Y-60350000D01*
X125652705Y-60350000D01*
X125619463Y-60390506D01*
G37*
G04 #@! TD.AperFunction*
M02*
