G04 #@! TF.GenerationSoftware,KiCad,Pcbnew,(5.1.8)-1*
G04 #@! TF.CreationDate,2022-10-22T17:33:47+02:00*
G04 #@! TF.ProjectId,RP_LM2596-KfzPowerSafeguard,52505f4c-4d32-4353-9936-2d4b667a506f,rev?*
G04 #@! TF.SameCoordinates,Original*
G04 #@! TF.FileFunction,Copper,L1,Top*
G04 #@! TF.FilePolarity,Positive*
%FSLAX46Y46*%
G04 Gerber Fmt 4.6, Leading zero omitted, Abs format (unit mm)*
G04 Created by KiCad (PCBNEW (5.1.8)-1) date 2022-10-22 17:33:47*
%MOMM*%
%LPD*%
G01*
G04 APERTURE LIST*
G04 #@! TA.AperFunction,ComponentPad*
%ADD10R,2.540000X2.540000*%
G04 #@! TD*
G04 #@! TA.AperFunction,ComponentPad*
%ADD11C,2.540000*%
G04 #@! TD*
G04 #@! TA.AperFunction,SMDPad,CuDef*
%ADD12R,2.300000X2.500000*%
G04 #@! TD*
G04 #@! TA.AperFunction,SMDPad,CuDef*
%ADD13R,1.500000X1.200000*%
G04 #@! TD*
G04 #@! TA.AperFunction,SMDPad,CuDef*
%ADD14R,3.800000X2.000000*%
G04 #@! TD*
G04 #@! TA.AperFunction,SMDPad,CuDef*
%ADD15R,1.500000X2.000000*%
G04 #@! TD*
G04 #@! TA.AperFunction,ComponentPad*
%ADD16C,2.800000*%
G04 #@! TD*
G04 #@! TA.AperFunction,ComponentPad*
%ADD17R,1.700000X1.700000*%
G04 #@! TD*
G04 #@! TA.AperFunction,ComponentPad*
%ADD18O,1.700000X1.700000*%
G04 #@! TD*
G04 #@! TA.AperFunction,ViaPad*
%ADD19C,2.000000*%
G04 #@! TD*
G04 #@! TA.AperFunction,ViaPad*
%ADD20C,0.800000*%
G04 #@! TD*
G04 #@! TA.AperFunction,Conductor*
%ADD21C,2.000000*%
G04 #@! TD*
G04 #@! TA.AperFunction,Conductor*
%ADD22C,0.250000*%
G04 #@! TD*
G04 #@! TA.AperFunction,Conductor*
%ADD23C,1.500000*%
G04 #@! TD*
G04 #@! TA.AperFunction,Conductor*
%ADD24C,0.254000*%
G04 #@! TD*
G04 #@! TA.AperFunction,Conductor*
%ADD25C,0.100000*%
G04 #@! TD*
G04 APERTURE END LIST*
D10*
X98425000Y-71120000D03*
D11*
X98425000Y-88900000D03*
X139065000Y-71120000D03*
X139065000Y-88900000D03*
D12*
X97790000Y-98035000D03*
X97790000Y-93735000D03*
X97790000Y-61985000D03*
X97790000Y-66285000D03*
D13*
X101600000Y-77785000D03*
X101600000Y-75885000D03*
X115570000Y-86675000D03*
X115570000Y-84775000D03*
G04 #@! TA.AperFunction,SMDPad,CuDef*
G36*
G01*
X104320001Y-66835000D02*
X101419999Y-66835000D01*
G75*
G02*
X101170000Y-66585001I0J249999D01*
G01*
X101170000Y-65959999D01*
G75*
G02*
X101419999Y-65710000I249999J0D01*
G01*
X104320001Y-65710000D01*
G75*
G02*
X104570000Y-65959999I0J-249999D01*
G01*
X104570000Y-66585001D01*
G75*
G02*
X104320001Y-66835000I-249999J0D01*
G01*
G37*
G04 #@! TD.AperFunction*
G04 #@! TA.AperFunction,SMDPad,CuDef*
G36*
G01*
X104320001Y-62560000D02*
X101419999Y-62560000D01*
G75*
G02*
X101170000Y-62310001I0J249999D01*
G01*
X101170000Y-61684999D01*
G75*
G02*
X101419999Y-61435000I249999J0D01*
G01*
X104320001Y-61435000D01*
G75*
G02*
X104570000Y-61684999I0J-249999D01*
G01*
X104570000Y-62310001D01*
G75*
G02*
X104320001Y-62560000I-249999J0D01*
G01*
G37*
G04 #@! TD.AperFunction*
G04 #@! TA.AperFunction,SMDPad,CuDef*
G36*
G01*
X101419999Y-97460000D02*
X104320001Y-97460000D01*
G75*
G02*
X104570000Y-97709999I0J-249999D01*
G01*
X104570000Y-98335001D01*
G75*
G02*
X104320001Y-98585000I-249999J0D01*
G01*
X101419999Y-98585000D01*
G75*
G02*
X101170000Y-98335001I0J249999D01*
G01*
X101170000Y-97709999D01*
G75*
G02*
X101419999Y-97460000I249999J0D01*
G01*
G37*
G04 #@! TD.AperFunction*
G04 #@! TA.AperFunction,SMDPad,CuDef*
G36*
G01*
X101419999Y-93185000D02*
X104320001Y-93185000D01*
G75*
G02*
X104570000Y-93434999I0J-249999D01*
G01*
X104570000Y-94060001D01*
G75*
G02*
X104320001Y-94310000I-249999J0D01*
G01*
X101419999Y-94310000D01*
G75*
G02*
X101170000Y-94060001I0J249999D01*
G01*
X101170000Y-93434999D01*
G75*
G02*
X101419999Y-93185000I249999J0D01*
G01*
G37*
G04 #@! TD.AperFunction*
D14*
X104140000Y-86335000D03*
D15*
X104140000Y-80035000D03*
X101840000Y-80035000D03*
X106440000Y-80035000D03*
X110730000Y-82525000D03*
X115330000Y-82525000D03*
X113030000Y-82525000D03*
D14*
X113030000Y-76225000D03*
G04 #@! TA.AperFunction,SMDPad,CuDef*
G36*
G01*
X107136250Y-78260000D02*
X106223750Y-78260000D01*
G75*
G02*
X105980000Y-78016250I0J243750D01*
G01*
X105980000Y-77528750D01*
G75*
G02*
X106223750Y-77285000I243750J0D01*
G01*
X107136250Y-77285000D01*
G75*
G02*
X107380000Y-77528750I0J-243750D01*
G01*
X107380000Y-78016250D01*
G75*
G02*
X107136250Y-78260000I-243750J0D01*
G01*
G37*
G04 #@! TD.AperFunction*
G04 #@! TA.AperFunction,SMDPad,CuDef*
G36*
G01*
X107136250Y-76385000D02*
X106223750Y-76385000D01*
G75*
G02*
X105980000Y-76141250I0J243750D01*
G01*
X105980000Y-75653750D01*
G75*
G02*
X106223750Y-75410000I243750J0D01*
G01*
X107136250Y-75410000D01*
G75*
G02*
X107380000Y-75653750I0J-243750D01*
G01*
X107380000Y-76141250D01*
G75*
G02*
X107136250Y-76385000I-243750J0D01*
G01*
G37*
G04 #@! TD.AperFunction*
G04 #@! TA.AperFunction,SMDPad,CuDef*
G36*
G01*
X110033750Y-86175000D02*
X110946250Y-86175000D01*
G75*
G02*
X111190000Y-86418750I0J-243750D01*
G01*
X111190000Y-86906250D01*
G75*
G02*
X110946250Y-87150000I-243750J0D01*
G01*
X110033750Y-87150000D01*
G75*
G02*
X109790000Y-86906250I0J243750D01*
G01*
X109790000Y-86418750D01*
G75*
G02*
X110033750Y-86175000I243750J0D01*
G01*
G37*
G04 #@! TD.AperFunction*
G04 #@! TA.AperFunction,SMDPad,CuDef*
G36*
G01*
X110033750Y-84300000D02*
X110946250Y-84300000D01*
G75*
G02*
X111190000Y-84543750I0J-243750D01*
G01*
X111190000Y-85031250D01*
G75*
G02*
X110946250Y-85275000I-243750J0D01*
G01*
X110033750Y-85275000D01*
G75*
G02*
X109790000Y-85031250I0J243750D01*
G01*
X109790000Y-84543750D01*
G75*
G02*
X110033750Y-84300000I243750J0D01*
G01*
G37*
G04 #@! TD.AperFunction*
D16*
X85090000Y-79970000D03*
X85090000Y-74970000D03*
X91440000Y-74970000D03*
X91440000Y-79970000D03*
X85765000Y-86360000D03*
X90765000Y-86360000D03*
G04 #@! TA.AperFunction,SMDPad,CuDef*
G36*
G01*
X117296250Y-97340000D02*
X116383750Y-97340000D01*
G75*
G02*
X116140000Y-97096250I0J243750D01*
G01*
X116140000Y-96608750D01*
G75*
G02*
X116383750Y-96365000I243750J0D01*
G01*
X117296250Y-96365000D01*
G75*
G02*
X117540000Y-96608750I0J-243750D01*
G01*
X117540000Y-97096250D01*
G75*
G02*
X117296250Y-97340000I-243750J0D01*
G01*
G37*
G04 #@! TD.AperFunction*
G04 #@! TA.AperFunction,SMDPad,CuDef*
G36*
G01*
X117296250Y-99215000D02*
X116383750Y-99215000D01*
G75*
G02*
X116140000Y-98971250I0J243750D01*
G01*
X116140000Y-98483750D01*
G75*
G02*
X116383750Y-98240000I243750J0D01*
G01*
X117296250Y-98240000D01*
G75*
G02*
X117540000Y-98483750I0J-243750D01*
G01*
X117540000Y-98971250D01*
G75*
G02*
X117296250Y-99215000I-243750J0D01*
G01*
G37*
G04 #@! TD.AperFunction*
G04 #@! TA.AperFunction,SMDPad,CuDef*
G36*
G01*
X116383750Y-60805000D02*
X117296250Y-60805000D01*
G75*
G02*
X117540000Y-61048750I0J-243750D01*
G01*
X117540000Y-61536250D01*
G75*
G02*
X117296250Y-61780000I-243750J0D01*
G01*
X116383750Y-61780000D01*
G75*
G02*
X116140000Y-61536250I0J243750D01*
G01*
X116140000Y-61048750D01*
G75*
G02*
X116383750Y-60805000I243750J0D01*
G01*
G37*
G04 #@! TD.AperFunction*
G04 #@! TA.AperFunction,SMDPad,CuDef*
G36*
G01*
X116383750Y-62680000D02*
X117296250Y-62680000D01*
G75*
G02*
X117540000Y-62923750I0J-243750D01*
G01*
X117540000Y-63411250D01*
G75*
G02*
X117296250Y-63655000I-243750J0D01*
G01*
X116383750Y-63655000D01*
G75*
G02*
X116140000Y-63411250I0J243750D01*
G01*
X116140000Y-62923750D01*
G75*
G02*
X116383750Y-62680000I243750J0D01*
G01*
G37*
G04 #@! TD.AperFunction*
G04 #@! TA.AperFunction,SMDPad,CuDef*
G36*
G01*
X116383750Y-92555000D02*
X117296250Y-92555000D01*
G75*
G02*
X117540000Y-92798750I0J-243750D01*
G01*
X117540000Y-93286250D01*
G75*
G02*
X117296250Y-93530000I-243750J0D01*
G01*
X116383750Y-93530000D01*
G75*
G02*
X116140000Y-93286250I0J243750D01*
G01*
X116140000Y-92798750D01*
G75*
G02*
X116383750Y-92555000I243750J0D01*
G01*
G37*
G04 #@! TD.AperFunction*
G04 #@! TA.AperFunction,SMDPad,CuDef*
G36*
G01*
X116383750Y-94430000D02*
X117296250Y-94430000D01*
G75*
G02*
X117540000Y-94673750I0J-243750D01*
G01*
X117540000Y-95161250D01*
G75*
G02*
X117296250Y-95405000I-243750J0D01*
G01*
X116383750Y-95405000D01*
G75*
G02*
X116140000Y-95161250I0J243750D01*
G01*
X116140000Y-94673750D01*
G75*
G02*
X116383750Y-94430000I243750J0D01*
G01*
G37*
G04 #@! TD.AperFunction*
G04 #@! TA.AperFunction,SMDPad,CuDef*
G36*
G01*
X117296250Y-65590001D02*
X116383750Y-65590001D01*
G75*
G02*
X116140000Y-65346251I0J243750D01*
G01*
X116140000Y-64858751D01*
G75*
G02*
X116383750Y-64615001I243750J0D01*
G01*
X117296250Y-64615001D01*
G75*
G02*
X117540000Y-64858751I0J-243750D01*
G01*
X117540000Y-65346251D01*
G75*
G02*
X117296250Y-65590001I-243750J0D01*
G01*
G37*
G04 #@! TD.AperFunction*
G04 #@! TA.AperFunction,SMDPad,CuDef*
G36*
G01*
X117296250Y-67465001D02*
X116383750Y-67465001D01*
G75*
G02*
X116140000Y-67221251I0J243750D01*
G01*
X116140000Y-66733751D01*
G75*
G02*
X116383750Y-66490001I243750J0D01*
G01*
X117296250Y-66490001D01*
G75*
G02*
X117540000Y-66733751I0J-243750D01*
G01*
X117540000Y-67221251D01*
G75*
G02*
X117296250Y-67465001I-243750J0D01*
G01*
G37*
G04 #@! TD.AperFunction*
X107990000Y-95845000D03*
X112990000Y-95845000D03*
X91440000Y-97750000D03*
X91440000Y-92750000D03*
X107990000Y-64135000D03*
X112990000Y-64135000D03*
G04 #@! TA.AperFunction,SMDPad,CuDef*
G36*
G01*
X122400000Y-83641250D02*
X122400000Y-82728750D01*
G75*
G02*
X122643750Y-82485000I243750J0D01*
G01*
X123131250Y-82485000D01*
G75*
G02*
X123375000Y-82728750I0J-243750D01*
G01*
X123375000Y-83641250D01*
G75*
G02*
X123131250Y-83885000I-243750J0D01*
G01*
X122643750Y-83885000D01*
G75*
G02*
X122400000Y-83641250I0J243750D01*
G01*
G37*
G04 #@! TD.AperFunction*
G04 #@! TA.AperFunction,SMDPad,CuDef*
G36*
G01*
X124275000Y-83641250D02*
X124275000Y-82728750D01*
G75*
G02*
X124518750Y-82485000I243750J0D01*
G01*
X125006250Y-82485000D01*
G75*
G02*
X125250000Y-82728750I0J-243750D01*
G01*
X125250000Y-83641250D01*
G75*
G02*
X125006250Y-83885000I-243750J0D01*
G01*
X124518750Y-83885000D01*
G75*
G02*
X124275000Y-83641250I0J243750D01*
G01*
G37*
G04 #@! TD.AperFunction*
G04 #@! TA.AperFunction,SMDPad,CuDef*
G36*
G01*
X119565000Y-82728750D02*
X119565000Y-83641250D01*
G75*
G02*
X119321250Y-83885000I-243750J0D01*
G01*
X118833750Y-83885000D01*
G75*
G02*
X118590000Y-83641250I0J243750D01*
G01*
X118590000Y-82728750D01*
G75*
G02*
X118833750Y-82485000I243750J0D01*
G01*
X119321250Y-82485000D01*
G75*
G02*
X119565000Y-82728750I0J-243750D01*
G01*
G37*
G04 #@! TD.AperFunction*
G04 #@! TA.AperFunction,SMDPad,CuDef*
G36*
G01*
X121440000Y-82728750D02*
X121440000Y-83641250D01*
G75*
G02*
X121196250Y-83885000I-243750J0D01*
G01*
X120708750Y-83885000D01*
G75*
G02*
X120465000Y-83641250I0J243750D01*
G01*
X120465000Y-82728750D01*
G75*
G02*
X120708750Y-82485000I243750J0D01*
G01*
X121196250Y-82485000D01*
G75*
G02*
X121440000Y-82728750I0J-243750D01*
G01*
G37*
G04 #@! TD.AperFunction*
G04 #@! TA.AperFunction,SMDPad,CuDef*
G36*
G01*
X122400000Y-79831250D02*
X122400000Y-78918750D01*
G75*
G02*
X122643750Y-78675000I243750J0D01*
G01*
X123131250Y-78675000D01*
G75*
G02*
X123375000Y-78918750I0J-243750D01*
G01*
X123375000Y-79831250D01*
G75*
G02*
X123131250Y-80075000I-243750J0D01*
G01*
X122643750Y-80075000D01*
G75*
G02*
X122400000Y-79831250I0J243750D01*
G01*
G37*
G04 #@! TD.AperFunction*
G04 #@! TA.AperFunction,SMDPad,CuDef*
G36*
G01*
X124275000Y-79831250D02*
X124275000Y-78918750D01*
G75*
G02*
X124518750Y-78675000I243750J0D01*
G01*
X125006250Y-78675000D01*
G75*
G02*
X125250000Y-78918750I0J-243750D01*
G01*
X125250000Y-79831250D01*
G75*
G02*
X125006250Y-80075000I-243750J0D01*
G01*
X124518750Y-80075000D01*
G75*
G02*
X124275000Y-79831250I0J243750D01*
G01*
G37*
G04 #@! TD.AperFunction*
G04 #@! TA.AperFunction,SMDPad,CuDef*
G36*
G01*
X119565000Y-78918750D02*
X119565000Y-79831250D01*
G75*
G02*
X119321250Y-80075000I-243750J0D01*
G01*
X118833750Y-80075000D01*
G75*
G02*
X118590000Y-79831250I0J243750D01*
G01*
X118590000Y-78918750D01*
G75*
G02*
X118833750Y-78675000I243750J0D01*
G01*
X119321250Y-78675000D01*
G75*
G02*
X119565000Y-78918750I0J-243750D01*
G01*
G37*
G04 #@! TD.AperFunction*
G04 #@! TA.AperFunction,SMDPad,CuDef*
G36*
G01*
X121440000Y-78918750D02*
X121440000Y-79831250D01*
G75*
G02*
X121196250Y-80075000I-243750J0D01*
G01*
X120708750Y-80075000D01*
G75*
G02*
X120465000Y-79831250I0J243750D01*
G01*
X120465000Y-78918750D01*
G75*
G02*
X120708750Y-78675000I243750J0D01*
G01*
X121196250Y-78675000D01*
G75*
G02*
X121440000Y-78918750I0J-243750D01*
G01*
G37*
G04 #@! TD.AperFunction*
D17*
X127000000Y-61595000D03*
D18*
X129540000Y-61595000D03*
X127000000Y-64135000D03*
X129540000Y-64135000D03*
X127000000Y-66675000D03*
X129540000Y-66675000D03*
X129540000Y-98425000D03*
X127000000Y-98425000D03*
X129540000Y-95885000D03*
X127000000Y-95885000D03*
X129540000Y-93345000D03*
D17*
X127000000Y-93345000D03*
G04 #@! TA.AperFunction,SMDPad,CuDef*
G36*
G01*
X124275000Y-76021250D02*
X124275000Y-75108750D01*
G75*
G02*
X124518750Y-74865000I243750J0D01*
G01*
X125006250Y-74865000D01*
G75*
G02*
X125250000Y-75108750I0J-243750D01*
G01*
X125250000Y-76021250D01*
G75*
G02*
X125006250Y-76265000I-243750J0D01*
G01*
X124518750Y-76265000D01*
G75*
G02*
X124275000Y-76021250I0J243750D01*
G01*
G37*
G04 #@! TD.AperFunction*
G04 #@! TA.AperFunction,SMDPad,CuDef*
G36*
G01*
X122400000Y-76021250D02*
X122400000Y-75108750D01*
G75*
G02*
X122643750Y-74865000I243750J0D01*
G01*
X123131250Y-74865000D01*
G75*
G02*
X123375000Y-75108750I0J-243750D01*
G01*
X123375000Y-76021250D01*
G75*
G02*
X123131250Y-76265000I-243750J0D01*
G01*
X122643750Y-76265000D01*
G75*
G02*
X122400000Y-76021250I0J243750D01*
G01*
G37*
G04 #@! TD.AperFunction*
G04 #@! TA.AperFunction,SMDPad,CuDef*
G36*
G01*
X121440000Y-75108750D02*
X121440000Y-76021250D01*
G75*
G02*
X121196250Y-76265000I-243750J0D01*
G01*
X120708750Y-76265000D01*
G75*
G02*
X120465000Y-76021250I0J243750D01*
G01*
X120465000Y-75108750D01*
G75*
G02*
X120708750Y-74865000I243750J0D01*
G01*
X121196250Y-74865000D01*
G75*
G02*
X121440000Y-75108750I0J-243750D01*
G01*
G37*
G04 #@! TD.AperFunction*
G04 #@! TA.AperFunction,SMDPad,CuDef*
G36*
G01*
X119565000Y-75108750D02*
X119565000Y-76021250D01*
G75*
G02*
X119321250Y-76265000I-243750J0D01*
G01*
X118833750Y-76265000D01*
G75*
G02*
X118590000Y-76021250I0J243750D01*
G01*
X118590000Y-75108750D01*
G75*
G02*
X118833750Y-74865000I243750J0D01*
G01*
X119321250Y-74865000D01*
G75*
G02*
X119565000Y-75108750I0J-243750D01*
G01*
G37*
G04 #@! TD.AperFunction*
X127000000Y-76835000D03*
D18*
X129540000Y-76835000D03*
X127000000Y-79375000D03*
X129540000Y-79375000D03*
X127000000Y-81915000D03*
X129540000Y-81915000D03*
D19*
X92710000Y-66040000D03*
D20*
X106680000Y-74168000D03*
X118491000Y-73279000D03*
X114046000Y-98298000D03*
X114300000Y-61595000D03*
D19*
X98425000Y-80010000D03*
D20*
X120015000Y-80899000D03*
X117221000Y-82550000D03*
D19*
X116205000Y-73320000D03*
D20*
X122047000Y-74258000D03*
X127127000Y-74295000D03*
X107315000Y-88900000D03*
X110490000Y-74295000D03*
D19*
X113030000Y-78740000D03*
X104140000Y-83820000D03*
D21*
X91440000Y-92750000D02*
X91440000Y-97750000D01*
X91725000Y-98035000D02*
X91440000Y-97750000D01*
X97790000Y-98035000D02*
X91725000Y-98035000D01*
X97545000Y-66040000D02*
X97790000Y-66285000D01*
X92710000Y-66040000D02*
X97545000Y-66040000D01*
D22*
X106680000Y-75897500D02*
X106680000Y-74168000D01*
X119077500Y-75565000D02*
X119077500Y-79375000D01*
X119077500Y-80175000D02*
X119077500Y-83185000D01*
X119077500Y-79375000D02*
X119077500Y-80175000D01*
X108585000Y-77802500D02*
X106680000Y-75897500D01*
X108585000Y-85979000D02*
X108585000Y-77802500D01*
X110490000Y-86662500D02*
X109268500Y-86662500D01*
X109268500Y-86662500D02*
X108585000Y-85979000D01*
X119077500Y-75565000D02*
X119077500Y-73865500D01*
X119077500Y-73865500D02*
X118491000Y-73279000D01*
X116840000Y-98727500D02*
X114475500Y-98727500D01*
X114475500Y-98727500D02*
X114046000Y-98298000D01*
X119077500Y-87297500D02*
X119077500Y-83185000D01*
X118110000Y-88265000D02*
X119077500Y-87297500D01*
X110998000Y-88265000D02*
X118110000Y-88265000D01*
X110490000Y-87757000D02*
X110998000Y-88265000D01*
X110490000Y-86662500D02*
X110490000Y-87757000D01*
X116537500Y-61595000D02*
X116840000Y-61292500D01*
X114300000Y-61595000D02*
X116537500Y-61595000D01*
D23*
X98815000Y-93735000D02*
X97790000Y-93735000D01*
X100330000Y-95250000D02*
X98815000Y-93735000D01*
X100330000Y-97282500D02*
X100330000Y-95250000D01*
X101070000Y-98022500D02*
X100330000Y-97282500D01*
X102870000Y-98022500D02*
X101070000Y-98022500D01*
D21*
X85090000Y-74970000D02*
X85090000Y-79970000D01*
X83164999Y-81895001D02*
X83164999Y-87990999D01*
X85090000Y-79970000D02*
X83164999Y-81895001D01*
X83164999Y-87990999D02*
X84709000Y-89535000D01*
X97790000Y-93635000D02*
X97790000Y-93735000D01*
X93690000Y-89535000D02*
X97790000Y-93635000D01*
X84709000Y-89535000D02*
X93690000Y-89535000D01*
X90765000Y-86360000D02*
X90765000Y-86710000D01*
X97802500Y-61997500D02*
X97790000Y-61985000D01*
D23*
X102857500Y-61985000D02*
X102870000Y-61997500D01*
D21*
X92320000Y-61985000D02*
X97790000Y-61985000D01*
X88265000Y-66167000D02*
X88201500Y-66103500D01*
X88265000Y-86360000D02*
X88265000Y-66167000D01*
X88201500Y-66103500D02*
X92320000Y-61985000D01*
X88265000Y-86360000D02*
X85765000Y-86360000D01*
X90765000Y-86360000D02*
X88265000Y-86360000D01*
D23*
X97790000Y-61985000D02*
X102857500Y-61985000D01*
X98425000Y-78870000D02*
X98425000Y-71120000D01*
X98425000Y-78870000D02*
X98425000Y-80010000D01*
X101815000Y-80010000D02*
X101840000Y-80035000D01*
X98425000Y-80010000D02*
X101815000Y-80010000D01*
D21*
X107990000Y-95845000D02*
X112990000Y-95845000D01*
D22*
X101840000Y-78025000D02*
X101600000Y-77785000D01*
X101840000Y-80035000D02*
X101840000Y-78025000D01*
X115792500Y-93042500D02*
X116840000Y-93042500D01*
X112990000Y-95845000D02*
X115792500Y-93042500D01*
X122887500Y-86995000D02*
X122887500Y-83185000D01*
X116840000Y-93042500D02*
X122887500Y-86995000D01*
D21*
X107990000Y-64135000D02*
X112990000Y-64135000D01*
D23*
X115330000Y-80025000D02*
X116205000Y-79150000D01*
X115330000Y-82525000D02*
X115330000Y-80025000D01*
X116205000Y-79150000D02*
X116205000Y-73025000D01*
X112990000Y-69810000D02*
X112990000Y-64135000D01*
X116205000Y-73025000D02*
X112990000Y-69810000D01*
D22*
X115570000Y-82765000D02*
X115330000Y-82525000D01*
X115570000Y-84775000D02*
X115570000Y-82765000D01*
X115745501Y-66977501D02*
X116840000Y-66977501D01*
X115189000Y-66421000D02*
X115745501Y-66977501D01*
X115189000Y-64354102D02*
X115189000Y-66421000D01*
X112990000Y-64135000D02*
X114969898Y-64135000D01*
X114969898Y-64135000D02*
X115189000Y-64354102D01*
X122887500Y-80175000D02*
X122290500Y-80772000D01*
X122887500Y-79375000D02*
X122887500Y-80175000D01*
X122290500Y-80772000D02*
X120142000Y-80772000D01*
X120142000Y-80772000D02*
X120015000Y-80899000D01*
X115355000Y-82550000D02*
X115330000Y-82525000D01*
X117221000Y-82550000D02*
X115355000Y-82550000D01*
X116840000Y-94917500D02*
X116840000Y-96852500D01*
X116840000Y-65102501D02*
X116840000Y-63167500D01*
D23*
X127000000Y-61595000D02*
X127000000Y-64135000D01*
X127000000Y-64135000D02*
X127000000Y-66675000D01*
X139065000Y-73660000D02*
X139065000Y-71120000D01*
X127000000Y-98425000D02*
X127000000Y-95885000D01*
X127000000Y-95885000D02*
X127000000Y-93345000D01*
X132334000Y-83439000D02*
X136652000Y-83439000D01*
X139065000Y-81026000D02*
X139065000Y-73660000D01*
X136652000Y-83439000D02*
X139065000Y-81026000D01*
X137268949Y-71120000D02*
X139065000Y-71120000D01*
X130242919Y-71120000D02*
X137268949Y-71120000D01*
X127000000Y-67877081D02*
X130242919Y-71120000D01*
X127000000Y-66675000D02*
X127000000Y-67877081D01*
X130365500Y-87629500D02*
X130365500Y-85407500D01*
X127000000Y-90995000D02*
X130365500Y-87629500D01*
X127000000Y-93345000D02*
X127000000Y-90995000D01*
X130365500Y-85407500D02*
X132334000Y-83439000D01*
D22*
X122887500Y-75565000D02*
X122887500Y-75098500D01*
X122887500Y-75098500D02*
X122047000Y-74258000D01*
X130242919Y-71179081D02*
X130242919Y-71120000D01*
X127127000Y-74295000D02*
X130242919Y-71179081D01*
X120952500Y-83185000D02*
X120952500Y-81739500D01*
X120952500Y-81739500D02*
X121412000Y-81280000D01*
X121412000Y-81280000D02*
X124460000Y-81280000D01*
X124762500Y-81582500D02*
X124762500Y-83185000D01*
X124460000Y-81280000D02*
X124762500Y-81582500D01*
X125730000Y-83185000D02*
X127000000Y-81915000D01*
X124762500Y-83185000D02*
X125730000Y-83185000D01*
X120952500Y-79375000D02*
X120952500Y-77929500D01*
X120952500Y-77929500D02*
X121412000Y-77470000D01*
X121412000Y-77470000D02*
X124333000Y-77470000D01*
X124762500Y-77899500D02*
X124762500Y-79375000D01*
X124333000Y-77470000D02*
X124762500Y-77899500D01*
X124762500Y-79375000D02*
X127000000Y-79375000D01*
X120952500Y-75565000D02*
X120952500Y-73865500D01*
X120952500Y-73865500D02*
X121285000Y-73533000D01*
X121285000Y-73533000D02*
X124460000Y-73533000D01*
X124762500Y-73835500D02*
X124762500Y-75565000D01*
X124460000Y-73533000D02*
X124762500Y-73835500D01*
X126032500Y-76835000D02*
X127000000Y-76835000D01*
X124762500Y-75565000D02*
X126032500Y-76835000D01*
X104792500Y-75885000D02*
X106680000Y-77772500D01*
X101600000Y-75885000D02*
X104792500Y-75885000D01*
X106680000Y-79795000D02*
X106440000Y-80035000D01*
X106680000Y-77772500D02*
X106680000Y-79795000D01*
X106440000Y-80035000D02*
X106440000Y-83580000D01*
X106440000Y-83580000D02*
X107315000Y-84455000D01*
X107315000Y-84455000D02*
X107315000Y-88900000D01*
X110730000Y-84547500D02*
X110490000Y-84787500D01*
X110730000Y-82525000D02*
X110730000Y-84547500D01*
X112377500Y-86675000D02*
X110490000Y-84787500D01*
X115570000Y-86675000D02*
X112377500Y-86675000D01*
X110730000Y-82525000D02*
X110730000Y-80250000D01*
X110730000Y-80250000D02*
X109220000Y-78740000D01*
X109220000Y-78740000D02*
X109220000Y-75565000D01*
X109220000Y-75565000D02*
X110490000Y-74295000D01*
D21*
X113030000Y-73225000D02*
X108385000Y-68580000D01*
X113030000Y-76225000D02*
X113030000Y-73225000D01*
X108385000Y-68580000D02*
X103505000Y-68580000D01*
X102870000Y-67945000D02*
X102870000Y-66272500D01*
X103505000Y-68580000D02*
X102870000Y-67945000D01*
D23*
X113030000Y-82525000D02*
X113030000Y-78740000D01*
X113030000Y-78740000D02*
X113030000Y-76225000D01*
D21*
X102870000Y-93747500D02*
X102870000Y-90805000D01*
X104140000Y-89535000D02*
X104140000Y-86335000D01*
X102870000Y-90805000D02*
X104140000Y-89535000D01*
D23*
X104140000Y-83185000D02*
X104140000Y-83820000D01*
X104140000Y-83185000D02*
X104140000Y-80035000D01*
X104140000Y-86335000D02*
X104140000Y-83185000D01*
D24*
X91999483Y-60373657D02*
X91746146Y-60450506D01*
X91691285Y-60467148D01*
X91407248Y-60618969D01*
X91158286Y-60823286D01*
X91107084Y-60885676D01*
X87247372Y-64745390D01*
X87325000Y-64355128D01*
X87325000Y-63914872D01*
X87239110Y-63483075D01*
X87070631Y-63076331D01*
X86826038Y-62710271D01*
X86514729Y-62398962D01*
X86148669Y-62154369D01*
X85741925Y-61985890D01*
X85310128Y-61900000D01*
X84869872Y-61900000D01*
X84438075Y-61985890D01*
X84031331Y-62154369D01*
X83665271Y-62398962D01*
X83353962Y-62710271D01*
X83109369Y-63076331D01*
X82940890Y-63483075D01*
X82855000Y-63914872D01*
X82855000Y-64355128D01*
X82940890Y-64786925D01*
X83109369Y-65193669D01*
X83353962Y-65559729D01*
X83665271Y-65871038D01*
X84031331Y-66115631D01*
X84438075Y-66284110D01*
X84869872Y-66370000D01*
X85310128Y-66370000D01*
X85741925Y-66284110D01*
X86148669Y-66115631D01*
X86514729Y-65871038D01*
X86588779Y-65796988D01*
X86558589Y-66103500D01*
X86590158Y-66424016D01*
X86630001Y-66555362D01*
X86630001Y-73632077D01*
X86387237Y-73389313D01*
X86053934Y-73166607D01*
X85683587Y-73013204D01*
X85290430Y-72935000D01*
X84889570Y-72935000D01*
X84496413Y-73013204D01*
X84126066Y-73166607D01*
X83792763Y-73389313D01*
X83509313Y-73672763D01*
X83286607Y-74006066D01*
X83133204Y-74376413D01*
X83055000Y-74769570D01*
X83055000Y-75170430D01*
X83133204Y-75563587D01*
X83286607Y-75933934D01*
X83455000Y-76185952D01*
X83455001Y-78754047D01*
X83286607Y-79006066D01*
X83133204Y-79376413D01*
X83074072Y-79673689D01*
X82065685Y-80682077D01*
X82003285Y-80733287D01*
X81798968Y-80982250D01*
X81647147Y-81266287D01*
X81553656Y-81574486D01*
X81533809Y-81775997D01*
X81522088Y-81895001D01*
X81529999Y-81975321D01*
X81530000Y-87910670D01*
X81522088Y-87990999D01*
X81553657Y-88311515D01*
X81647147Y-88619713D01*
X81648502Y-88622248D01*
X81798969Y-88903751D01*
X82003286Y-89152713D01*
X82065681Y-89203919D01*
X83496079Y-90634318D01*
X83547286Y-90696714D01*
X83796248Y-90901031D01*
X84080285Y-91052852D01*
X84388484Y-91146343D01*
X84628678Y-91170000D01*
X84628680Y-91170000D01*
X84708999Y-91177911D01*
X84789319Y-91170000D01*
X90274396Y-91170000D01*
X90199158Y-91329553D01*
X91440000Y-92570395D01*
X92680842Y-91329553D01*
X92605604Y-91170000D01*
X93012762Y-91170000D01*
X96001928Y-94159168D01*
X96001928Y-94985000D01*
X96014188Y-95109482D01*
X96050498Y-95229180D01*
X96109463Y-95339494D01*
X96188815Y-95436185D01*
X96285506Y-95515537D01*
X96395820Y-95574502D01*
X96515518Y-95610812D01*
X96640000Y-95623072D01*
X98744386Y-95623072D01*
X98945001Y-95823686D01*
X98945001Y-96147420D01*
X98940000Y-96146928D01*
X98075750Y-96150000D01*
X97917000Y-96308750D01*
X97917000Y-97908000D01*
X97937000Y-97908000D01*
X97937000Y-98162000D01*
X97917000Y-98162000D01*
X97917000Y-98182000D01*
X97663000Y-98182000D01*
X97663000Y-98162000D01*
X96163750Y-98162000D01*
X96005000Y-98320750D01*
X96001928Y-99285000D01*
X96014188Y-99409482D01*
X96050498Y-99529180D01*
X96109463Y-99639494D01*
X96134499Y-99670000D01*
X92115758Y-99670000D01*
X92265540Y-99620795D01*
X92536865Y-99475770D01*
X92680842Y-99170447D01*
X91440000Y-97929605D01*
X90199158Y-99170447D01*
X90343135Y-99475770D01*
X90700892Y-99656597D01*
X90749012Y-99670000D01*
X81305000Y-99670000D01*
X81305000Y-95664872D01*
X82855000Y-95664872D01*
X82855000Y-96105128D01*
X82940890Y-96536925D01*
X83109369Y-96943669D01*
X83353962Y-97309729D01*
X83665271Y-97621038D01*
X84031331Y-97865631D01*
X84438075Y-98034110D01*
X84869872Y-98120000D01*
X85310128Y-98120000D01*
X85741925Y-98034110D01*
X86148669Y-97865631D01*
X86251716Y-97796777D01*
X89395690Y-97796777D01*
X89444096Y-98194704D01*
X89569205Y-98575540D01*
X89714230Y-98846865D01*
X90019553Y-98990842D01*
X91260395Y-97750000D01*
X91619605Y-97750000D01*
X92860447Y-98990842D01*
X93165770Y-98846865D01*
X93346597Y-98489108D01*
X93454155Y-98102947D01*
X93484310Y-97703223D01*
X93435904Y-97305296D01*
X93310795Y-96924460D01*
X93236253Y-96785000D01*
X96001928Y-96785000D01*
X96005000Y-97749250D01*
X96163750Y-97908000D01*
X97663000Y-97908000D01*
X97663000Y-96308750D01*
X97504250Y-96150000D01*
X96640000Y-96146928D01*
X96515518Y-96159188D01*
X96395820Y-96195498D01*
X96285506Y-96254463D01*
X96188815Y-96333815D01*
X96109463Y-96430506D01*
X96050498Y-96540820D01*
X96014188Y-96660518D01*
X96001928Y-96785000D01*
X93236253Y-96785000D01*
X93165770Y-96653135D01*
X92860447Y-96509158D01*
X91619605Y-97750000D01*
X91260395Y-97750000D01*
X90019553Y-96509158D01*
X89714230Y-96653135D01*
X89533403Y-97010892D01*
X89425845Y-97397053D01*
X89395690Y-97796777D01*
X86251716Y-97796777D01*
X86514729Y-97621038D01*
X86826038Y-97309729D01*
X87070631Y-96943669D01*
X87239110Y-96536925D01*
X87280358Y-96329553D01*
X90199158Y-96329553D01*
X91440000Y-97570395D01*
X92680842Y-96329553D01*
X92536865Y-96024230D01*
X92179108Y-95843403D01*
X91792947Y-95735845D01*
X91393223Y-95705690D01*
X90995296Y-95754096D01*
X90614460Y-95879205D01*
X90343135Y-96024230D01*
X90199158Y-96329553D01*
X87280358Y-96329553D01*
X87325000Y-96105128D01*
X87325000Y-95664872D01*
X87239110Y-95233075D01*
X87070631Y-94826331D01*
X86826038Y-94460271D01*
X86536214Y-94170447D01*
X90199158Y-94170447D01*
X90343135Y-94475770D01*
X90700892Y-94656597D01*
X91087053Y-94764155D01*
X91486777Y-94794310D01*
X91884704Y-94745904D01*
X92265540Y-94620795D01*
X92536865Y-94475770D01*
X92680842Y-94170447D01*
X91440000Y-92929605D01*
X90199158Y-94170447D01*
X86536214Y-94170447D01*
X86514729Y-94148962D01*
X86148669Y-93904369D01*
X85741925Y-93735890D01*
X85310128Y-93650000D01*
X84869872Y-93650000D01*
X84438075Y-93735890D01*
X84031331Y-93904369D01*
X83665271Y-94148962D01*
X83353962Y-94460271D01*
X83109369Y-94826331D01*
X82940890Y-95233075D01*
X82855000Y-95664872D01*
X81305000Y-95664872D01*
X81305000Y-92796777D01*
X89395690Y-92796777D01*
X89444096Y-93194704D01*
X89569205Y-93575540D01*
X89714230Y-93846865D01*
X90019553Y-93990842D01*
X91260395Y-92750000D01*
X91619605Y-92750000D01*
X92860447Y-93990842D01*
X93165770Y-93846865D01*
X93346597Y-93489108D01*
X93454155Y-93102947D01*
X93484310Y-92703223D01*
X93435904Y-92305296D01*
X93310795Y-91924460D01*
X93165770Y-91653135D01*
X92860447Y-91509158D01*
X91619605Y-92750000D01*
X91260395Y-92750000D01*
X90019553Y-91509158D01*
X89714230Y-91653135D01*
X89533403Y-92010892D01*
X89425845Y-92397053D01*
X89395690Y-92796777D01*
X81305000Y-92796777D01*
X81305000Y-60350000D01*
X92239670Y-60350000D01*
X91999483Y-60373657D01*
G04 #@! TA.AperFunction,Conductor*
D25*
G36*
X91999483Y-60373657D02*
G01*
X91746146Y-60450506D01*
X91691285Y-60467148D01*
X91407248Y-60618969D01*
X91158286Y-60823286D01*
X91107084Y-60885676D01*
X87247372Y-64745390D01*
X87325000Y-64355128D01*
X87325000Y-63914872D01*
X87239110Y-63483075D01*
X87070631Y-63076331D01*
X86826038Y-62710271D01*
X86514729Y-62398962D01*
X86148669Y-62154369D01*
X85741925Y-61985890D01*
X85310128Y-61900000D01*
X84869872Y-61900000D01*
X84438075Y-61985890D01*
X84031331Y-62154369D01*
X83665271Y-62398962D01*
X83353962Y-62710271D01*
X83109369Y-63076331D01*
X82940890Y-63483075D01*
X82855000Y-63914872D01*
X82855000Y-64355128D01*
X82940890Y-64786925D01*
X83109369Y-65193669D01*
X83353962Y-65559729D01*
X83665271Y-65871038D01*
X84031331Y-66115631D01*
X84438075Y-66284110D01*
X84869872Y-66370000D01*
X85310128Y-66370000D01*
X85741925Y-66284110D01*
X86148669Y-66115631D01*
X86514729Y-65871038D01*
X86588779Y-65796988D01*
X86558589Y-66103500D01*
X86590158Y-66424016D01*
X86630001Y-66555362D01*
X86630001Y-73632077D01*
X86387237Y-73389313D01*
X86053934Y-73166607D01*
X85683587Y-73013204D01*
X85290430Y-72935000D01*
X84889570Y-72935000D01*
X84496413Y-73013204D01*
X84126066Y-73166607D01*
X83792763Y-73389313D01*
X83509313Y-73672763D01*
X83286607Y-74006066D01*
X83133204Y-74376413D01*
X83055000Y-74769570D01*
X83055000Y-75170430D01*
X83133204Y-75563587D01*
X83286607Y-75933934D01*
X83455000Y-76185952D01*
X83455001Y-78754047D01*
X83286607Y-79006066D01*
X83133204Y-79376413D01*
X83074072Y-79673689D01*
X82065685Y-80682077D01*
X82003285Y-80733287D01*
X81798968Y-80982250D01*
X81647147Y-81266287D01*
X81553656Y-81574486D01*
X81533809Y-81775997D01*
X81522088Y-81895001D01*
X81529999Y-81975321D01*
X81530000Y-87910670D01*
X81522088Y-87990999D01*
X81553657Y-88311515D01*
X81647147Y-88619713D01*
X81648502Y-88622248D01*
X81798969Y-88903751D01*
X82003286Y-89152713D01*
X82065681Y-89203919D01*
X83496079Y-90634318D01*
X83547286Y-90696714D01*
X83796248Y-90901031D01*
X84080285Y-91052852D01*
X84388484Y-91146343D01*
X84628678Y-91170000D01*
X84628680Y-91170000D01*
X84708999Y-91177911D01*
X84789319Y-91170000D01*
X90274396Y-91170000D01*
X90199158Y-91329553D01*
X91440000Y-92570395D01*
X92680842Y-91329553D01*
X92605604Y-91170000D01*
X93012762Y-91170000D01*
X96001928Y-94159168D01*
X96001928Y-94985000D01*
X96014188Y-95109482D01*
X96050498Y-95229180D01*
X96109463Y-95339494D01*
X96188815Y-95436185D01*
X96285506Y-95515537D01*
X96395820Y-95574502D01*
X96515518Y-95610812D01*
X96640000Y-95623072D01*
X98744386Y-95623072D01*
X98945001Y-95823686D01*
X98945001Y-96147420D01*
X98940000Y-96146928D01*
X98075750Y-96150000D01*
X97917000Y-96308750D01*
X97917000Y-97908000D01*
X97937000Y-97908000D01*
X97937000Y-98162000D01*
X97917000Y-98162000D01*
X97917000Y-98182000D01*
X97663000Y-98182000D01*
X97663000Y-98162000D01*
X96163750Y-98162000D01*
X96005000Y-98320750D01*
X96001928Y-99285000D01*
X96014188Y-99409482D01*
X96050498Y-99529180D01*
X96109463Y-99639494D01*
X96134499Y-99670000D01*
X92115758Y-99670000D01*
X92265540Y-99620795D01*
X92536865Y-99475770D01*
X92680842Y-99170447D01*
X91440000Y-97929605D01*
X90199158Y-99170447D01*
X90343135Y-99475770D01*
X90700892Y-99656597D01*
X90749012Y-99670000D01*
X81305000Y-99670000D01*
X81305000Y-95664872D01*
X82855000Y-95664872D01*
X82855000Y-96105128D01*
X82940890Y-96536925D01*
X83109369Y-96943669D01*
X83353962Y-97309729D01*
X83665271Y-97621038D01*
X84031331Y-97865631D01*
X84438075Y-98034110D01*
X84869872Y-98120000D01*
X85310128Y-98120000D01*
X85741925Y-98034110D01*
X86148669Y-97865631D01*
X86251716Y-97796777D01*
X89395690Y-97796777D01*
X89444096Y-98194704D01*
X89569205Y-98575540D01*
X89714230Y-98846865D01*
X90019553Y-98990842D01*
X91260395Y-97750000D01*
X91619605Y-97750000D01*
X92860447Y-98990842D01*
X93165770Y-98846865D01*
X93346597Y-98489108D01*
X93454155Y-98102947D01*
X93484310Y-97703223D01*
X93435904Y-97305296D01*
X93310795Y-96924460D01*
X93236253Y-96785000D01*
X96001928Y-96785000D01*
X96005000Y-97749250D01*
X96163750Y-97908000D01*
X97663000Y-97908000D01*
X97663000Y-96308750D01*
X97504250Y-96150000D01*
X96640000Y-96146928D01*
X96515518Y-96159188D01*
X96395820Y-96195498D01*
X96285506Y-96254463D01*
X96188815Y-96333815D01*
X96109463Y-96430506D01*
X96050498Y-96540820D01*
X96014188Y-96660518D01*
X96001928Y-96785000D01*
X93236253Y-96785000D01*
X93165770Y-96653135D01*
X92860447Y-96509158D01*
X91619605Y-97750000D01*
X91260395Y-97750000D01*
X90019553Y-96509158D01*
X89714230Y-96653135D01*
X89533403Y-97010892D01*
X89425845Y-97397053D01*
X89395690Y-97796777D01*
X86251716Y-97796777D01*
X86514729Y-97621038D01*
X86826038Y-97309729D01*
X87070631Y-96943669D01*
X87239110Y-96536925D01*
X87280358Y-96329553D01*
X90199158Y-96329553D01*
X91440000Y-97570395D01*
X92680842Y-96329553D01*
X92536865Y-96024230D01*
X92179108Y-95843403D01*
X91792947Y-95735845D01*
X91393223Y-95705690D01*
X90995296Y-95754096D01*
X90614460Y-95879205D01*
X90343135Y-96024230D01*
X90199158Y-96329553D01*
X87280358Y-96329553D01*
X87325000Y-96105128D01*
X87325000Y-95664872D01*
X87239110Y-95233075D01*
X87070631Y-94826331D01*
X86826038Y-94460271D01*
X86536214Y-94170447D01*
X90199158Y-94170447D01*
X90343135Y-94475770D01*
X90700892Y-94656597D01*
X91087053Y-94764155D01*
X91486777Y-94794310D01*
X91884704Y-94745904D01*
X92265540Y-94620795D01*
X92536865Y-94475770D01*
X92680842Y-94170447D01*
X91440000Y-92929605D01*
X90199158Y-94170447D01*
X86536214Y-94170447D01*
X86514729Y-94148962D01*
X86148669Y-93904369D01*
X85741925Y-93735890D01*
X85310128Y-93650000D01*
X84869872Y-93650000D01*
X84438075Y-93735890D01*
X84031331Y-93904369D01*
X83665271Y-94148962D01*
X83353962Y-94460271D01*
X83109369Y-94826331D01*
X82940890Y-95233075D01*
X82855000Y-95664872D01*
X81305000Y-95664872D01*
X81305000Y-92796777D01*
X89395690Y-92796777D01*
X89444096Y-93194704D01*
X89569205Y-93575540D01*
X89714230Y-93846865D01*
X90019553Y-93990842D01*
X91260395Y-92750000D01*
X91619605Y-92750000D01*
X92860447Y-93990842D01*
X93165770Y-93846865D01*
X93346597Y-93489108D01*
X93454155Y-93102947D01*
X93484310Y-92703223D01*
X93435904Y-92305296D01*
X93310795Y-91924460D01*
X93165770Y-91653135D01*
X92860447Y-91509158D01*
X91619605Y-92750000D01*
X91260395Y-92750000D01*
X90019553Y-91509158D01*
X89714230Y-91653135D01*
X89533403Y-92010892D01*
X89425845Y-92397053D01*
X89395690Y-92796777D01*
X81305000Y-92796777D01*
X81305000Y-60350000D01*
X92239670Y-60350000D01*
X91999483Y-60373657D01*
G37*
G04 #@! TD.AperFunction*
D24*
X115688815Y-60353815D02*
X115609463Y-60450506D01*
X115550498Y-60560820D01*
X115514188Y-60680518D01*
X115501928Y-60805000D01*
X115505000Y-61006750D01*
X115663750Y-61165500D01*
X116713000Y-61165500D01*
X116713000Y-61145500D01*
X116967000Y-61145500D01*
X116967000Y-61165500D01*
X118016250Y-61165500D01*
X118175000Y-61006750D01*
X118178072Y-60805000D01*
X118165812Y-60680518D01*
X118129502Y-60560820D01*
X118070537Y-60450506D01*
X117991185Y-60353815D01*
X117986536Y-60350000D01*
X125652705Y-60350000D01*
X125619463Y-60390506D01*
X125560498Y-60500820D01*
X125524188Y-60620518D01*
X125511928Y-60745000D01*
X125511928Y-62445000D01*
X125524188Y-62569482D01*
X125560498Y-62689180D01*
X125615000Y-62791145D01*
X125615001Y-63598193D01*
X125572068Y-63701842D01*
X125515000Y-63988740D01*
X125515000Y-64281260D01*
X125572068Y-64568158D01*
X125615000Y-64671806D01*
X125615001Y-66138193D01*
X125572068Y-66241842D01*
X125515000Y-66528740D01*
X125515000Y-66821260D01*
X125572068Y-67108158D01*
X125615000Y-67211805D01*
X125615000Y-67809052D01*
X125608300Y-67877081D01*
X125615000Y-67945110D01*
X125615000Y-67945118D01*
X125635040Y-68148588D01*
X125714236Y-68409662D01*
X125801924Y-68573714D01*
X125842844Y-68650269D01*
X125972548Y-68808314D01*
X125972551Y-68808317D01*
X126015920Y-68861162D01*
X126068764Y-68904530D01*
X128755716Y-71591483D01*
X127087199Y-73260000D01*
X127025061Y-73260000D01*
X126825102Y-73299774D01*
X126636744Y-73377795D01*
X126467226Y-73491063D01*
X126323063Y-73635226D01*
X126209795Y-73804744D01*
X126131774Y-73993102D01*
X126092000Y-74193061D01*
X126092000Y-74396939D01*
X126131774Y-74596898D01*
X126209795Y-74785256D01*
X126323063Y-74954774D01*
X126467226Y-75098937D01*
X126636744Y-75212205D01*
X126825102Y-75290226D01*
X127025061Y-75330000D01*
X127228939Y-75330000D01*
X127428898Y-75290226D01*
X127617256Y-75212205D01*
X127786774Y-75098937D01*
X127930937Y-74954774D01*
X128044205Y-74785256D01*
X128122226Y-74596898D01*
X128162000Y-74396939D01*
X128162000Y-74334801D01*
X130008217Y-72488585D01*
X130174882Y-72505000D01*
X130174889Y-72505000D01*
X130242918Y-72511700D01*
X130310947Y-72505000D01*
X137680000Y-72505000D01*
X137680000Y-73728036D01*
X137680001Y-73728046D01*
X137680000Y-80452314D01*
X136078315Y-82054000D01*
X132402026Y-82054000D01*
X132333999Y-82047300D01*
X132265972Y-82054000D01*
X132265963Y-82054000D01*
X132062493Y-82074040D01*
X131801419Y-82153236D01*
X131560812Y-82281843D01*
X131560810Y-82281844D01*
X131560811Y-82281844D01*
X131402766Y-82411548D01*
X131402764Y-82411550D01*
X131349919Y-82454919D01*
X131306550Y-82507764D01*
X129434264Y-84380051D01*
X129381420Y-84423419D01*
X129338051Y-84476264D01*
X129338048Y-84476267D01*
X129208344Y-84634312D01*
X129079736Y-84874920D01*
X129000540Y-85135993D01*
X128973800Y-85407500D01*
X128980501Y-85475539D01*
X128980500Y-87055814D01*
X126068764Y-89967551D01*
X126015920Y-90010919D01*
X125972551Y-90063764D01*
X125972548Y-90063767D01*
X125842844Y-90221812D01*
X125714236Y-90462420D01*
X125635040Y-90723493D01*
X125608300Y-90995000D01*
X125615001Y-91063039D01*
X125615001Y-92148855D01*
X125560498Y-92250820D01*
X125524188Y-92370518D01*
X125511928Y-92495000D01*
X125511928Y-94195000D01*
X125524188Y-94319482D01*
X125560498Y-94439180D01*
X125615001Y-94541145D01*
X125615000Y-95348194D01*
X125572068Y-95451842D01*
X125515000Y-95738740D01*
X125515000Y-96031260D01*
X125572068Y-96318158D01*
X125615001Y-96421807D01*
X125615000Y-97888194D01*
X125572068Y-97991842D01*
X125515000Y-98278740D01*
X125515000Y-98571260D01*
X125572068Y-98858158D01*
X125684010Y-99128411D01*
X125846525Y-99371632D01*
X126053368Y-99578475D01*
X126190345Y-99670000D01*
X117986536Y-99670000D01*
X117991185Y-99666185D01*
X118070537Y-99569494D01*
X118129502Y-99459180D01*
X118165812Y-99339482D01*
X118178072Y-99215000D01*
X118175000Y-99013250D01*
X118016250Y-98854500D01*
X116967000Y-98854500D01*
X116967000Y-98874500D01*
X116713000Y-98874500D01*
X116713000Y-98854500D01*
X115663750Y-98854500D01*
X115505000Y-99013250D01*
X115501928Y-99215000D01*
X115514188Y-99339482D01*
X115550498Y-99459180D01*
X115609463Y-99569494D01*
X115688815Y-99666185D01*
X115693464Y-99670000D01*
X99445501Y-99670000D01*
X99470537Y-99639494D01*
X99529502Y-99529180D01*
X99565812Y-99409482D01*
X99578072Y-99285000D01*
X99575529Y-98486714D01*
X100042546Y-98953731D01*
X100085919Y-99006581D01*
X100296812Y-99179657D01*
X100493895Y-99285000D01*
X100537419Y-99308264D01*
X100798492Y-99387460D01*
X100824099Y-99389982D01*
X101001963Y-99407500D01*
X101001970Y-99407500D01*
X101069999Y-99414200D01*
X101138028Y-99407500D01*
X102938037Y-99407500D01*
X103141507Y-99387460D01*
X103402581Y-99308264D01*
X103561964Y-99223072D01*
X104320001Y-99223072D01*
X104493255Y-99206008D01*
X104659851Y-99155472D01*
X104813387Y-99073405D01*
X104947962Y-98962962D01*
X105058405Y-98828387D01*
X105140472Y-98674851D01*
X105191008Y-98508255D01*
X105208072Y-98335001D01*
X105208072Y-97709999D01*
X105191008Y-97536745D01*
X105140472Y-97370149D01*
X105058405Y-97216613D01*
X104947962Y-97082038D01*
X104813387Y-96971595D01*
X104659851Y-96889528D01*
X104493255Y-96838992D01*
X104320001Y-96821928D01*
X103561964Y-96821928D01*
X103402581Y-96736736D01*
X103141507Y-96657540D01*
X102938037Y-96637500D01*
X101715000Y-96637500D01*
X101715000Y-95644570D01*
X105955000Y-95644570D01*
X105955000Y-96045430D01*
X106033204Y-96438587D01*
X106186607Y-96808934D01*
X106409313Y-97142237D01*
X106692763Y-97425687D01*
X107026066Y-97648393D01*
X107396413Y-97801796D01*
X107789570Y-97880000D01*
X108190430Y-97880000D01*
X108583587Y-97801796D01*
X108953934Y-97648393D01*
X109205952Y-97480000D01*
X111774048Y-97480000D01*
X112026066Y-97648393D01*
X112396413Y-97801796D01*
X112789570Y-97880000D01*
X113190430Y-97880000D01*
X113583587Y-97801796D01*
X113953934Y-97648393D01*
X114287237Y-97425687D01*
X114570687Y-97142237D01*
X114793393Y-96808934D01*
X114946796Y-96438587D01*
X115025000Y-96045430D01*
X115025000Y-95644570D01*
X114946796Y-95251413D01*
X114862323Y-95047478D01*
X115567112Y-94342690D01*
X115518872Y-94501715D01*
X115501928Y-94673750D01*
X115501928Y-95161250D01*
X115518872Y-95333285D01*
X115569053Y-95498709D01*
X115650542Y-95651164D01*
X115760208Y-95784792D01*
X115882311Y-95885000D01*
X115760208Y-95985208D01*
X115650542Y-96118836D01*
X115569053Y-96271291D01*
X115518872Y-96436715D01*
X115501928Y-96608750D01*
X115501928Y-97096250D01*
X115518872Y-97268285D01*
X115569053Y-97433709D01*
X115650542Y-97586164D01*
X115760208Y-97719792D01*
X115766564Y-97725008D01*
X115688815Y-97788815D01*
X115609463Y-97885506D01*
X115550498Y-97995820D01*
X115514188Y-98115518D01*
X115501928Y-98240000D01*
X115505000Y-98441750D01*
X115663750Y-98600500D01*
X116713000Y-98600500D01*
X116713000Y-98580500D01*
X116967000Y-98580500D01*
X116967000Y-98600500D01*
X118016250Y-98600500D01*
X118175000Y-98441750D01*
X118178072Y-98240000D01*
X118165812Y-98115518D01*
X118129502Y-97995820D01*
X118070537Y-97885506D01*
X117991185Y-97788815D01*
X117913436Y-97725008D01*
X117919792Y-97719792D01*
X118029458Y-97586164D01*
X118110947Y-97433709D01*
X118161128Y-97268285D01*
X118178072Y-97096250D01*
X118178072Y-96608750D01*
X118161128Y-96436715D01*
X118110947Y-96271291D01*
X118029458Y-96118836D01*
X117919792Y-95985208D01*
X117797689Y-95885000D01*
X117919792Y-95784792D01*
X118018208Y-95664872D01*
X119685000Y-95664872D01*
X119685000Y-96105128D01*
X119770890Y-96536925D01*
X119939369Y-96943669D01*
X120183962Y-97309729D01*
X120495271Y-97621038D01*
X120861331Y-97865631D01*
X121268075Y-98034110D01*
X121699872Y-98120000D01*
X122140128Y-98120000D01*
X122571925Y-98034110D01*
X122978669Y-97865631D01*
X123344729Y-97621038D01*
X123656038Y-97309729D01*
X123900631Y-96943669D01*
X124069110Y-96536925D01*
X124155000Y-96105128D01*
X124155000Y-95664872D01*
X124069110Y-95233075D01*
X123900631Y-94826331D01*
X123656038Y-94460271D01*
X123344729Y-94148962D01*
X122978669Y-93904369D01*
X122571925Y-93735890D01*
X122140128Y-93650000D01*
X121699872Y-93650000D01*
X121268075Y-93735890D01*
X120861331Y-93904369D01*
X120495271Y-94148962D01*
X120183962Y-94460271D01*
X119939369Y-94826331D01*
X119770890Y-95233075D01*
X119685000Y-95664872D01*
X118018208Y-95664872D01*
X118029458Y-95651164D01*
X118110947Y-95498709D01*
X118161128Y-95333285D01*
X118178072Y-95161250D01*
X118178072Y-94673750D01*
X118161128Y-94501715D01*
X118110947Y-94336291D01*
X118029458Y-94183836D01*
X117919792Y-94050208D01*
X117834244Y-93980000D01*
X117919792Y-93909792D01*
X118029458Y-93776164D01*
X118110947Y-93623709D01*
X118161128Y-93458285D01*
X118178072Y-93286250D01*
X118178072Y-92798750D01*
X118176322Y-92780979D01*
X123398504Y-87558798D01*
X123427501Y-87535001D01*
X123522474Y-87419276D01*
X123593046Y-87287247D01*
X123636503Y-87143986D01*
X123647500Y-87032333D01*
X123647500Y-87032332D01*
X123651177Y-86995000D01*
X123647500Y-86957667D01*
X123647500Y-84352845D01*
X123754792Y-84264792D01*
X123825000Y-84179244D01*
X123895208Y-84264792D01*
X124028836Y-84374458D01*
X124181291Y-84455947D01*
X124346715Y-84506128D01*
X124518750Y-84523072D01*
X125006250Y-84523072D01*
X125178285Y-84506128D01*
X125343709Y-84455947D01*
X125496164Y-84374458D01*
X125629792Y-84264792D01*
X125739458Y-84131164D01*
X125820947Y-83978709D01*
X125833139Y-83938519D01*
X125878986Y-83934003D01*
X126022247Y-83890546D01*
X126154276Y-83819974D01*
X126270001Y-83725001D01*
X126293804Y-83695997D01*
X126633592Y-83356209D01*
X126853740Y-83400000D01*
X127146260Y-83400000D01*
X127433158Y-83342932D01*
X127703411Y-83230990D01*
X127946632Y-83068475D01*
X128153475Y-82861632D01*
X128271100Y-82685594D01*
X128442412Y-82915269D01*
X128658645Y-83110178D01*
X128908748Y-83259157D01*
X129183109Y-83356481D01*
X129413000Y-83235814D01*
X129413000Y-82042000D01*
X129667000Y-82042000D01*
X129667000Y-83235814D01*
X129896891Y-83356481D01*
X130171252Y-83259157D01*
X130421355Y-83110178D01*
X130637588Y-82915269D01*
X130811641Y-82681920D01*
X130936825Y-82419099D01*
X130981476Y-82271890D01*
X130860155Y-82042000D01*
X129667000Y-82042000D01*
X129413000Y-82042000D01*
X129393000Y-82042000D01*
X129393000Y-81788000D01*
X129413000Y-81788000D01*
X129413000Y-79502000D01*
X129667000Y-79502000D01*
X129667000Y-81788000D01*
X130860155Y-81788000D01*
X130981476Y-81558110D01*
X130936825Y-81410901D01*
X130811641Y-81148080D01*
X130637588Y-80914731D01*
X130421355Y-80719822D01*
X130295745Y-80645000D01*
X130421355Y-80570178D01*
X130637588Y-80375269D01*
X130811641Y-80141920D01*
X130936825Y-79879099D01*
X130981476Y-79731890D01*
X130860155Y-79502000D01*
X129667000Y-79502000D01*
X129413000Y-79502000D01*
X129393000Y-79502000D01*
X129393000Y-79248000D01*
X129413000Y-79248000D01*
X129413000Y-76962000D01*
X129667000Y-76962000D01*
X129667000Y-79248000D01*
X130860155Y-79248000D01*
X130981476Y-79018110D01*
X130936825Y-78870901D01*
X130811641Y-78608080D01*
X130637588Y-78374731D01*
X130421355Y-78179822D01*
X130295745Y-78105000D01*
X130421355Y-78030178D01*
X130637588Y-77835269D01*
X130811641Y-77601920D01*
X130936825Y-77339099D01*
X130981476Y-77191890D01*
X130860155Y-76962000D01*
X129667000Y-76962000D01*
X129413000Y-76962000D01*
X129393000Y-76962000D01*
X129393000Y-76708000D01*
X129413000Y-76708000D01*
X129413000Y-75514186D01*
X129667000Y-75514186D01*
X129667000Y-76708000D01*
X130860155Y-76708000D01*
X130981476Y-76478110D01*
X130936825Y-76330901D01*
X130811641Y-76068080D01*
X130637588Y-75834731D01*
X130421355Y-75639822D01*
X130171252Y-75490843D01*
X129896891Y-75393519D01*
X129667000Y-75514186D01*
X129413000Y-75514186D01*
X129183109Y-75393519D01*
X128908748Y-75490843D01*
X128658645Y-75639822D01*
X128462498Y-75816626D01*
X128439502Y-75740820D01*
X128380537Y-75630506D01*
X128301185Y-75533815D01*
X128204494Y-75454463D01*
X128094180Y-75395498D01*
X127974482Y-75359188D01*
X127850000Y-75346928D01*
X126150000Y-75346928D01*
X126025518Y-75359188D01*
X125905820Y-75395498D01*
X125888072Y-75404985D01*
X125888072Y-75108750D01*
X125871128Y-74936715D01*
X125820947Y-74771291D01*
X125739458Y-74618836D01*
X125629792Y-74485208D01*
X125522500Y-74397155D01*
X125522500Y-73872833D01*
X125526177Y-73835500D01*
X125511503Y-73686514D01*
X125468046Y-73543253D01*
X125449736Y-73508998D01*
X125397474Y-73411224D01*
X125302501Y-73295499D01*
X125273498Y-73271697D01*
X125023804Y-73022003D01*
X125000001Y-72992999D01*
X124884276Y-72898026D01*
X124752247Y-72827454D01*
X124608986Y-72783997D01*
X124497333Y-72773000D01*
X124497322Y-72773000D01*
X124460000Y-72769324D01*
X124422678Y-72773000D01*
X121322322Y-72773000D01*
X121284999Y-72769324D01*
X121247677Y-72773000D01*
X121247667Y-72773000D01*
X121136014Y-72783997D01*
X120992753Y-72827454D01*
X120860724Y-72898026D01*
X120744999Y-72992999D01*
X120721196Y-73022003D01*
X120441498Y-73301701D01*
X120412500Y-73325499D01*
X120388702Y-73354497D01*
X120388701Y-73354498D01*
X120317526Y-73441224D01*
X120246954Y-73573254D01*
X120228156Y-73635226D01*
X120203498Y-73716514D01*
X120201615Y-73735631D01*
X120188824Y-73865500D01*
X120192501Y-73902832D01*
X120192501Y-74397155D01*
X120085208Y-74485208D01*
X120079992Y-74491564D01*
X120016185Y-74413815D01*
X119919494Y-74334463D01*
X119809180Y-74275498D01*
X119689482Y-74239188D01*
X119565000Y-74226928D01*
X119363250Y-74230000D01*
X119204500Y-74388750D01*
X119204500Y-75438000D01*
X119224500Y-75438000D01*
X119224500Y-75692000D01*
X119204500Y-75692000D01*
X119204500Y-76741250D01*
X119363250Y-76900000D01*
X119565000Y-76903072D01*
X119689482Y-76890812D01*
X119809180Y-76854502D01*
X119919494Y-76795537D01*
X120016185Y-76716185D01*
X120079992Y-76638436D01*
X120085208Y-76644792D01*
X120218836Y-76754458D01*
X120371291Y-76835947D01*
X120536715Y-76886128D01*
X120708750Y-76903072D01*
X120904810Y-76903072D01*
X120871999Y-76929999D01*
X120848196Y-76959003D01*
X120441498Y-77365701D01*
X120412500Y-77389499D01*
X120388702Y-77418497D01*
X120388701Y-77418498D01*
X120317526Y-77505224D01*
X120246954Y-77637254D01*
X120235145Y-77676185D01*
X120203498Y-77780514D01*
X120198105Y-77835269D01*
X120188824Y-77929500D01*
X120192501Y-77966832D01*
X120192501Y-78207155D01*
X120085208Y-78295208D01*
X120079992Y-78301564D01*
X120016185Y-78223815D01*
X119919494Y-78144463D01*
X119809180Y-78085498D01*
X119689482Y-78049188D01*
X119565000Y-78036928D01*
X119363250Y-78040000D01*
X119204500Y-78198750D01*
X119204500Y-79248000D01*
X119224500Y-79248000D01*
X119224500Y-79502000D01*
X119204500Y-79502000D01*
X119204500Y-79522000D01*
X118950500Y-79522000D01*
X118950500Y-79502000D01*
X118113750Y-79502000D01*
X117955000Y-79660750D01*
X117951928Y-80075000D01*
X117964188Y-80199482D01*
X118000498Y-80319180D01*
X118059463Y-80429494D01*
X118138815Y-80526185D01*
X118235506Y-80605537D01*
X118345820Y-80664502D01*
X118465518Y-80700812D01*
X118590000Y-80713072D01*
X118791750Y-80710000D01*
X118950498Y-80551252D01*
X118950498Y-80710000D01*
X118997317Y-80710000D01*
X118980000Y-80797061D01*
X118980000Y-81000939D01*
X119019774Y-81200898D01*
X119097795Y-81389256D01*
X119211063Y-81558774D01*
X119355226Y-81702937D01*
X119524744Y-81816205D01*
X119609495Y-81851310D01*
X119565000Y-81846928D01*
X119363250Y-81850000D01*
X119204500Y-82008750D01*
X119204500Y-83058000D01*
X119224500Y-83058000D01*
X119224500Y-83312000D01*
X119204500Y-83312000D01*
X119204500Y-84361250D01*
X119363250Y-84520000D01*
X119565000Y-84523072D01*
X119689482Y-84510812D01*
X119809180Y-84474502D01*
X119919494Y-84415537D01*
X120016185Y-84336185D01*
X120079992Y-84258436D01*
X120085208Y-84264792D01*
X120218836Y-84374458D01*
X120371291Y-84455947D01*
X120536715Y-84506128D01*
X120708750Y-84523072D01*
X121196250Y-84523072D01*
X121368285Y-84506128D01*
X121533709Y-84455947D01*
X121686164Y-84374458D01*
X121819792Y-84264792D01*
X121920000Y-84142689D01*
X122020208Y-84264792D01*
X122127501Y-84352845D01*
X122127500Y-86680198D01*
X116890771Y-91916928D01*
X116383750Y-91916928D01*
X116211715Y-91933872D01*
X116046291Y-91984053D01*
X115893836Y-92065542D01*
X115760208Y-92175208D01*
X115664855Y-92291395D01*
X115643514Y-92293497D01*
X115500253Y-92336954D01*
X115368224Y-92407526D01*
X115252499Y-92502499D01*
X115228701Y-92531497D01*
X113787522Y-93972677D01*
X113583587Y-93888204D01*
X113190430Y-93810000D01*
X112789570Y-93810000D01*
X112396413Y-93888204D01*
X112026066Y-94041607D01*
X111774048Y-94210000D01*
X109205952Y-94210000D01*
X108953934Y-94041607D01*
X108583587Y-93888204D01*
X108190430Y-93810000D01*
X107789570Y-93810000D01*
X107396413Y-93888204D01*
X107026066Y-94041607D01*
X106692763Y-94264313D01*
X106409313Y-94547763D01*
X106186607Y-94881066D01*
X106033204Y-95251413D01*
X105955000Y-95644570D01*
X101715000Y-95644570D01*
X101715000Y-95318037D01*
X101721701Y-95250000D01*
X101694960Y-94978493D01*
X101685732Y-94948072D01*
X101755635Y-94948072D01*
X101957248Y-95113531D01*
X102241285Y-95265352D01*
X102549484Y-95358843D01*
X102870000Y-95390411D01*
X103190515Y-95358843D01*
X103498714Y-95265352D01*
X103782751Y-95113531D01*
X103984365Y-94948072D01*
X104320001Y-94948072D01*
X104493255Y-94931008D01*
X104659851Y-94880472D01*
X104813387Y-94798405D01*
X104947962Y-94687962D01*
X105058405Y-94553387D01*
X105140472Y-94399851D01*
X105191008Y-94233255D01*
X105208072Y-94060001D01*
X105208072Y-93434999D01*
X105191008Y-93261745D01*
X105140472Y-93095149D01*
X105058405Y-92941613D01*
X104947962Y-92807038D01*
X104813387Y-92696595D01*
X104659851Y-92614528D01*
X104505000Y-92567555D01*
X104505000Y-91482238D01*
X105239319Y-90747919D01*
X105301714Y-90696714D01*
X105506031Y-90447752D01*
X105657852Y-90163715D01*
X105751343Y-89855516D01*
X105775000Y-89615322D01*
X105775000Y-89615320D01*
X105782911Y-89535001D01*
X105775000Y-89454681D01*
X105775000Y-87973072D01*
X106040000Y-87973072D01*
X106164482Y-87960812D01*
X106284180Y-87924502D01*
X106394494Y-87865537D01*
X106491185Y-87786185D01*
X106555001Y-87708425D01*
X106555001Y-88196288D01*
X106511063Y-88240226D01*
X106397795Y-88409744D01*
X106319774Y-88598102D01*
X106280000Y-88798061D01*
X106280000Y-89001939D01*
X106319774Y-89201898D01*
X106397795Y-89390256D01*
X106511063Y-89559774D01*
X106655226Y-89703937D01*
X106824744Y-89817205D01*
X107013102Y-89895226D01*
X107213061Y-89935000D01*
X107416939Y-89935000D01*
X107616898Y-89895226D01*
X107805256Y-89817205D01*
X107974774Y-89703937D01*
X108118937Y-89559774D01*
X108232205Y-89390256D01*
X108310226Y-89201898D01*
X108350000Y-89001939D01*
X108350000Y-88798061D01*
X108310226Y-88598102D01*
X108232205Y-88409744D01*
X108118937Y-88240226D01*
X108075000Y-88196289D01*
X108075000Y-87150000D01*
X109151928Y-87150000D01*
X109164188Y-87274482D01*
X109200498Y-87394180D01*
X109259463Y-87504494D01*
X109338815Y-87601185D01*
X109435506Y-87680537D01*
X109545820Y-87739502D01*
X109665518Y-87775812D01*
X109790000Y-87788072D01*
X110204250Y-87785000D01*
X110363000Y-87626250D01*
X110363000Y-86789500D01*
X109313750Y-86789500D01*
X109155000Y-86948250D01*
X109151928Y-87150000D01*
X108075000Y-87150000D01*
X108075000Y-84492323D01*
X108078676Y-84455000D01*
X108075000Y-84417677D01*
X108075000Y-84417667D01*
X108064003Y-84306014D01*
X108020546Y-84162753D01*
X107949974Y-84030724D01*
X107855001Y-83914999D01*
X107826004Y-83891202D01*
X107200000Y-83265199D01*
X107200000Y-81672087D01*
X107314482Y-81660812D01*
X107434180Y-81624502D01*
X107544494Y-81565537D01*
X107641185Y-81486185D01*
X107720537Y-81389494D01*
X107779502Y-81279180D01*
X107815812Y-81159482D01*
X107828072Y-81035000D01*
X107828072Y-79035000D01*
X107815812Y-78910518D01*
X107779502Y-78790820D01*
X107720537Y-78680506D01*
X107716370Y-78675428D01*
X107759792Y-78639792D01*
X107869458Y-78506164D01*
X107950947Y-78353709D01*
X108001128Y-78188285D01*
X108018072Y-78016250D01*
X108018072Y-77528750D01*
X108001128Y-77356715D01*
X107950947Y-77191291D01*
X107869458Y-77038836D01*
X107759792Y-76905208D01*
X107753436Y-76899992D01*
X107831185Y-76836185D01*
X107910537Y-76739494D01*
X107969502Y-76629180D01*
X108005812Y-76509482D01*
X108018072Y-76385000D01*
X108015000Y-76183250D01*
X107856250Y-76024500D01*
X106807000Y-76024500D01*
X106807000Y-76044500D01*
X106553000Y-76044500D01*
X106553000Y-76024500D01*
X106533000Y-76024500D01*
X106533000Y-75770500D01*
X106553000Y-75770500D01*
X106553000Y-74933750D01*
X106807000Y-74933750D01*
X106807000Y-75770500D01*
X107856250Y-75770500D01*
X108015000Y-75611750D01*
X108018072Y-75410000D01*
X108005812Y-75285518D01*
X107969502Y-75165820D01*
X107910537Y-75055506D01*
X107831185Y-74958815D01*
X107734494Y-74879463D01*
X107624180Y-74820498D01*
X107504482Y-74784188D01*
X107380000Y-74771928D01*
X106965750Y-74775000D01*
X106807000Y-74933750D01*
X106553000Y-74933750D01*
X106394250Y-74775000D01*
X105980000Y-74771928D01*
X105855518Y-74784188D01*
X105735820Y-74820498D01*
X105625506Y-74879463D01*
X105528815Y-74958815D01*
X105449463Y-75055506D01*
X105390498Y-75165820D01*
X105354188Y-75285518D01*
X105346634Y-75362220D01*
X105332501Y-75344999D01*
X105216776Y-75250026D01*
X105084747Y-75179454D01*
X104941486Y-75135997D01*
X104829833Y-75125000D01*
X104829822Y-75125000D01*
X104792500Y-75121324D01*
X104755178Y-75125000D01*
X102965038Y-75125000D01*
X102939502Y-75040820D01*
X102880537Y-74930506D01*
X102801185Y-74833815D01*
X102704494Y-74754463D01*
X102594180Y-74695498D01*
X102474482Y-74659188D01*
X102350000Y-74646928D01*
X100850000Y-74646928D01*
X100725518Y-74659188D01*
X100605820Y-74695498D01*
X100495506Y-74754463D01*
X100398815Y-74833815D01*
X100319463Y-74930506D01*
X100260498Y-75040820D01*
X100224188Y-75160518D01*
X100211928Y-75285000D01*
X100211928Y-76485000D01*
X100224188Y-76609482D01*
X100260498Y-76729180D01*
X100317061Y-76835000D01*
X100260498Y-76940820D01*
X100224188Y-77060518D01*
X100211928Y-77185000D01*
X100211928Y-78385000D01*
X100224188Y-78509482D01*
X100259230Y-78625000D01*
X99810000Y-78625000D01*
X99810000Y-73016746D01*
X99819482Y-73015812D01*
X99939180Y-72979502D01*
X100049494Y-72920537D01*
X100146185Y-72841185D01*
X100225537Y-72744494D01*
X100284502Y-72634180D01*
X100320812Y-72514482D01*
X100333072Y-72390000D01*
X100333072Y-69850000D01*
X100320812Y-69725518D01*
X100284502Y-69605820D01*
X100225537Y-69495506D01*
X100146185Y-69398815D01*
X100049494Y-69319463D01*
X99939180Y-69260498D01*
X99819482Y-69224188D01*
X99695000Y-69211928D01*
X97155000Y-69211928D01*
X97030518Y-69224188D01*
X96910820Y-69260498D01*
X96800506Y-69319463D01*
X96703815Y-69398815D01*
X96624463Y-69495506D01*
X96565498Y-69605820D01*
X96529188Y-69725518D01*
X96516928Y-69850000D01*
X96516928Y-72390000D01*
X96529188Y-72514482D01*
X96565498Y-72634180D01*
X96624463Y-72744494D01*
X96703815Y-72841185D01*
X96800506Y-72920537D01*
X96910820Y-72979502D01*
X97030518Y-73015812D01*
X97040001Y-73016746D01*
X97040000Y-78801963D01*
X97040000Y-79139877D01*
X96976082Y-79235537D01*
X96852832Y-79533088D01*
X96790000Y-79848967D01*
X96790000Y-80171033D01*
X96852832Y-80486912D01*
X96976082Y-80784463D01*
X97155013Y-81052252D01*
X97382748Y-81279987D01*
X97650537Y-81458918D01*
X97948088Y-81582168D01*
X98263967Y-81645000D01*
X98586033Y-81645000D01*
X98901912Y-81582168D01*
X99199463Y-81458918D01*
X99295123Y-81395000D01*
X100563982Y-81395000D01*
X100638815Y-81486185D01*
X100735506Y-81565537D01*
X100845820Y-81624502D01*
X100965518Y-81660812D01*
X101090000Y-81673072D01*
X102590000Y-81673072D01*
X102714482Y-81660812D01*
X102755000Y-81648521D01*
X102755000Y-82949877D01*
X102691082Y-83045537D01*
X102567832Y-83343088D01*
X102505000Y-83658967D01*
X102505000Y-83981033D01*
X102567832Y-84296912D01*
X102691082Y-84594463D01*
X102755001Y-84690124D01*
X102755001Y-84696928D01*
X102240000Y-84696928D01*
X102115518Y-84709188D01*
X101995820Y-84745498D01*
X101885506Y-84804463D01*
X101788815Y-84883815D01*
X101709463Y-84980506D01*
X101650498Y-85090820D01*
X101614188Y-85210518D01*
X101601928Y-85335000D01*
X101601928Y-87335000D01*
X101614188Y-87459482D01*
X101650498Y-87579180D01*
X101709463Y-87689494D01*
X101788815Y-87786185D01*
X101885506Y-87865537D01*
X101995820Y-87924502D01*
X102115518Y-87960812D01*
X102240000Y-87973072D01*
X102505000Y-87973072D01*
X102505000Y-88857761D01*
X101770682Y-89592080D01*
X101708287Y-89643286D01*
X101565556Y-89817205D01*
X101503970Y-89892248D01*
X101352148Y-90176286D01*
X101258658Y-90484484D01*
X101227089Y-90805000D01*
X101235001Y-90885329D01*
X101235000Y-92567555D01*
X101080149Y-92614528D01*
X100926613Y-92696595D01*
X100792038Y-92807038D01*
X100681595Y-92941613D01*
X100599528Y-93095149D01*
X100548992Y-93261745D01*
X100531928Y-93434999D01*
X100531928Y-93493243D01*
X99842454Y-92803769D01*
X99799081Y-92750919D01*
X99588188Y-92577843D01*
X99578072Y-92572436D01*
X99578072Y-92485000D01*
X99565812Y-92360518D01*
X99529502Y-92240820D01*
X99470537Y-92130506D01*
X99391185Y-92033815D01*
X99294494Y-91954463D01*
X99184180Y-91895498D01*
X99064482Y-91859188D01*
X98940000Y-91846928D01*
X98314168Y-91846928D01*
X96695092Y-90227852D01*
X97276753Y-90227852D01*
X97405076Y-90519871D01*
X97740695Y-90687723D01*
X98102611Y-90786874D01*
X98476916Y-90813514D01*
X98849227Y-90766618D01*
X99205235Y-90647988D01*
X99444924Y-90519871D01*
X99573247Y-90227852D01*
X98425000Y-89079605D01*
X97276753Y-90227852D01*
X96695092Y-90227852D01*
X95419155Y-88951916D01*
X96511486Y-88951916D01*
X96558382Y-89324227D01*
X96677012Y-89680235D01*
X96805129Y-89919924D01*
X97097148Y-90048247D01*
X98245395Y-88900000D01*
X98604605Y-88900000D01*
X99752852Y-90048247D01*
X100044871Y-89919924D01*
X100212723Y-89584305D01*
X100311874Y-89222389D01*
X100338514Y-88848084D01*
X100291618Y-88475773D01*
X100172988Y-88119765D01*
X100044871Y-87880076D01*
X99752852Y-87751753D01*
X98604605Y-88900000D01*
X98245395Y-88900000D01*
X97097148Y-87751753D01*
X96805129Y-87880076D01*
X96637277Y-88215695D01*
X96538126Y-88577611D01*
X96511486Y-88951916D01*
X95419155Y-88951916D01*
X94902925Y-88435687D01*
X94851714Y-88373286D01*
X94602752Y-88168969D01*
X94318715Y-88017148D01*
X94010516Y-87923657D01*
X93770322Y-87900000D01*
X93770319Y-87900000D01*
X93690000Y-87892089D01*
X93609681Y-87900000D01*
X92102924Y-87900000D01*
X92345687Y-87657237D01*
X92402541Y-87572148D01*
X97276753Y-87572148D01*
X98425000Y-88720395D01*
X99573247Y-87572148D01*
X99444924Y-87280129D01*
X99109305Y-87112277D01*
X98747389Y-87013126D01*
X98373084Y-86986486D01*
X98000773Y-87033382D01*
X97644765Y-87152012D01*
X97405076Y-87280129D01*
X97276753Y-87572148D01*
X92402541Y-87572148D01*
X92568393Y-87323934D01*
X92721796Y-86953587D01*
X92800000Y-86560430D01*
X92800000Y-86159570D01*
X92721796Y-85766413D01*
X92568393Y-85396066D01*
X92345687Y-85062763D01*
X92062237Y-84779313D01*
X91728934Y-84556607D01*
X91358587Y-84403204D01*
X90965430Y-84325000D01*
X90564570Y-84325000D01*
X90171413Y-84403204D01*
X89900000Y-84515627D01*
X89900000Y-81390447D01*
X90199158Y-81390447D01*
X90343135Y-81695770D01*
X90700892Y-81876597D01*
X91087053Y-81984155D01*
X91486777Y-82014310D01*
X91884704Y-81965904D01*
X92265540Y-81840795D01*
X92536865Y-81695770D01*
X92680842Y-81390447D01*
X91440000Y-80149605D01*
X90199158Y-81390447D01*
X89900000Y-81390447D01*
X89900000Y-81154466D01*
X90019553Y-81210842D01*
X91260395Y-79970000D01*
X91619605Y-79970000D01*
X92860447Y-81210842D01*
X93165770Y-81066865D01*
X93346597Y-80709108D01*
X93454155Y-80322947D01*
X93484310Y-79923223D01*
X93435904Y-79525296D01*
X93310795Y-79144460D01*
X93165770Y-78873135D01*
X92860447Y-78729158D01*
X91619605Y-79970000D01*
X91260395Y-79970000D01*
X90019553Y-78729158D01*
X89900000Y-78785534D01*
X89900000Y-78549553D01*
X90199158Y-78549553D01*
X91440000Y-79790395D01*
X92680842Y-78549553D01*
X92536865Y-78244230D01*
X92179108Y-78063403D01*
X91792947Y-77955845D01*
X91393223Y-77925690D01*
X90995296Y-77974096D01*
X90614460Y-78099205D01*
X90343135Y-78244230D01*
X90199158Y-78549553D01*
X89900000Y-78549553D01*
X89900000Y-76390447D01*
X90199158Y-76390447D01*
X90343135Y-76695770D01*
X90700892Y-76876597D01*
X91087053Y-76984155D01*
X91486777Y-77014310D01*
X91884704Y-76965904D01*
X92265540Y-76840795D01*
X92536865Y-76695770D01*
X92680842Y-76390447D01*
X91440000Y-75149605D01*
X90199158Y-76390447D01*
X89900000Y-76390447D01*
X89900000Y-76154466D01*
X90019553Y-76210842D01*
X91260395Y-74970000D01*
X91619605Y-74970000D01*
X92860447Y-76210842D01*
X93165770Y-76066865D01*
X93346597Y-75709108D01*
X93454155Y-75322947D01*
X93484310Y-74923223D01*
X93435904Y-74525296D01*
X93310795Y-74144460D01*
X93165770Y-73873135D01*
X92860447Y-73729158D01*
X91619605Y-74970000D01*
X91260395Y-74970000D01*
X90019553Y-73729158D01*
X89900000Y-73785534D01*
X89900000Y-73549553D01*
X90199158Y-73549553D01*
X91440000Y-74790395D01*
X92680842Y-73549553D01*
X92536865Y-73244230D01*
X92179108Y-73063403D01*
X91792947Y-72955845D01*
X91393223Y-72925690D01*
X90995296Y-72974096D01*
X90614460Y-73099205D01*
X90343135Y-73244230D01*
X90199158Y-73549553D01*
X89900000Y-73549553D01*
X89900000Y-67535000D01*
X96001928Y-67535000D01*
X96014188Y-67659482D01*
X96050498Y-67779180D01*
X96109463Y-67889494D01*
X96188815Y-67986185D01*
X96285506Y-68065537D01*
X96395820Y-68124502D01*
X96515518Y-68160812D01*
X96640000Y-68173072D01*
X97504250Y-68170000D01*
X97663000Y-68011250D01*
X97663000Y-66412000D01*
X97917000Y-66412000D01*
X97917000Y-68011250D01*
X98075750Y-68170000D01*
X98940000Y-68173072D01*
X99064482Y-68160812D01*
X99184180Y-68124502D01*
X99294494Y-68065537D01*
X99391185Y-67986185D01*
X99470537Y-67889494D01*
X99529502Y-67779180D01*
X99565812Y-67659482D01*
X99578072Y-67535000D01*
X99575000Y-66570750D01*
X99416250Y-66412000D01*
X97917000Y-66412000D01*
X97663000Y-66412000D01*
X96163750Y-66412000D01*
X96005000Y-66570750D01*
X96001928Y-67535000D01*
X89900000Y-67535000D01*
X89900000Y-66717238D01*
X91582239Y-65035000D01*
X96001928Y-65035000D01*
X96005000Y-65999250D01*
X96163750Y-66158000D01*
X97663000Y-66158000D01*
X97663000Y-64558750D01*
X97917000Y-64558750D01*
X97917000Y-66158000D01*
X99416250Y-66158000D01*
X99575000Y-65999250D01*
X99575125Y-65959999D01*
X100531928Y-65959999D01*
X100531928Y-66585001D01*
X100548992Y-66758255D01*
X100599528Y-66924851D01*
X100681595Y-67078387D01*
X100792038Y-67212962D01*
X100926613Y-67323405D01*
X101080149Y-67405472D01*
X101235000Y-67452445D01*
X101235000Y-67864681D01*
X101227089Y-67945000D01*
X101235000Y-68025319D01*
X101235000Y-68025321D01*
X101258657Y-68265515D01*
X101352148Y-68573714D01*
X101503969Y-68857751D01*
X101708286Y-69106714D01*
X101770686Y-69157924D01*
X102292079Y-69679318D01*
X102343286Y-69741714D01*
X102411464Y-69797666D01*
X102080271Y-70018962D01*
X101768962Y-70330271D01*
X101524369Y-70696331D01*
X101355890Y-71103075D01*
X101270000Y-71534872D01*
X101270000Y-71975128D01*
X101355890Y-72406925D01*
X101524369Y-72813669D01*
X101768962Y-73179729D01*
X102080271Y-73491038D01*
X102446331Y-73735631D01*
X102853075Y-73904110D01*
X103284872Y-73990000D01*
X103725128Y-73990000D01*
X104156925Y-73904110D01*
X104563669Y-73735631D01*
X104929729Y-73491038D01*
X105241038Y-73179729D01*
X105485631Y-72813669D01*
X105654110Y-72406925D01*
X105740000Y-71975128D01*
X105740000Y-71534872D01*
X105654110Y-71103075D01*
X105485631Y-70696331D01*
X105241038Y-70330271D01*
X105125767Y-70215000D01*
X107707762Y-70215000D01*
X110792986Y-73300225D01*
X110791898Y-73299774D01*
X110591939Y-73260000D01*
X110388061Y-73260000D01*
X110188102Y-73299774D01*
X109999744Y-73377795D01*
X109830226Y-73491063D01*
X109686063Y-73635226D01*
X109572795Y-73804744D01*
X109494774Y-73993102D01*
X109455000Y-74193061D01*
X109455000Y-74255198D01*
X108708998Y-75001201D01*
X108680000Y-75024999D01*
X108656202Y-75053997D01*
X108656201Y-75053998D01*
X108585026Y-75140724D01*
X108514454Y-75272754D01*
X108488236Y-75359188D01*
X108471396Y-75414704D01*
X108470998Y-75416015D01*
X108456324Y-75565000D01*
X108460001Y-75602332D01*
X108460000Y-78702677D01*
X108456324Y-78740000D01*
X108460000Y-78777322D01*
X108460000Y-78777332D01*
X108470997Y-78888985D01*
X108496938Y-78974502D01*
X108514454Y-79032246D01*
X108585026Y-79164276D01*
X108624871Y-79212826D01*
X108679999Y-79280001D01*
X108709002Y-79303803D01*
X109970001Y-80564804D01*
X109970001Y-80887913D01*
X109855518Y-80899188D01*
X109735820Y-80935498D01*
X109625506Y-80994463D01*
X109528815Y-81073815D01*
X109449463Y-81170506D01*
X109390498Y-81280820D01*
X109354188Y-81400518D01*
X109341928Y-81525000D01*
X109341928Y-83525000D01*
X109354188Y-83649482D01*
X109390498Y-83769180D01*
X109449463Y-83879494D01*
X109453630Y-83884572D01*
X109410208Y-83920208D01*
X109300542Y-84053836D01*
X109219053Y-84206291D01*
X109168872Y-84371715D01*
X109151928Y-84543750D01*
X109151928Y-85031250D01*
X109168872Y-85203285D01*
X109219053Y-85368709D01*
X109300542Y-85521164D01*
X109410208Y-85654792D01*
X109416564Y-85660008D01*
X109338815Y-85723815D01*
X109259463Y-85820506D01*
X109200498Y-85930820D01*
X109164188Y-86050518D01*
X109151928Y-86175000D01*
X109155000Y-86376750D01*
X109313750Y-86535500D01*
X110363000Y-86535500D01*
X110363000Y-86515500D01*
X110617000Y-86515500D01*
X110617000Y-86535500D01*
X110637000Y-86535500D01*
X110637000Y-86789500D01*
X110617000Y-86789500D01*
X110617000Y-87626250D01*
X110775750Y-87785000D01*
X111190000Y-87788072D01*
X111314482Y-87775812D01*
X111434180Y-87739502D01*
X111544494Y-87680537D01*
X111641185Y-87601185D01*
X111720537Y-87504494D01*
X111779502Y-87394180D01*
X111815812Y-87274482D01*
X111823366Y-87197780D01*
X111837499Y-87215001D01*
X111866497Y-87238799D01*
X111953223Y-87309974D01*
X112085253Y-87380546D01*
X112228514Y-87424003D01*
X112340167Y-87435000D01*
X112340176Y-87435000D01*
X112377499Y-87438676D01*
X112414822Y-87435000D01*
X114204962Y-87435000D01*
X114230498Y-87519180D01*
X114289463Y-87629494D01*
X114368815Y-87726185D01*
X114465506Y-87805537D01*
X114575820Y-87864502D01*
X114695518Y-87900812D01*
X114820000Y-87913072D01*
X116320000Y-87913072D01*
X116444482Y-87900812D01*
X116564180Y-87864502D01*
X116674494Y-87805537D01*
X116771185Y-87726185D01*
X116850537Y-87629494D01*
X116909502Y-87519180D01*
X116945812Y-87399482D01*
X116958072Y-87275000D01*
X116958072Y-86075000D01*
X116945812Y-85950518D01*
X116909502Y-85830820D01*
X116852939Y-85725000D01*
X116909502Y-85619180D01*
X116945812Y-85499482D01*
X116958072Y-85375000D01*
X116958072Y-84175000D01*
X116945812Y-84050518D01*
X116909502Y-83930820D01*
X116850537Y-83820506D01*
X116771185Y-83723815D01*
X116700788Y-83666042D01*
X116705812Y-83649482D01*
X116718072Y-83525000D01*
X116718072Y-83458738D01*
X116730744Y-83467205D01*
X116919102Y-83545226D01*
X117119061Y-83585000D01*
X117322939Y-83585000D01*
X117522898Y-83545226D01*
X117711256Y-83467205D01*
X117880774Y-83353937D01*
X117955000Y-83279711D01*
X117955000Y-83312002D01*
X118113748Y-83312002D01*
X117955000Y-83470750D01*
X117951928Y-83885000D01*
X117964188Y-84009482D01*
X118000498Y-84129180D01*
X118059463Y-84239494D01*
X118138815Y-84336185D01*
X118235506Y-84415537D01*
X118345820Y-84474502D01*
X118465518Y-84510812D01*
X118590000Y-84523072D01*
X118791750Y-84520000D01*
X118950500Y-84361250D01*
X118950500Y-83312000D01*
X118930500Y-83312000D01*
X118930500Y-83058000D01*
X118950500Y-83058000D01*
X118950500Y-82008750D01*
X118791750Y-81850000D01*
X118590000Y-81846928D01*
X118465518Y-81859188D01*
X118345820Y-81895498D01*
X118235506Y-81954463D01*
X118138815Y-82033815D01*
X118128929Y-82045861D01*
X118024937Y-81890226D01*
X117880774Y-81746063D01*
X117711256Y-81632795D01*
X117522898Y-81554774D01*
X117322939Y-81515000D01*
X117119061Y-81515000D01*
X116919102Y-81554774D01*
X116730744Y-81632795D01*
X116718072Y-81641262D01*
X116718072Y-81525000D01*
X116715000Y-81493808D01*
X116715000Y-80598685D01*
X117136235Y-80177450D01*
X117189080Y-80134081D01*
X117233016Y-80080546D01*
X117362157Y-79923188D01*
X117490764Y-79682581D01*
X117569960Y-79421507D01*
X117574401Y-79376413D01*
X117590000Y-79218037D01*
X117590000Y-79218029D01*
X117596700Y-79150000D01*
X117590000Y-79081971D01*
X117590000Y-78675000D01*
X117951928Y-78675000D01*
X117955000Y-79089250D01*
X118113750Y-79248000D01*
X118950500Y-79248000D01*
X118950500Y-78198750D01*
X118791750Y-78040000D01*
X118590000Y-78036928D01*
X118465518Y-78049188D01*
X118345820Y-78085498D01*
X118235506Y-78144463D01*
X118138815Y-78223815D01*
X118059463Y-78320506D01*
X118000498Y-78430820D01*
X117964188Y-78550518D01*
X117951928Y-78675000D01*
X117590000Y-78675000D01*
X117590000Y-76265000D01*
X117951928Y-76265000D01*
X117964188Y-76389482D01*
X118000498Y-76509180D01*
X118059463Y-76619494D01*
X118138815Y-76716185D01*
X118235506Y-76795537D01*
X118345820Y-76854502D01*
X118465518Y-76890812D01*
X118590000Y-76903072D01*
X118791750Y-76900000D01*
X118950500Y-76741250D01*
X118950500Y-75692000D01*
X118113750Y-75692000D01*
X117955000Y-75850750D01*
X117951928Y-76265000D01*
X117590000Y-76265000D01*
X117590000Y-74865000D01*
X117951928Y-74865000D01*
X117955000Y-75279250D01*
X118113750Y-75438000D01*
X118950500Y-75438000D01*
X118950500Y-74388750D01*
X118791750Y-74230000D01*
X118590000Y-74226928D01*
X118465518Y-74239188D01*
X118345820Y-74275498D01*
X118235506Y-74334463D01*
X118138815Y-74413815D01*
X118059463Y-74510506D01*
X118000498Y-74620820D01*
X117964188Y-74740518D01*
X117951928Y-74865000D01*
X117590000Y-74865000D01*
X117590000Y-74190123D01*
X117653918Y-74094463D01*
X117777168Y-73796912D01*
X117840000Y-73481033D01*
X117840000Y-73158967D01*
X117777168Y-72843088D01*
X117653918Y-72545537D01*
X117474987Y-72277748D01*
X117247252Y-72050013D01*
X117070792Y-71932106D01*
X114375000Y-69236315D01*
X114375000Y-65627924D01*
X114429001Y-65573923D01*
X114429001Y-66383668D01*
X114425324Y-66421000D01*
X114429001Y-66458333D01*
X114439184Y-66561716D01*
X114439998Y-66569985D01*
X114483454Y-66713246D01*
X114554026Y-66845276D01*
X114593193Y-66893000D01*
X114649000Y-66961001D01*
X114677998Y-66984799D01*
X115181701Y-67488503D01*
X115205500Y-67517502D01*
X115321225Y-67612475D01*
X115453254Y-67683047D01*
X115596515Y-67726504D01*
X115668989Y-67733642D01*
X115760208Y-67844793D01*
X115893836Y-67954459D01*
X116046291Y-68035948D01*
X116211715Y-68086129D01*
X116383750Y-68103073D01*
X117296250Y-68103073D01*
X117468285Y-68086129D01*
X117633709Y-68035948D01*
X117786164Y-67954459D01*
X117919792Y-67844793D01*
X118029458Y-67711165D01*
X118110947Y-67558710D01*
X118161128Y-67393286D01*
X118178072Y-67221251D01*
X118178072Y-66733751D01*
X118161128Y-66561716D01*
X118110947Y-66396292D01*
X118029458Y-66243837D01*
X117919792Y-66110209D01*
X117834244Y-66040001D01*
X117919792Y-65969793D01*
X118029458Y-65836165D01*
X118110947Y-65683710D01*
X118161128Y-65518286D01*
X118178072Y-65346251D01*
X118178072Y-64858751D01*
X118161128Y-64686716D01*
X118110947Y-64521292D01*
X118029458Y-64368837D01*
X117919792Y-64235209D01*
X117797688Y-64135000D01*
X117919792Y-64034792D01*
X118018208Y-63914872D01*
X119685000Y-63914872D01*
X119685000Y-64355128D01*
X119770890Y-64786925D01*
X119939369Y-65193669D01*
X120183962Y-65559729D01*
X120495271Y-65871038D01*
X120861331Y-66115631D01*
X121268075Y-66284110D01*
X121699872Y-66370000D01*
X122140128Y-66370000D01*
X122571925Y-66284110D01*
X122978669Y-66115631D01*
X123344729Y-65871038D01*
X123656038Y-65559729D01*
X123900631Y-65193669D01*
X124069110Y-64786925D01*
X124155000Y-64355128D01*
X124155000Y-63914872D01*
X124069110Y-63483075D01*
X123900631Y-63076331D01*
X123656038Y-62710271D01*
X123344729Y-62398962D01*
X122978669Y-62154369D01*
X122571925Y-61985890D01*
X122140128Y-61900000D01*
X121699872Y-61900000D01*
X121268075Y-61985890D01*
X120861331Y-62154369D01*
X120495271Y-62398962D01*
X120183962Y-62710271D01*
X119939369Y-63076331D01*
X119770890Y-63483075D01*
X119685000Y-63914872D01*
X118018208Y-63914872D01*
X118029458Y-63901164D01*
X118110947Y-63748709D01*
X118161128Y-63583285D01*
X118178072Y-63411250D01*
X118178072Y-62923750D01*
X118161128Y-62751715D01*
X118110947Y-62586291D01*
X118029458Y-62433836D01*
X117919792Y-62300208D01*
X117913436Y-62294992D01*
X117991185Y-62231185D01*
X118070537Y-62134494D01*
X118129502Y-62024180D01*
X118165812Y-61904482D01*
X118178072Y-61780000D01*
X118175000Y-61578250D01*
X118016250Y-61419500D01*
X116967000Y-61419500D01*
X116967000Y-61439500D01*
X116713000Y-61439500D01*
X116713000Y-61419500D01*
X115663750Y-61419500D01*
X115505000Y-61578250D01*
X115501928Y-61780000D01*
X115514188Y-61904482D01*
X115550498Y-62024180D01*
X115609463Y-62134494D01*
X115688815Y-62231185D01*
X115766564Y-62294992D01*
X115760208Y-62300208D01*
X115650542Y-62433836D01*
X115569053Y-62586291D01*
X115518872Y-62751715D01*
X115501928Y-62923750D01*
X115501928Y-63411250D01*
X115518872Y-63583285D01*
X115529771Y-63619213D01*
X115509899Y-63594999D01*
X115394174Y-63500026D01*
X115262145Y-63429454D01*
X115118884Y-63385997D01*
X115007231Y-63375000D01*
X115007220Y-63375000D01*
X114969898Y-63371324D01*
X114932576Y-63375000D01*
X114877865Y-63375000D01*
X114793393Y-63171066D01*
X114570687Y-62837763D01*
X114287237Y-62554313D01*
X113953934Y-62331607D01*
X113583587Y-62178204D01*
X113190430Y-62100000D01*
X112789570Y-62100000D01*
X112396413Y-62178204D01*
X112026066Y-62331607D01*
X111774048Y-62500000D01*
X109205952Y-62500000D01*
X108953934Y-62331607D01*
X108583587Y-62178204D01*
X108190430Y-62100000D01*
X107789570Y-62100000D01*
X107396413Y-62178204D01*
X107026066Y-62331607D01*
X106692763Y-62554313D01*
X106409313Y-62837763D01*
X106186607Y-63171066D01*
X106033204Y-63541413D01*
X105955000Y-63934570D01*
X105955000Y-64335430D01*
X106033204Y-64728587D01*
X106186607Y-65098934D01*
X106409313Y-65432237D01*
X106692763Y-65715687D01*
X107026066Y-65938393D01*
X107396413Y-66091796D01*
X107789570Y-66170000D01*
X108190430Y-66170000D01*
X108583587Y-66091796D01*
X108953934Y-65938393D01*
X109205952Y-65770000D01*
X111605001Y-65770000D01*
X111605000Y-69487762D01*
X109597925Y-67480687D01*
X109546714Y-67418286D01*
X109297752Y-67213969D01*
X109013715Y-67062148D01*
X108705516Y-66968657D01*
X108465322Y-66945000D01*
X108465319Y-66945000D01*
X108385000Y-66937089D01*
X108304681Y-66945000D01*
X105129702Y-66945000D01*
X105140472Y-66924851D01*
X105191008Y-66758255D01*
X105208072Y-66585001D01*
X105208072Y-65959999D01*
X105191008Y-65786745D01*
X105140472Y-65620149D01*
X105058405Y-65466613D01*
X104947962Y-65332038D01*
X104813387Y-65221595D01*
X104659851Y-65139528D01*
X104493255Y-65088992D01*
X104320001Y-65071928D01*
X103984365Y-65071928D01*
X103782752Y-64906469D01*
X103498715Y-64754648D01*
X103190516Y-64661157D01*
X102870000Y-64629589D01*
X102549485Y-64661157D01*
X102241286Y-64754648D01*
X101957249Y-64906469D01*
X101755636Y-65071928D01*
X101419999Y-65071928D01*
X101246745Y-65088992D01*
X101080149Y-65139528D01*
X100926613Y-65221595D01*
X100792038Y-65332038D01*
X100681595Y-65466613D01*
X100599528Y-65620149D01*
X100548992Y-65786745D01*
X100531928Y-65959999D01*
X99575125Y-65959999D01*
X99578072Y-65035000D01*
X99565812Y-64910518D01*
X99529502Y-64790820D01*
X99470537Y-64680506D01*
X99391185Y-64583815D01*
X99294494Y-64504463D01*
X99184180Y-64445498D01*
X99064482Y-64409188D01*
X98940000Y-64396928D01*
X98075750Y-64400000D01*
X97917000Y-64558750D01*
X97663000Y-64558750D01*
X97504250Y-64400000D01*
X96640000Y-64396928D01*
X96515518Y-64409188D01*
X96395820Y-64445498D01*
X96285506Y-64504463D01*
X96188815Y-64583815D01*
X96109463Y-64680506D01*
X96050498Y-64790820D01*
X96014188Y-64910518D01*
X96001928Y-65035000D01*
X91582239Y-65035000D01*
X92997240Y-63620000D01*
X96134499Y-63620000D01*
X96188815Y-63686185D01*
X96285506Y-63765537D01*
X96395820Y-63824502D01*
X96515518Y-63860812D01*
X96640000Y-63873072D01*
X98940000Y-63873072D01*
X99064482Y-63860812D01*
X99184180Y-63824502D01*
X99294494Y-63765537D01*
X99391185Y-63686185D01*
X99470537Y-63589494D01*
X99529502Y-63479180D01*
X99562621Y-63370000D01*
X102675052Y-63370000D01*
X102870000Y-63389200D01*
X103141507Y-63362460D01*
X103402581Y-63283264D01*
X103561964Y-63198072D01*
X104320001Y-63198072D01*
X104493255Y-63181008D01*
X104659851Y-63130472D01*
X104813387Y-63048405D01*
X104947962Y-62937962D01*
X105058405Y-62803387D01*
X105140472Y-62649851D01*
X105191008Y-62483255D01*
X105208072Y-62310001D01*
X105208072Y-61684999D01*
X105191008Y-61511745D01*
X105140472Y-61345149D01*
X105058405Y-61191613D01*
X104947962Y-61057038D01*
X104813387Y-60946595D01*
X104659851Y-60864528D01*
X104493255Y-60813992D01*
X104320001Y-60796928D01*
X103572850Y-60796928D01*
X103390081Y-60699236D01*
X103129007Y-60620040D01*
X102925537Y-60600000D01*
X102925529Y-60600000D01*
X102857500Y-60593300D01*
X102789471Y-60600000D01*
X99562621Y-60600000D01*
X99529502Y-60490820D01*
X99470537Y-60380506D01*
X99445501Y-60350000D01*
X115693464Y-60350000D01*
X115688815Y-60353815D01*
G04 #@! TA.AperFunction,Conductor*
D25*
G36*
X115688815Y-60353815D02*
G01*
X115609463Y-60450506D01*
X115550498Y-60560820D01*
X115514188Y-60680518D01*
X115501928Y-60805000D01*
X115505000Y-61006750D01*
X115663750Y-61165500D01*
X116713000Y-61165500D01*
X116713000Y-61145500D01*
X116967000Y-61145500D01*
X116967000Y-61165500D01*
X118016250Y-61165500D01*
X118175000Y-61006750D01*
X118178072Y-60805000D01*
X118165812Y-60680518D01*
X118129502Y-60560820D01*
X118070537Y-60450506D01*
X117991185Y-60353815D01*
X117986536Y-60350000D01*
X125652705Y-60350000D01*
X125619463Y-60390506D01*
X125560498Y-60500820D01*
X125524188Y-60620518D01*
X125511928Y-60745000D01*
X125511928Y-62445000D01*
X125524188Y-62569482D01*
X125560498Y-62689180D01*
X125615000Y-62791145D01*
X125615001Y-63598193D01*
X125572068Y-63701842D01*
X125515000Y-63988740D01*
X125515000Y-64281260D01*
X125572068Y-64568158D01*
X125615000Y-64671806D01*
X125615001Y-66138193D01*
X125572068Y-66241842D01*
X125515000Y-66528740D01*
X125515000Y-66821260D01*
X125572068Y-67108158D01*
X125615000Y-67211805D01*
X125615000Y-67809052D01*
X125608300Y-67877081D01*
X125615000Y-67945110D01*
X125615000Y-67945118D01*
X125635040Y-68148588D01*
X125714236Y-68409662D01*
X125801924Y-68573714D01*
X125842844Y-68650269D01*
X125972548Y-68808314D01*
X125972551Y-68808317D01*
X126015920Y-68861162D01*
X126068764Y-68904530D01*
X128755716Y-71591483D01*
X127087199Y-73260000D01*
X127025061Y-73260000D01*
X126825102Y-73299774D01*
X126636744Y-73377795D01*
X126467226Y-73491063D01*
X126323063Y-73635226D01*
X126209795Y-73804744D01*
X126131774Y-73993102D01*
X126092000Y-74193061D01*
X126092000Y-74396939D01*
X126131774Y-74596898D01*
X126209795Y-74785256D01*
X126323063Y-74954774D01*
X126467226Y-75098937D01*
X126636744Y-75212205D01*
X126825102Y-75290226D01*
X127025061Y-75330000D01*
X127228939Y-75330000D01*
X127428898Y-75290226D01*
X127617256Y-75212205D01*
X127786774Y-75098937D01*
X127930937Y-74954774D01*
X128044205Y-74785256D01*
X128122226Y-74596898D01*
X128162000Y-74396939D01*
X128162000Y-74334801D01*
X130008217Y-72488585D01*
X130174882Y-72505000D01*
X130174889Y-72505000D01*
X130242918Y-72511700D01*
X130310947Y-72505000D01*
X137680000Y-72505000D01*
X137680000Y-73728036D01*
X137680001Y-73728046D01*
X137680000Y-80452314D01*
X136078315Y-82054000D01*
X132402026Y-82054000D01*
X132333999Y-82047300D01*
X132265972Y-82054000D01*
X132265963Y-82054000D01*
X132062493Y-82074040D01*
X131801419Y-82153236D01*
X131560812Y-82281843D01*
X131560810Y-82281844D01*
X131560811Y-82281844D01*
X131402766Y-82411548D01*
X131402764Y-82411550D01*
X131349919Y-82454919D01*
X131306550Y-82507764D01*
X129434264Y-84380051D01*
X129381420Y-84423419D01*
X129338051Y-84476264D01*
X129338048Y-84476267D01*
X129208344Y-84634312D01*
X129079736Y-84874920D01*
X129000540Y-85135993D01*
X128973800Y-85407500D01*
X128980501Y-85475539D01*
X128980500Y-87055814D01*
X126068764Y-89967551D01*
X126015920Y-90010919D01*
X125972551Y-90063764D01*
X125972548Y-90063767D01*
X125842844Y-90221812D01*
X125714236Y-90462420D01*
X125635040Y-90723493D01*
X125608300Y-90995000D01*
X125615001Y-91063039D01*
X125615001Y-92148855D01*
X125560498Y-92250820D01*
X125524188Y-92370518D01*
X125511928Y-92495000D01*
X125511928Y-94195000D01*
X125524188Y-94319482D01*
X125560498Y-94439180D01*
X125615001Y-94541145D01*
X125615000Y-95348194D01*
X125572068Y-95451842D01*
X125515000Y-95738740D01*
X125515000Y-96031260D01*
X125572068Y-96318158D01*
X125615001Y-96421807D01*
X125615000Y-97888194D01*
X125572068Y-97991842D01*
X125515000Y-98278740D01*
X125515000Y-98571260D01*
X125572068Y-98858158D01*
X125684010Y-99128411D01*
X125846525Y-99371632D01*
X126053368Y-99578475D01*
X126190345Y-99670000D01*
X117986536Y-99670000D01*
X117991185Y-99666185D01*
X118070537Y-99569494D01*
X118129502Y-99459180D01*
X118165812Y-99339482D01*
X118178072Y-99215000D01*
X118175000Y-99013250D01*
X118016250Y-98854500D01*
X116967000Y-98854500D01*
X116967000Y-98874500D01*
X116713000Y-98874500D01*
X116713000Y-98854500D01*
X115663750Y-98854500D01*
X115505000Y-99013250D01*
X115501928Y-99215000D01*
X115514188Y-99339482D01*
X115550498Y-99459180D01*
X115609463Y-99569494D01*
X115688815Y-99666185D01*
X115693464Y-99670000D01*
X99445501Y-99670000D01*
X99470537Y-99639494D01*
X99529502Y-99529180D01*
X99565812Y-99409482D01*
X99578072Y-99285000D01*
X99575529Y-98486714D01*
X100042546Y-98953731D01*
X100085919Y-99006581D01*
X100296812Y-99179657D01*
X100493895Y-99285000D01*
X100537419Y-99308264D01*
X100798492Y-99387460D01*
X100824099Y-99389982D01*
X101001963Y-99407500D01*
X101001970Y-99407500D01*
X101069999Y-99414200D01*
X101138028Y-99407500D01*
X102938037Y-99407500D01*
X103141507Y-99387460D01*
X103402581Y-99308264D01*
X103561964Y-99223072D01*
X104320001Y-99223072D01*
X104493255Y-99206008D01*
X104659851Y-99155472D01*
X104813387Y-99073405D01*
X104947962Y-98962962D01*
X105058405Y-98828387D01*
X105140472Y-98674851D01*
X105191008Y-98508255D01*
X105208072Y-98335001D01*
X105208072Y-97709999D01*
X105191008Y-97536745D01*
X105140472Y-97370149D01*
X105058405Y-97216613D01*
X104947962Y-97082038D01*
X104813387Y-96971595D01*
X104659851Y-96889528D01*
X104493255Y-96838992D01*
X104320001Y-96821928D01*
X103561964Y-96821928D01*
X103402581Y-96736736D01*
X103141507Y-96657540D01*
X102938037Y-96637500D01*
X101715000Y-96637500D01*
X101715000Y-95644570D01*
X105955000Y-95644570D01*
X105955000Y-96045430D01*
X106033204Y-96438587D01*
X106186607Y-96808934D01*
X106409313Y-97142237D01*
X106692763Y-97425687D01*
X107026066Y-97648393D01*
X107396413Y-97801796D01*
X107789570Y-97880000D01*
X108190430Y-97880000D01*
X108583587Y-97801796D01*
X108953934Y-97648393D01*
X109205952Y-97480000D01*
X111774048Y-97480000D01*
X112026066Y-97648393D01*
X112396413Y-97801796D01*
X112789570Y-97880000D01*
X113190430Y-97880000D01*
X113583587Y-97801796D01*
X113953934Y-97648393D01*
X114287237Y-97425687D01*
X114570687Y-97142237D01*
X114793393Y-96808934D01*
X114946796Y-96438587D01*
X115025000Y-96045430D01*
X115025000Y-95644570D01*
X114946796Y-95251413D01*
X114862323Y-95047478D01*
X115567112Y-94342690D01*
X115518872Y-94501715D01*
X115501928Y-94673750D01*
X115501928Y-95161250D01*
X115518872Y-95333285D01*
X115569053Y-95498709D01*
X115650542Y-95651164D01*
X115760208Y-95784792D01*
X115882311Y-95885000D01*
X115760208Y-95985208D01*
X115650542Y-96118836D01*
X115569053Y-96271291D01*
X115518872Y-96436715D01*
X115501928Y-96608750D01*
X115501928Y-97096250D01*
X115518872Y-97268285D01*
X115569053Y-97433709D01*
X115650542Y-97586164D01*
X115760208Y-97719792D01*
X115766564Y-97725008D01*
X115688815Y-97788815D01*
X115609463Y-97885506D01*
X115550498Y-97995820D01*
X115514188Y-98115518D01*
X115501928Y-98240000D01*
X115505000Y-98441750D01*
X115663750Y-98600500D01*
X116713000Y-98600500D01*
X116713000Y-98580500D01*
X116967000Y-98580500D01*
X116967000Y-98600500D01*
X118016250Y-98600500D01*
X118175000Y-98441750D01*
X118178072Y-98240000D01*
X118165812Y-98115518D01*
X118129502Y-97995820D01*
X118070537Y-97885506D01*
X117991185Y-97788815D01*
X117913436Y-97725008D01*
X117919792Y-97719792D01*
X118029458Y-97586164D01*
X118110947Y-97433709D01*
X118161128Y-97268285D01*
X118178072Y-97096250D01*
X118178072Y-96608750D01*
X118161128Y-96436715D01*
X118110947Y-96271291D01*
X118029458Y-96118836D01*
X117919792Y-95985208D01*
X117797689Y-95885000D01*
X117919792Y-95784792D01*
X118018208Y-95664872D01*
X119685000Y-95664872D01*
X119685000Y-96105128D01*
X119770890Y-96536925D01*
X119939369Y-96943669D01*
X120183962Y-97309729D01*
X120495271Y-97621038D01*
X120861331Y-97865631D01*
X121268075Y-98034110D01*
X121699872Y-98120000D01*
X122140128Y-98120000D01*
X122571925Y-98034110D01*
X122978669Y-97865631D01*
X123344729Y-97621038D01*
X123656038Y-97309729D01*
X123900631Y-96943669D01*
X124069110Y-96536925D01*
X124155000Y-96105128D01*
X124155000Y-95664872D01*
X124069110Y-95233075D01*
X123900631Y-94826331D01*
X123656038Y-94460271D01*
X123344729Y-94148962D01*
X122978669Y-93904369D01*
X122571925Y-93735890D01*
X122140128Y-93650000D01*
X121699872Y-93650000D01*
X121268075Y-93735890D01*
X120861331Y-93904369D01*
X120495271Y-94148962D01*
X120183962Y-94460271D01*
X119939369Y-94826331D01*
X119770890Y-95233075D01*
X119685000Y-95664872D01*
X118018208Y-95664872D01*
X118029458Y-95651164D01*
X118110947Y-95498709D01*
X118161128Y-95333285D01*
X118178072Y-95161250D01*
X118178072Y-94673750D01*
X118161128Y-94501715D01*
X118110947Y-94336291D01*
X118029458Y-94183836D01*
X117919792Y-94050208D01*
X117834244Y-93980000D01*
X117919792Y-93909792D01*
X118029458Y-93776164D01*
X118110947Y-93623709D01*
X118161128Y-93458285D01*
X118178072Y-93286250D01*
X118178072Y-92798750D01*
X118176322Y-92780979D01*
X123398504Y-87558798D01*
X123427501Y-87535001D01*
X123522474Y-87419276D01*
X123593046Y-87287247D01*
X123636503Y-87143986D01*
X123647500Y-87032333D01*
X123647500Y-87032332D01*
X123651177Y-86995000D01*
X123647500Y-86957667D01*
X123647500Y-84352845D01*
X123754792Y-84264792D01*
X123825000Y-84179244D01*
X123895208Y-84264792D01*
X124028836Y-84374458D01*
X124181291Y-84455947D01*
X124346715Y-84506128D01*
X124518750Y-84523072D01*
X125006250Y-84523072D01*
X125178285Y-84506128D01*
X125343709Y-84455947D01*
X125496164Y-84374458D01*
X125629792Y-84264792D01*
X125739458Y-84131164D01*
X125820947Y-83978709D01*
X125833139Y-83938519D01*
X125878986Y-83934003D01*
X126022247Y-83890546D01*
X126154276Y-83819974D01*
X126270001Y-83725001D01*
X126293804Y-83695997D01*
X126633592Y-83356209D01*
X126853740Y-83400000D01*
X127146260Y-83400000D01*
X127433158Y-83342932D01*
X127703411Y-83230990D01*
X127946632Y-83068475D01*
X128153475Y-82861632D01*
X128271100Y-82685594D01*
X128442412Y-82915269D01*
X128658645Y-83110178D01*
X128908748Y-83259157D01*
X129183109Y-83356481D01*
X129413000Y-83235814D01*
X129413000Y-82042000D01*
X129667000Y-82042000D01*
X129667000Y-83235814D01*
X129896891Y-83356481D01*
X130171252Y-83259157D01*
X130421355Y-83110178D01*
X130637588Y-82915269D01*
X130811641Y-82681920D01*
X130936825Y-82419099D01*
X130981476Y-82271890D01*
X130860155Y-82042000D01*
X129667000Y-82042000D01*
X129413000Y-82042000D01*
X129393000Y-82042000D01*
X129393000Y-81788000D01*
X129413000Y-81788000D01*
X129413000Y-79502000D01*
X129667000Y-79502000D01*
X129667000Y-81788000D01*
X130860155Y-81788000D01*
X130981476Y-81558110D01*
X130936825Y-81410901D01*
X130811641Y-81148080D01*
X130637588Y-80914731D01*
X130421355Y-80719822D01*
X130295745Y-80645000D01*
X130421355Y-80570178D01*
X130637588Y-80375269D01*
X130811641Y-80141920D01*
X130936825Y-79879099D01*
X130981476Y-79731890D01*
X130860155Y-79502000D01*
X129667000Y-79502000D01*
X129413000Y-79502000D01*
X129393000Y-79502000D01*
X129393000Y-79248000D01*
X129413000Y-79248000D01*
X129413000Y-76962000D01*
X129667000Y-76962000D01*
X129667000Y-79248000D01*
X130860155Y-79248000D01*
X130981476Y-79018110D01*
X130936825Y-78870901D01*
X130811641Y-78608080D01*
X130637588Y-78374731D01*
X130421355Y-78179822D01*
X130295745Y-78105000D01*
X130421355Y-78030178D01*
X130637588Y-77835269D01*
X130811641Y-77601920D01*
X130936825Y-77339099D01*
X130981476Y-77191890D01*
X130860155Y-76962000D01*
X129667000Y-76962000D01*
X129413000Y-76962000D01*
X129393000Y-76962000D01*
X129393000Y-76708000D01*
X129413000Y-76708000D01*
X129413000Y-75514186D01*
X129667000Y-75514186D01*
X129667000Y-76708000D01*
X130860155Y-76708000D01*
X130981476Y-76478110D01*
X130936825Y-76330901D01*
X130811641Y-76068080D01*
X130637588Y-75834731D01*
X130421355Y-75639822D01*
X130171252Y-75490843D01*
X129896891Y-75393519D01*
X129667000Y-75514186D01*
X129413000Y-75514186D01*
X129183109Y-75393519D01*
X128908748Y-75490843D01*
X128658645Y-75639822D01*
X128462498Y-75816626D01*
X128439502Y-75740820D01*
X128380537Y-75630506D01*
X128301185Y-75533815D01*
X128204494Y-75454463D01*
X128094180Y-75395498D01*
X127974482Y-75359188D01*
X127850000Y-75346928D01*
X126150000Y-75346928D01*
X126025518Y-75359188D01*
X125905820Y-75395498D01*
X125888072Y-75404985D01*
X125888072Y-75108750D01*
X125871128Y-74936715D01*
X125820947Y-74771291D01*
X125739458Y-74618836D01*
X125629792Y-74485208D01*
X125522500Y-74397155D01*
X125522500Y-73872833D01*
X125526177Y-73835500D01*
X125511503Y-73686514D01*
X125468046Y-73543253D01*
X125449736Y-73508998D01*
X125397474Y-73411224D01*
X125302501Y-73295499D01*
X125273498Y-73271697D01*
X125023804Y-73022003D01*
X125000001Y-72992999D01*
X124884276Y-72898026D01*
X124752247Y-72827454D01*
X124608986Y-72783997D01*
X124497333Y-72773000D01*
X124497322Y-72773000D01*
X124460000Y-72769324D01*
X124422678Y-72773000D01*
X121322322Y-72773000D01*
X121284999Y-72769324D01*
X121247677Y-72773000D01*
X121247667Y-72773000D01*
X121136014Y-72783997D01*
X120992753Y-72827454D01*
X120860724Y-72898026D01*
X120744999Y-72992999D01*
X120721196Y-73022003D01*
X120441498Y-73301701D01*
X120412500Y-73325499D01*
X120388702Y-73354497D01*
X120388701Y-73354498D01*
X120317526Y-73441224D01*
X120246954Y-73573254D01*
X120228156Y-73635226D01*
X120203498Y-73716514D01*
X120201615Y-73735631D01*
X120188824Y-73865500D01*
X120192501Y-73902832D01*
X120192501Y-74397155D01*
X120085208Y-74485208D01*
X120079992Y-74491564D01*
X120016185Y-74413815D01*
X119919494Y-74334463D01*
X119809180Y-74275498D01*
X119689482Y-74239188D01*
X119565000Y-74226928D01*
X119363250Y-74230000D01*
X119204500Y-74388750D01*
X119204500Y-75438000D01*
X119224500Y-75438000D01*
X119224500Y-75692000D01*
X119204500Y-75692000D01*
X119204500Y-76741250D01*
X119363250Y-76900000D01*
X119565000Y-76903072D01*
X119689482Y-76890812D01*
X119809180Y-76854502D01*
X119919494Y-76795537D01*
X120016185Y-76716185D01*
X120079992Y-76638436D01*
X120085208Y-76644792D01*
X120218836Y-76754458D01*
X120371291Y-76835947D01*
X120536715Y-76886128D01*
X120708750Y-76903072D01*
X120904810Y-76903072D01*
X120871999Y-76929999D01*
X120848196Y-76959003D01*
X120441498Y-77365701D01*
X120412500Y-77389499D01*
X120388702Y-77418497D01*
X120388701Y-77418498D01*
X120317526Y-77505224D01*
X120246954Y-77637254D01*
X120235145Y-77676185D01*
X120203498Y-77780514D01*
X120198105Y-77835269D01*
X120188824Y-77929500D01*
X120192501Y-77966832D01*
X120192501Y-78207155D01*
X120085208Y-78295208D01*
X120079992Y-78301564D01*
X120016185Y-78223815D01*
X119919494Y-78144463D01*
X119809180Y-78085498D01*
X119689482Y-78049188D01*
X119565000Y-78036928D01*
X119363250Y-78040000D01*
X119204500Y-78198750D01*
X119204500Y-79248000D01*
X119224500Y-79248000D01*
X119224500Y-79502000D01*
X119204500Y-79502000D01*
X119204500Y-79522000D01*
X118950500Y-79522000D01*
X118950500Y-79502000D01*
X118113750Y-79502000D01*
X117955000Y-79660750D01*
X117951928Y-80075000D01*
X117964188Y-80199482D01*
X118000498Y-80319180D01*
X118059463Y-80429494D01*
X118138815Y-80526185D01*
X118235506Y-80605537D01*
X118345820Y-80664502D01*
X118465518Y-80700812D01*
X118590000Y-80713072D01*
X118791750Y-80710000D01*
X118950498Y-80551252D01*
X118950498Y-80710000D01*
X118997317Y-80710000D01*
X118980000Y-80797061D01*
X118980000Y-81000939D01*
X119019774Y-81200898D01*
X119097795Y-81389256D01*
X119211063Y-81558774D01*
X119355226Y-81702937D01*
X119524744Y-81816205D01*
X119609495Y-81851310D01*
X119565000Y-81846928D01*
X119363250Y-81850000D01*
X119204500Y-82008750D01*
X119204500Y-83058000D01*
X119224500Y-83058000D01*
X119224500Y-83312000D01*
X119204500Y-83312000D01*
X119204500Y-84361250D01*
X119363250Y-84520000D01*
X119565000Y-84523072D01*
X119689482Y-84510812D01*
X119809180Y-84474502D01*
X119919494Y-84415537D01*
X120016185Y-84336185D01*
X120079992Y-84258436D01*
X120085208Y-84264792D01*
X120218836Y-84374458D01*
X120371291Y-84455947D01*
X120536715Y-84506128D01*
X120708750Y-84523072D01*
X121196250Y-84523072D01*
X121368285Y-84506128D01*
X121533709Y-84455947D01*
X121686164Y-84374458D01*
X121819792Y-84264792D01*
X121920000Y-84142689D01*
X122020208Y-84264792D01*
X122127501Y-84352845D01*
X122127500Y-86680198D01*
X116890771Y-91916928D01*
X116383750Y-91916928D01*
X116211715Y-91933872D01*
X116046291Y-91984053D01*
X115893836Y-92065542D01*
X115760208Y-92175208D01*
X115664855Y-92291395D01*
X115643514Y-92293497D01*
X115500253Y-92336954D01*
X115368224Y-92407526D01*
X115252499Y-92502499D01*
X115228701Y-92531497D01*
X113787522Y-93972677D01*
X113583587Y-93888204D01*
X113190430Y-93810000D01*
X112789570Y-93810000D01*
X112396413Y-93888204D01*
X112026066Y-94041607D01*
X111774048Y-94210000D01*
X109205952Y-94210000D01*
X108953934Y-94041607D01*
X108583587Y-93888204D01*
X108190430Y-93810000D01*
X107789570Y-93810000D01*
X107396413Y-93888204D01*
X107026066Y-94041607D01*
X106692763Y-94264313D01*
X106409313Y-94547763D01*
X106186607Y-94881066D01*
X106033204Y-95251413D01*
X105955000Y-95644570D01*
X101715000Y-95644570D01*
X101715000Y-95318037D01*
X101721701Y-95250000D01*
X101694960Y-94978493D01*
X101685732Y-94948072D01*
X101755635Y-94948072D01*
X101957248Y-95113531D01*
X102241285Y-95265352D01*
X102549484Y-95358843D01*
X102870000Y-95390411D01*
X103190515Y-95358843D01*
X103498714Y-95265352D01*
X103782751Y-95113531D01*
X103984365Y-94948072D01*
X104320001Y-94948072D01*
X104493255Y-94931008D01*
X104659851Y-94880472D01*
X104813387Y-94798405D01*
X104947962Y-94687962D01*
X105058405Y-94553387D01*
X105140472Y-94399851D01*
X105191008Y-94233255D01*
X105208072Y-94060001D01*
X105208072Y-93434999D01*
X105191008Y-93261745D01*
X105140472Y-93095149D01*
X105058405Y-92941613D01*
X104947962Y-92807038D01*
X104813387Y-92696595D01*
X104659851Y-92614528D01*
X104505000Y-92567555D01*
X104505000Y-91482238D01*
X105239319Y-90747919D01*
X105301714Y-90696714D01*
X105506031Y-90447752D01*
X105657852Y-90163715D01*
X105751343Y-89855516D01*
X105775000Y-89615322D01*
X105775000Y-89615320D01*
X105782911Y-89535001D01*
X105775000Y-89454681D01*
X105775000Y-87973072D01*
X106040000Y-87973072D01*
X106164482Y-87960812D01*
X106284180Y-87924502D01*
X106394494Y-87865537D01*
X106491185Y-87786185D01*
X106555001Y-87708425D01*
X106555001Y-88196288D01*
X106511063Y-88240226D01*
X106397795Y-88409744D01*
X106319774Y-88598102D01*
X106280000Y-88798061D01*
X106280000Y-89001939D01*
X106319774Y-89201898D01*
X106397795Y-89390256D01*
X106511063Y-89559774D01*
X106655226Y-89703937D01*
X106824744Y-89817205D01*
X107013102Y-89895226D01*
X107213061Y-89935000D01*
X107416939Y-89935000D01*
X107616898Y-89895226D01*
X107805256Y-89817205D01*
X107974774Y-89703937D01*
X108118937Y-89559774D01*
X108232205Y-89390256D01*
X108310226Y-89201898D01*
X108350000Y-89001939D01*
X108350000Y-88798061D01*
X108310226Y-88598102D01*
X108232205Y-88409744D01*
X108118937Y-88240226D01*
X108075000Y-88196289D01*
X108075000Y-87150000D01*
X109151928Y-87150000D01*
X109164188Y-87274482D01*
X109200498Y-87394180D01*
X109259463Y-87504494D01*
X109338815Y-87601185D01*
X109435506Y-87680537D01*
X109545820Y-87739502D01*
X109665518Y-87775812D01*
X109790000Y-87788072D01*
X110204250Y-87785000D01*
X110363000Y-87626250D01*
X110363000Y-86789500D01*
X109313750Y-86789500D01*
X109155000Y-86948250D01*
X109151928Y-87150000D01*
X108075000Y-87150000D01*
X108075000Y-84492323D01*
X108078676Y-84455000D01*
X108075000Y-84417677D01*
X108075000Y-84417667D01*
X108064003Y-84306014D01*
X108020546Y-84162753D01*
X107949974Y-84030724D01*
X107855001Y-83914999D01*
X107826004Y-83891202D01*
X107200000Y-83265199D01*
X107200000Y-81672087D01*
X107314482Y-81660812D01*
X107434180Y-81624502D01*
X107544494Y-81565537D01*
X107641185Y-81486185D01*
X107720537Y-81389494D01*
X107779502Y-81279180D01*
X107815812Y-81159482D01*
X107828072Y-81035000D01*
X107828072Y-79035000D01*
X107815812Y-78910518D01*
X107779502Y-78790820D01*
X107720537Y-78680506D01*
X107716370Y-78675428D01*
X107759792Y-78639792D01*
X107869458Y-78506164D01*
X107950947Y-78353709D01*
X108001128Y-78188285D01*
X108018072Y-78016250D01*
X108018072Y-77528750D01*
X108001128Y-77356715D01*
X107950947Y-77191291D01*
X107869458Y-77038836D01*
X107759792Y-76905208D01*
X107753436Y-76899992D01*
X107831185Y-76836185D01*
X107910537Y-76739494D01*
X107969502Y-76629180D01*
X108005812Y-76509482D01*
X108018072Y-76385000D01*
X108015000Y-76183250D01*
X107856250Y-76024500D01*
X106807000Y-76024500D01*
X106807000Y-76044500D01*
X106553000Y-76044500D01*
X106553000Y-76024500D01*
X106533000Y-76024500D01*
X106533000Y-75770500D01*
X106553000Y-75770500D01*
X106553000Y-74933750D01*
X106807000Y-74933750D01*
X106807000Y-75770500D01*
X107856250Y-75770500D01*
X108015000Y-75611750D01*
X108018072Y-75410000D01*
X108005812Y-75285518D01*
X107969502Y-75165820D01*
X107910537Y-75055506D01*
X107831185Y-74958815D01*
X107734494Y-74879463D01*
X107624180Y-74820498D01*
X107504482Y-74784188D01*
X107380000Y-74771928D01*
X106965750Y-74775000D01*
X106807000Y-74933750D01*
X106553000Y-74933750D01*
X106394250Y-74775000D01*
X105980000Y-74771928D01*
X105855518Y-74784188D01*
X105735820Y-74820498D01*
X105625506Y-74879463D01*
X105528815Y-74958815D01*
X105449463Y-75055506D01*
X105390498Y-75165820D01*
X105354188Y-75285518D01*
X105346634Y-75362220D01*
X105332501Y-75344999D01*
X105216776Y-75250026D01*
X105084747Y-75179454D01*
X104941486Y-75135997D01*
X104829833Y-75125000D01*
X104829822Y-75125000D01*
X104792500Y-75121324D01*
X104755178Y-75125000D01*
X102965038Y-75125000D01*
X102939502Y-75040820D01*
X102880537Y-74930506D01*
X102801185Y-74833815D01*
X102704494Y-74754463D01*
X102594180Y-74695498D01*
X102474482Y-74659188D01*
X102350000Y-74646928D01*
X100850000Y-74646928D01*
X100725518Y-74659188D01*
X100605820Y-74695498D01*
X100495506Y-74754463D01*
X100398815Y-74833815D01*
X100319463Y-74930506D01*
X100260498Y-75040820D01*
X100224188Y-75160518D01*
X100211928Y-75285000D01*
X100211928Y-76485000D01*
X100224188Y-76609482D01*
X100260498Y-76729180D01*
X100317061Y-76835000D01*
X100260498Y-76940820D01*
X100224188Y-77060518D01*
X100211928Y-77185000D01*
X100211928Y-78385000D01*
X100224188Y-78509482D01*
X100259230Y-78625000D01*
X99810000Y-78625000D01*
X99810000Y-73016746D01*
X99819482Y-73015812D01*
X99939180Y-72979502D01*
X100049494Y-72920537D01*
X100146185Y-72841185D01*
X100225537Y-72744494D01*
X100284502Y-72634180D01*
X100320812Y-72514482D01*
X100333072Y-72390000D01*
X100333072Y-69850000D01*
X100320812Y-69725518D01*
X100284502Y-69605820D01*
X100225537Y-69495506D01*
X100146185Y-69398815D01*
X100049494Y-69319463D01*
X99939180Y-69260498D01*
X99819482Y-69224188D01*
X99695000Y-69211928D01*
X97155000Y-69211928D01*
X97030518Y-69224188D01*
X96910820Y-69260498D01*
X96800506Y-69319463D01*
X96703815Y-69398815D01*
X96624463Y-69495506D01*
X96565498Y-69605820D01*
X96529188Y-69725518D01*
X96516928Y-69850000D01*
X96516928Y-72390000D01*
X96529188Y-72514482D01*
X96565498Y-72634180D01*
X96624463Y-72744494D01*
X96703815Y-72841185D01*
X96800506Y-72920537D01*
X96910820Y-72979502D01*
X97030518Y-73015812D01*
X97040001Y-73016746D01*
X97040000Y-78801963D01*
X97040000Y-79139877D01*
X96976082Y-79235537D01*
X96852832Y-79533088D01*
X96790000Y-79848967D01*
X96790000Y-80171033D01*
X96852832Y-80486912D01*
X96976082Y-80784463D01*
X97155013Y-81052252D01*
X97382748Y-81279987D01*
X97650537Y-81458918D01*
X97948088Y-81582168D01*
X98263967Y-81645000D01*
X98586033Y-81645000D01*
X98901912Y-81582168D01*
X99199463Y-81458918D01*
X99295123Y-81395000D01*
X100563982Y-81395000D01*
X100638815Y-81486185D01*
X100735506Y-81565537D01*
X100845820Y-81624502D01*
X100965518Y-81660812D01*
X101090000Y-81673072D01*
X102590000Y-81673072D01*
X102714482Y-81660812D01*
X102755000Y-81648521D01*
X102755000Y-82949877D01*
X102691082Y-83045537D01*
X102567832Y-83343088D01*
X102505000Y-83658967D01*
X102505000Y-83981033D01*
X102567832Y-84296912D01*
X102691082Y-84594463D01*
X102755001Y-84690124D01*
X102755001Y-84696928D01*
X102240000Y-84696928D01*
X102115518Y-84709188D01*
X101995820Y-84745498D01*
X101885506Y-84804463D01*
X101788815Y-84883815D01*
X101709463Y-84980506D01*
X101650498Y-85090820D01*
X101614188Y-85210518D01*
X101601928Y-85335000D01*
X101601928Y-87335000D01*
X101614188Y-87459482D01*
X101650498Y-87579180D01*
X101709463Y-87689494D01*
X101788815Y-87786185D01*
X101885506Y-87865537D01*
X101995820Y-87924502D01*
X102115518Y-87960812D01*
X102240000Y-87973072D01*
X102505000Y-87973072D01*
X102505000Y-88857761D01*
X101770682Y-89592080D01*
X101708287Y-89643286D01*
X101565556Y-89817205D01*
X101503970Y-89892248D01*
X101352148Y-90176286D01*
X101258658Y-90484484D01*
X101227089Y-90805000D01*
X101235001Y-90885329D01*
X101235000Y-92567555D01*
X101080149Y-92614528D01*
X100926613Y-92696595D01*
X100792038Y-92807038D01*
X100681595Y-92941613D01*
X100599528Y-93095149D01*
X100548992Y-93261745D01*
X100531928Y-93434999D01*
X100531928Y-93493243D01*
X99842454Y-92803769D01*
X99799081Y-92750919D01*
X99588188Y-92577843D01*
X99578072Y-92572436D01*
X99578072Y-92485000D01*
X99565812Y-92360518D01*
X99529502Y-92240820D01*
X99470537Y-92130506D01*
X99391185Y-92033815D01*
X99294494Y-91954463D01*
X99184180Y-91895498D01*
X99064482Y-91859188D01*
X98940000Y-91846928D01*
X98314168Y-91846928D01*
X96695092Y-90227852D01*
X97276753Y-90227852D01*
X97405076Y-90519871D01*
X97740695Y-90687723D01*
X98102611Y-90786874D01*
X98476916Y-90813514D01*
X98849227Y-90766618D01*
X99205235Y-90647988D01*
X99444924Y-90519871D01*
X99573247Y-90227852D01*
X98425000Y-89079605D01*
X97276753Y-90227852D01*
X96695092Y-90227852D01*
X95419155Y-88951916D01*
X96511486Y-88951916D01*
X96558382Y-89324227D01*
X96677012Y-89680235D01*
X96805129Y-89919924D01*
X97097148Y-90048247D01*
X98245395Y-88900000D01*
X98604605Y-88900000D01*
X99752852Y-90048247D01*
X100044871Y-89919924D01*
X100212723Y-89584305D01*
X100311874Y-89222389D01*
X100338514Y-88848084D01*
X100291618Y-88475773D01*
X100172988Y-88119765D01*
X100044871Y-87880076D01*
X99752852Y-87751753D01*
X98604605Y-88900000D01*
X98245395Y-88900000D01*
X97097148Y-87751753D01*
X96805129Y-87880076D01*
X96637277Y-88215695D01*
X96538126Y-88577611D01*
X96511486Y-88951916D01*
X95419155Y-88951916D01*
X94902925Y-88435687D01*
X94851714Y-88373286D01*
X94602752Y-88168969D01*
X94318715Y-88017148D01*
X94010516Y-87923657D01*
X93770322Y-87900000D01*
X93770319Y-87900000D01*
X93690000Y-87892089D01*
X93609681Y-87900000D01*
X92102924Y-87900000D01*
X92345687Y-87657237D01*
X92402541Y-87572148D01*
X97276753Y-87572148D01*
X98425000Y-88720395D01*
X99573247Y-87572148D01*
X99444924Y-87280129D01*
X99109305Y-87112277D01*
X98747389Y-87013126D01*
X98373084Y-86986486D01*
X98000773Y-87033382D01*
X97644765Y-87152012D01*
X97405076Y-87280129D01*
X97276753Y-87572148D01*
X92402541Y-87572148D01*
X92568393Y-87323934D01*
X92721796Y-86953587D01*
X92800000Y-86560430D01*
X92800000Y-86159570D01*
X92721796Y-85766413D01*
X92568393Y-85396066D01*
X92345687Y-85062763D01*
X92062237Y-84779313D01*
X91728934Y-84556607D01*
X91358587Y-84403204D01*
X90965430Y-84325000D01*
X90564570Y-84325000D01*
X90171413Y-84403204D01*
X89900000Y-84515627D01*
X89900000Y-81390447D01*
X90199158Y-81390447D01*
X90343135Y-81695770D01*
X90700892Y-81876597D01*
X91087053Y-81984155D01*
X91486777Y-82014310D01*
X91884704Y-81965904D01*
X92265540Y-81840795D01*
X92536865Y-81695770D01*
X92680842Y-81390447D01*
X91440000Y-80149605D01*
X90199158Y-81390447D01*
X89900000Y-81390447D01*
X89900000Y-81154466D01*
X90019553Y-81210842D01*
X91260395Y-79970000D01*
X91619605Y-79970000D01*
X92860447Y-81210842D01*
X93165770Y-81066865D01*
X93346597Y-80709108D01*
X93454155Y-80322947D01*
X93484310Y-79923223D01*
X93435904Y-79525296D01*
X93310795Y-79144460D01*
X93165770Y-78873135D01*
X92860447Y-78729158D01*
X91619605Y-79970000D01*
X91260395Y-79970000D01*
X90019553Y-78729158D01*
X89900000Y-78785534D01*
X89900000Y-78549553D01*
X90199158Y-78549553D01*
X91440000Y-79790395D01*
X92680842Y-78549553D01*
X92536865Y-78244230D01*
X92179108Y-78063403D01*
X91792947Y-77955845D01*
X91393223Y-77925690D01*
X90995296Y-77974096D01*
X90614460Y-78099205D01*
X90343135Y-78244230D01*
X90199158Y-78549553D01*
X89900000Y-78549553D01*
X89900000Y-76390447D01*
X90199158Y-76390447D01*
X90343135Y-76695770D01*
X90700892Y-76876597D01*
X91087053Y-76984155D01*
X91486777Y-77014310D01*
X91884704Y-76965904D01*
X92265540Y-76840795D01*
X92536865Y-76695770D01*
X92680842Y-76390447D01*
X91440000Y-75149605D01*
X90199158Y-76390447D01*
X89900000Y-76390447D01*
X89900000Y-76154466D01*
X90019553Y-76210842D01*
X91260395Y-74970000D01*
X91619605Y-74970000D01*
X92860447Y-76210842D01*
X93165770Y-76066865D01*
X93346597Y-75709108D01*
X93454155Y-75322947D01*
X93484310Y-74923223D01*
X93435904Y-74525296D01*
X93310795Y-74144460D01*
X93165770Y-73873135D01*
X92860447Y-73729158D01*
X91619605Y-74970000D01*
X91260395Y-74970000D01*
X90019553Y-73729158D01*
X89900000Y-73785534D01*
X89900000Y-73549553D01*
X90199158Y-73549553D01*
X91440000Y-74790395D01*
X92680842Y-73549553D01*
X92536865Y-73244230D01*
X92179108Y-73063403D01*
X91792947Y-72955845D01*
X91393223Y-72925690D01*
X90995296Y-72974096D01*
X90614460Y-73099205D01*
X90343135Y-73244230D01*
X90199158Y-73549553D01*
X89900000Y-73549553D01*
X89900000Y-67535000D01*
X96001928Y-67535000D01*
X96014188Y-67659482D01*
X96050498Y-67779180D01*
X96109463Y-67889494D01*
X96188815Y-67986185D01*
X96285506Y-68065537D01*
X96395820Y-68124502D01*
X96515518Y-68160812D01*
X96640000Y-68173072D01*
X97504250Y-68170000D01*
X97663000Y-68011250D01*
X97663000Y-66412000D01*
X97917000Y-66412000D01*
X97917000Y-68011250D01*
X98075750Y-68170000D01*
X98940000Y-68173072D01*
X99064482Y-68160812D01*
X99184180Y-68124502D01*
X99294494Y-68065537D01*
X99391185Y-67986185D01*
X99470537Y-67889494D01*
X99529502Y-67779180D01*
X99565812Y-67659482D01*
X99578072Y-67535000D01*
X99575000Y-66570750D01*
X99416250Y-66412000D01*
X97917000Y-66412000D01*
X97663000Y-66412000D01*
X96163750Y-66412000D01*
X96005000Y-66570750D01*
X96001928Y-67535000D01*
X89900000Y-67535000D01*
X89900000Y-66717238D01*
X91582239Y-65035000D01*
X96001928Y-65035000D01*
X96005000Y-65999250D01*
X96163750Y-66158000D01*
X97663000Y-66158000D01*
X97663000Y-64558750D01*
X97917000Y-64558750D01*
X97917000Y-66158000D01*
X99416250Y-66158000D01*
X99575000Y-65999250D01*
X99575125Y-65959999D01*
X100531928Y-65959999D01*
X100531928Y-66585001D01*
X100548992Y-66758255D01*
X100599528Y-66924851D01*
X100681595Y-67078387D01*
X100792038Y-67212962D01*
X100926613Y-67323405D01*
X101080149Y-67405472D01*
X101235000Y-67452445D01*
X101235000Y-67864681D01*
X101227089Y-67945000D01*
X101235000Y-68025319D01*
X101235000Y-68025321D01*
X101258657Y-68265515D01*
X101352148Y-68573714D01*
X101503969Y-68857751D01*
X101708286Y-69106714D01*
X101770686Y-69157924D01*
X102292079Y-69679318D01*
X102343286Y-69741714D01*
X102411464Y-69797666D01*
X102080271Y-70018962D01*
X101768962Y-70330271D01*
X101524369Y-70696331D01*
X101355890Y-71103075D01*
X101270000Y-71534872D01*
X101270000Y-71975128D01*
X101355890Y-72406925D01*
X101524369Y-72813669D01*
X101768962Y-73179729D01*
X102080271Y-73491038D01*
X102446331Y-73735631D01*
X102853075Y-73904110D01*
X103284872Y-73990000D01*
X103725128Y-73990000D01*
X104156925Y-73904110D01*
X104563669Y-73735631D01*
X104929729Y-73491038D01*
X105241038Y-73179729D01*
X105485631Y-72813669D01*
X105654110Y-72406925D01*
X105740000Y-71975128D01*
X105740000Y-71534872D01*
X105654110Y-71103075D01*
X105485631Y-70696331D01*
X105241038Y-70330271D01*
X105125767Y-70215000D01*
X107707762Y-70215000D01*
X110792986Y-73300225D01*
X110791898Y-73299774D01*
X110591939Y-73260000D01*
X110388061Y-73260000D01*
X110188102Y-73299774D01*
X109999744Y-73377795D01*
X109830226Y-73491063D01*
X109686063Y-73635226D01*
X109572795Y-73804744D01*
X109494774Y-73993102D01*
X109455000Y-74193061D01*
X109455000Y-74255198D01*
X108708998Y-75001201D01*
X108680000Y-75024999D01*
X108656202Y-75053997D01*
X108656201Y-75053998D01*
X108585026Y-75140724D01*
X108514454Y-75272754D01*
X108488236Y-75359188D01*
X108471396Y-75414704D01*
X108470998Y-75416015D01*
X108456324Y-75565000D01*
X108460001Y-75602332D01*
X108460000Y-78702677D01*
X108456324Y-78740000D01*
X108460000Y-78777322D01*
X108460000Y-78777332D01*
X108470997Y-78888985D01*
X108496938Y-78974502D01*
X108514454Y-79032246D01*
X108585026Y-79164276D01*
X108624871Y-79212826D01*
X108679999Y-79280001D01*
X108709002Y-79303803D01*
X109970001Y-80564804D01*
X109970001Y-80887913D01*
X109855518Y-80899188D01*
X109735820Y-80935498D01*
X109625506Y-80994463D01*
X109528815Y-81073815D01*
X109449463Y-81170506D01*
X109390498Y-81280820D01*
X109354188Y-81400518D01*
X109341928Y-81525000D01*
X109341928Y-83525000D01*
X109354188Y-83649482D01*
X109390498Y-83769180D01*
X109449463Y-83879494D01*
X109453630Y-83884572D01*
X109410208Y-83920208D01*
X109300542Y-84053836D01*
X109219053Y-84206291D01*
X109168872Y-84371715D01*
X109151928Y-84543750D01*
X109151928Y-85031250D01*
X109168872Y-85203285D01*
X109219053Y-85368709D01*
X109300542Y-85521164D01*
X109410208Y-85654792D01*
X109416564Y-85660008D01*
X109338815Y-85723815D01*
X109259463Y-85820506D01*
X109200498Y-85930820D01*
X109164188Y-86050518D01*
X109151928Y-86175000D01*
X109155000Y-86376750D01*
X109313750Y-86535500D01*
X110363000Y-86535500D01*
X110363000Y-86515500D01*
X110617000Y-86515500D01*
X110617000Y-86535500D01*
X110637000Y-86535500D01*
X110637000Y-86789500D01*
X110617000Y-86789500D01*
X110617000Y-87626250D01*
X110775750Y-87785000D01*
X111190000Y-87788072D01*
X111314482Y-87775812D01*
X111434180Y-87739502D01*
X111544494Y-87680537D01*
X111641185Y-87601185D01*
X111720537Y-87504494D01*
X111779502Y-87394180D01*
X111815812Y-87274482D01*
X111823366Y-87197780D01*
X111837499Y-87215001D01*
X111866497Y-87238799D01*
X111953223Y-87309974D01*
X112085253Y-87380546D01*
X112228514Y-87424003D01*
X112340167Y-87435000D01*
X112340176Y-87435000D01*
X112377499Y-87438676D01*
X112414822Y-87435000D01*
X114204962Y-87435000D01*
X114230498Y-87519180D01*
X114289463Y-87629494D01*
X114368815Y-87726185D01*
X114465506Y-87805537D01*
X114575820Y-87864502D01*
X114695518Y-87900812D01*
X114820000Y-87913072D01*
X116320000Y-87913072D01*
X116444482Y-87900812D01*
X116564180Y-87864502D01*
X116674494Y-87805537D01*
X116771185Y-87726185D01*
X116850537Y-87629494D01*
X116909502Y-87519180D01*
X116945812Y-87399482D01*
X116958072Y-87275000D01*
X116958072Y-86075000D01*
X116945812Y-85950518D01*
X116909502Y-85830820D01*
X116852939Y-85725000D01*
X116909502Y-85619180D01*
X116945812Y-85499482D01*
X116958072Y-85375000D01*
X116958072Y-84175000D01*
X116945812Y-84050518D01*
X116909502Y-83930820D01*
X116850537Y-83820506D01*
X116771185Y-83723815D01*
X116700788Y-83666042D01*
X116705812Y-83649482D01*
X116718072Y-83525000D01*
X116718072Y-83458738D01*
X116730744Y-83467205D01*
X116919102Y-83545226D01*
X117119061Y-83585000D01*
X117322939Y-83585000D01*
X117522898Y-83545226D01*
X117711256Y-83467205D01*
X117880774Y-83353937D01*
X117955000Y-83279711D01*
X117955000Y-83312002D01*
X118113748Y-83312002D01*
X117955000Y-83470750D01*
X117951928Y-83885000D01*
X117964188Y-84009482D01*
X118000498Y-84129180D01*
X118059463Y-84239494D01*
X118138815Y-84336185D01*
X118235506Y-84415537D01*
X118345820Y-84474502D01*
X118465518Y-84510812D01*
X118590000Y-84523072D01*
X118791750Y-84520000D01*
X118950500Y-84361250D01*
X118950500Y-83312000D01*
X118930500Y-83312000D01*
X118930500Y-83058000D01*
X118950500Y-83058000D01*
X118950500Y-82008750D01*
X118791750Y-81850000D01*
X118590000Y-81846928D01*
X118465518Y-81859188D01*
X118345820Y-81895498D01*
X118235506Y-81954463D01*
X118138815Y-82033815D01*
X118128929Y-82045861D01*
X118024937Y-81890226D01*
X117880774Y-81746063D01*
X117711256Y-81632795D01*
X117522898Y-81554774D01*
X117322939Y-81515000D01*
X117119061Y-81515000D01*
X116919102Y-81554774D01*
X116730744Y-81632795D01*
X116718072Y-81641262D01*
X116718072Y-81525000D01*
X116715000Y-81493808D01*
X116715000Y-80598685D01*
X117136235Y-80177450D01*
X117189080Y-80134081D01*
X117233016Y-80080546D01*
X117362157Y-79923188D01*
X117490764Y-79682581D01*
X117569960Y-79421507D01*
X117574401Y-79376413D01*
X117590000Y-79218037D01*
X117590000Y-79218029D01*
X117596700Y-79150000D01*
X117590000Y-79081971D01*
X117590000Y-78675000D01*
X117951928Y-78675000D01*
X117955000Y-79089250D01*
X118113750Y-79248000D01*
X118950500Y-79248000D01*
X118950500Y-78198750D01*
X118791750Y-78040000D01*
X118590000Y-78036928D01*
X118465518Y-78049188D01*
X118345820Y-78085498D01*
X118235506Y-78144463D01*
X118138815Y-78223815D01*
X118059463Y-78320506D01*
X118000498Y-78430820D01*
X117964188Y-78550518D01*
X117951928Y-78675000D01*
X117590000Y-78675000D01*
X117590000Y-76265000D01*
X117951928Y-76265000D01*
X117964188Y-76389482D01*
X118000498Y-76509180D01*
X118059463Y-76619494D01*
X118138815Y-76716185D01*
X118235506Y-76795537D01*
X118345820Y-76854502D01*
X118465518Y-76890812D01*
X118590000Y-76903072D01*
X118791750Y-76900000D01*
X118950500Y-76741250D01*
X118950500Y-75692000D01*
X118113750Y-75692000D01*
X117955000Y-75850750D01*
X117951928Y-76265000D01*
X117590000Y-76265000D01*
X117590000Y-74865000D01*
X117951928Y-74865000D01*
X117955000Y-75279250D01*
X118113750Y-75438000D01*
X118950500Y-75438000D01*
X118950500Y-74388750D01*
X118791750Y-74230000D01*
X118590000Y-74226928D01*
X118465518Y-74239188D01*
X118345820Y-74275498D01*
X118235506Y-74334463D01*
X118138815Y-74413815D01*
X118059463Y-74510506D01*
X118000498Y-74620820D01*
X117964188Y-74740518D01*
X117951928Y-74865000D01*
X117590000Y-74865000D01*
X117590000Y-74190123D01*
X117653918Y-74094463D01*
X117777168Y-73796912D01*
X117840000Y-73481033D01*
X117840000Y-73158967D01*
X117777168Y-72843088D01*
X117653918Y-72545537D01*
X117474987Y-72277748D01*
X117247252Y-72050013D01*
X117070792Y-71932106D01*
X114375000Y-69236315D01*
X114375000Y-65627924D01*
X114429001Y-65573923D01*
X114429001Y-66383668D01*
X114425324Y-66421000D01*
X114429001Y-66458333D01*
X114439184Y-66561716D01*
X114439998Y-66569985D01*
X114483454Y-66713246D01*
X114554026Y-66845276D01*
X114593193Y-66893000D01*
X114649000Y-66961001D01*
X114677998Y-66984799D01*
X115181701Y-67488503D01*
X115205500Y-67517502D01*
X115321225Y-67612475D01*
X115453254Y-67683047D01*
X115596515Y-67726504D01*
X115668989Y-67733642D01*
X115760208Y-67844793D01*
X115893836Y-67954459D01*
X116046291Y-68035948D01*
X116211715Y-68086129D01*
X116383750Y-68103073D01*
X117296250Y-68103073D01*
X117468285Y-68086129D01*
X117633709Y-68035948D01*
X117786164Y-67954459D01*
X117919792Y-67844793D01*
X118029458Y-67711165D01*
X118110947Y-67558710D01*
X118161128Y-67393286D01*
X118178072Y-67221251D01*
X118178072Y-66733751D01*
X118161128Y-66561716D01*
X118110947Y-66396292D01*
X118029458Y-66243837D01*
X117919792Y-66110209D01*
X117834244Y-66040001D01*
X117919792Y-65969793D01*
X118029458Y-65836165D01*
X118110947Y-65683710D01*
X118161128Y-65518286D01*
X118178072Y-65346251D01*
X118178072Y-64858751D01*
X118161128Y-64686716D01*
X118110947Y-64521292D01*
X118029458Y-64368837D01*
X117919792Y-64235209D01*
X117797688Y-64135000D01*
X117919792Y-64034792D01*
X118018208Y-63914872D01*
X119685000Y-63914872D01*
X119685000Y-64355128D01*
X119770890Y-64786925D01*
X119939369Y-65193669D01*
X120183962Y-65559729D01*
X120495271Y-65871038D01*
X120861331Y-66115631D01*
X121268075Y-66284110D01*
X121699872Y-66370000D01*
X122140128Y-66370000D01*
X122571925Y-66284110D01*
X122978669Y-66115631D01*
X123344729Y-65871038D01*
X123656038Y-65559729D01*
X123900631Y-65193669D01*
X124069110Y-64786925D01*
X124155000Y-64355128D01*
X124155000Y-63914872D01*
X124069110Y-63483075D01*
X123900631Y-63076331D01*
X123656038Y-62710271D01*
X123344729Y-62398962D01*
X122978669Y-62154369D01*
X122571925Y-61985890D01*
X122140128Y-61900000D01*
X121699872Y-61900000D01*
X121268075Y-61985890D01*
X120861331Y-62154369D01*
X120495271Y-62398962D01*
X120183962Y-62710271D01*
X119939369Y-63076331D01*
X119770890Y-63483075D01*
X119685000Y-63914872D01*
X118018208Y-63914872D01*
X118029458Y-63901164D01*
X118110947Y-63748709D01*
X118161128Y-63583285D01*
X118178072Y-63411250D01*
X118178072Y-62923750D01*
X118161128Y-62751715D01*
X118110947Y-62586291D01*
X118029458Y-62433836D01*
X117919792Y-62300208D01*
X117913436Y-62294992D01*
X117991185Y-62231185D01*
X118070537Y-62134494D01*
X118129502Y-62024180D01*
X118165812Y-61904482D01*
X118178072Y-61780000D01*
X118175000Y-61578250D01*
X118016250Y-61419500D01*
X116967000Y-61419500D01*
X116967000Y-61439500D01*
X116713000Y-61439500D01*
X116713000Y-61419500D01*
X115663750Y-61419500D01*
X115505000Y-61578250D01*
X115501928Y-61780000D01*
X115514188Y-61904482D01*
X115550498Y-62024180D01*
X115609463Y-62134494D01*
X115688815Y-62231185D01*
X115766564Y-62294992D01*
X115760208Y-62300208D01*
X115650542Y-62433836D01*
X115569053Y-62586291D01*
X115518872Y-62751715D01*
X115501928Y-62923750D01*
X115501928Y-63411250D01*
X115518872Y-63583285D01*
X115529771Y-63619213D01*
X115509899Y-63594999D01*
X115394174Y-63500026D01*
X115262145Y-63429454D01*
X115118884Y-63385997D01*
X115007231Y-63375000D01*
X115007220Y-63375000D01*
X114969898Y-63371324D01*
X114932576Y-63375000D01*
X114877865Y-63375000D01*
X114793393Y-63171066D01*
X114570687Y-62837763D01*
X114287237Y-62554313D01*
X113953934Y-62331607D01*
X113583587Y-62178204D01*
X113190430Y-62100000D01*
X112789570Y-62100000D01*
X112396413Y-62178204D01*
X112026066Y-62331607D01*
X111774048Y-62500000D01*
X109205952Y-62500000D01*
X108953934Y-62331607D01*
X108583587Y-62178204D01*
X108190430Y-62100000D01*
X107789570Y-62100000D01*
X107396413Y-62178204D01*
X107026066Y-62331607D01*
X106692763Y-62554313D01*
X106409313Y-62837763D01*
X106186607Y-63171066D01*
X106033204Y-63541413D01*
X105955000Y-63934570D01*
X105955000Y-64335430D01*
X106033204Y-64728587D01*
X106186607Y-65098934D01*
X106409313Y-65432237D01*
X106692763Y-65715687D01*
X107026066Y-65938393D01*
X107396413Y-66091796D01*
X107789570Y-66170000D01*
X108190430Y-66170000D01*
X108583587Y-66091796D01*
X108953934Y-65938393D01*
X109205952Y-65770000D01*
X111605001Y-65770000D01*
X111605000Y-69487762D01*
X109597925Y-67480687D01*
X109546714Y-67418286D01*
X109297752Y-67213969D01*
X109013715Y-67062148D01*
X108705516Y-66968657D01*
X108465322Y-66945000D01*
X108465319Y-66945000D01*
X108385000Y-66937089D01*
X108304681Y-66945000D01*
X105129702Y-66945000D01*
X105140472Y-66924851D01*
X105191008Y-66758255D01*
X105208072Y-66585001D01*
X105208072Y-65959999D01*
X105191008Y-65786745D01*
X105140472Y-65620149D01*
X105058405Y-65466613D01*
X104947962Y-65332038D01*
X104813387Y-65221595D01*
X104659851Y-65139528D01*
X104493255Y-65088992D01*
X104320001Y-65071928D01*
X103984365Y-65071928D01*
X103782752Y-64906469D01*
X103498715Y-64754648D01*
X103190516Y-64661157D01*
X102870000Y-64629589D01*
X102549485Y-64661157D01*
X102241286Y-64754648D01*
X101957249Y-64906469D01*
X101755636Y-65071928D01*
X101419999Y-65071928D01*
X101246745Y-65088992D01*
X101080149Y-65139528D01*
X100926613Y-65221595D01*
X100792038Y-65332038D01*
X100681595Y-65466613D01*
X100599528Y-65620149D01*
X100548992Y-65786745D01*
X100531928Y-65959999D01*
X99575125Y-65959999D01*
X99578072Y-65035000D01*
X99565812Y-64910518D01*
X99529502Y-64790820D01*
X99470537Y-64680506D01*
X99391185Y-64583815D01*
X99294494Y-64504463D01*
X99184180Y-64445498D01*
X99064482Y-64409188D01*
X98940000Y-64396928D01*
X98075750Y-64400000D01*
X97917000Y-64558750D01*
X97663000Y-64558750D01*
X97504250Y-64400000D01*
X96640000Y-64396928D01*
X96515518Y-64409188D01*
X96395820Y-64445498D01*
X96285506Y-64504463D01*
X96188815Y-64583815D01*
X96109463Y-64680506D01*
X96050498Y-64790820D01*
X96014188Y-64910518D01*
X96001928Y-65035000D01*
X91582239Y-65035000D01*
X92997240Y-63620000D01*
X96134499Y-63620000D01*
X96188815Y-63686185D01*
X96285506Y-63765537D01*
X96395820Y-63824502D01*
X96515518Y-63860812D01*
X96640000Y-63873072D01*
X98940000Y-63873072D01*
X99064482Y-63860812D01*
X99184180Y-63824502D01*
X99294494Y-63765537D01*
X99391185Y-63686185D01*
X99470537Y-63589494D01*
X99529502Y-63479180D01*
X99562621Y-63370000D01*
X102675052Y-63370000D01*
X102870000Y-63389200D01*
X103141507Y-63362460D01*
X103402581Y-63283264D01*
X103561964Y-63198072D01*
X104320001Y-63198072D01*
X104493255Y-63181008D01*
X104659851Y-63130472D01*
X104813387Y-63048405D01*
X104947962Y-62937962D01*
X105058405Y-62803387D01*
X105140472Y-62649851D01*
X105191008Y-62483255D01*
X105208072Y-62310001D01*
X105208072Y-61684999D01*
X105191008Y-61511745D01*
X105140472Y-61345149D01*
X105058405Y-61191613D01*
X104947962Y-61057038D01*
X104813387Y-60946595D01*
X104659851Y-60864528D01*
X104493255Y-60813992D01*
X104320001Y-60796928D01*
X103572850Y-60796928D01*
X103390081Y-60699236D01*
X103129007Y-60620040D01*
X102925537Y-60600000D01*
X102925529Y-60600000D01*
X102857500Y-60593300D01*
X102789471Y-60600000D01*
X99562621Y-60600000D01*
X99529502Y-60490820D01*
X99470537Y-60380506D01*
X99445501Y-60350000D01*
X115693464Y-60350000D01*
X115688815Y-60353815D01*
G37*
G04 #@! TD.AperFunction*
D24*
X140945001Y-88582019D02*
X140931618Y-88475773D01*
X140812988Y-88119765D01*
X140684871Y-87880076D01*
X140392852Y-87751753D01*
X139244605Y-88900000D01*
X140392852Y-90048247D01*
X140684871Y-89919924D01*
X140852723Y-89584305D01*
X140945001Y-89247477D01*
X140945001Y-99670000D01*
X130337715Y-99670000D01*
X130421355Y-99620178D01*
X130637588Y-99425269D01*
X130811641Y-99191920D01*
X130936825Y-98929099D01*
X130981476Y-98781890D01*
X130860155Y-98552000D01*
X129667000Y-98552000D01*
X129667000Y-98572000D01*
X129413000Y-98572000D01*
X129413000Y-98552000D01*
X129393000Y-98552000D01*
X129393000Y-98298000D01*
X129413000Y-98298000D01*
X129413000Y-96012000D01*
X129667000Y-96012000D01*
X129667000Y-98298000D01*
X130860155Y-98298000D01*
X130981476Y-98068110D01*
X130936825Y-97920901D01*
X130811641Y-97658080D01*
X130637588Y-97424731D01*
X130421355Y-97229822D01*
X130295745Y-97155000D01*
X130421355Y-97080178D01*
X130637588Y-96885269D01*
X130811641Y-96651920D01*
X130936825Y-96389099D01*
X130981476Y-96241890D01*
X130860155Y-96012000D01*
X129667000Y-96012000D01*
X129413000Y-96012000D01*
X129393000Y-96012000D01*
X129393000Y-95758000D01*
X129413000Y-95758000D01*
X129413000Y-93472000D01*
X129667000Y-93472000D01*
X129667000Y-95758000D01*
X130860155Y-95758000D01*
X130981476Y-95528110D01*
X130936825Y-95380901D01*
X130811641Y-95118080D01*
X130637588Y-94884731D01*
X130421355Y-94689822D01*
X130295745Y-94615000D01*
X130421355Y-94540178D01*
X130637588Y-94345269D01*
X130811641Y-94111920D01*
X130936825Y-93849099D01*
X130981476Y-93701890D01*
X130860155Y-93472000D01*
X129667000Y-93472000D01*
X129413000Y-93472000D01*
X129393000Y-93472000D01*
X129393000Y-93218000D01*
X129413000Y-93218000D01*
X129413000Y-92024186D01*
X129667000Y-92024186D01*
X129667000Y-93218000D01*
X130860155Y-93218000D01*
X130981476Y-92988110D01*
X130936825Y-92840901D01*
X130811641Y-92578080D01*
X130637588Y-92344731D01*
X130421355Y-92149822D01*
X130171252Y-92000843D01*
X129896891Y-91903519D01*
X129667000Y-92024186D01*
X129413000Y-92024186D01*
X129183109Y-91903519D01*
X128908748Y-92000843D01*
X128658645Y-92149822D01*
X128462498Y-92326626D01*
X128439502Y-92250820D01*
X128385000Y-92148856D01*
X128385000Y-91568685D01*
X131296741Y-88656945D01*
X131349580Y-88613581D01*
X131392945Y-88560741D01*
X131392952Y-88560734D01*
X131522657Y-88402688D01*
X131651264Y-88162081D01*
X131686818Y-88044872D01*
X131750000Y-88044872D01*
X131750000Y-88485128D01*
X131835890Y-88916925D01*
X132004369Y-89323669D01*
X132248962Y-89689729D01*
X132560271Y-90001038D01*
X132926331Y-90245631D01*
X133333075Y-90414110D01*
X133764872Y-90500000D01*
X134205128Y-90500000D01*
X134636925Y-90414110D01*
X135043669Y-90245631D01*
X135070277Y-90227852D01*
X137916753Y-90227852D01*
X138045076Y-90519871D01*
X138380695Y-90687723D01*
X138742611Y-90786874D01*
X139116916Y-90813514D01*
X139489227Y-90766618D01*
X139845235Y-90647988D01*
X140084924Y-90519871D01*
X140213247Y-90227852D01*
X139065000Y-89079605D01*
X137916753Y-90227852D01*
X135070277Y-90227852D01*
X135409729Y-90001038D01*
X135721038Y-89689729D01*
X135965631Y-89323669D01*
X136119616Y-88951916D01*
X137151486Y-88951916D01*
X137198382Y-89324227D01*
X137317012Y-89680235D01*
X137445129Y-89919924D01*
X137737148Y-90048247D01*
X138885395Y-88900000D01*
X137737148Y-87751753D01*
X137445129Y-87880076D01*
X137277277Y-88215695D01*
X137178126Y-88577611D01*
X137151486Y-88951916D01*
X136119616Y-88951916D01*
X136134110Y-88916925D01*
X136220000Y-88485128D01*
X136220000Y-88044872D01*
X136134110Y-87613075D01*
X136117158Y-87572148D01*
X137916753Y-87572148D01*
X139065000Y-88720395D01*
X140213247Y-87572148D01*
X140084924Y-87280129D01*
X139749305Y-87112277D01*
X139387389Y-87013126D01*
X139013084Y-86986486D01*
X138640773Y-87033382D01*
X138284765Y-87152012D01*
X138045076Y-87280129D01*
X137916753Y-87572148D01*
X136117158Y-87572148D01*
X135965631Y-87206331D01*
X135721038Y-86840271D01*
X135409729Y-86528962D01*
X135043669Y-86284369D01*
X134636925Y-86115890D01*
X134205128Y-86030000D01*
X133764872Y-86030000D01*
X133333075Y-86115890D01*
X132926331Y-86284369D01*
X132560271Y-86528962D01*
X132248962Y-86840271D01*
X132004369Y-87206331D01*
X131835890Y-87613075D01*
X131750000Y-88044872D01*
X131686818Y-88044872D01*
X131730460Y-87901007D01*
X131731338Y-87892089D01*
X131750500Y-87697537D01*
X131750500Y-87697529D01*
X131757200Y-87629500D01*
X131750500Y-87561471D01*
X131750500Y-85981185D01*
X132907686Y-84824000D01*
X136583971Y-84824000D01*
X136652000Y-84830700D01*
X136720029Y-84824000D01*
X136720037Y-84824000D01*
X136923507Y-84803960D01*
X137184581Y-84724764D01*
X137425188Y-84596157D01*
X137636081Y-84423081D01*
X137679454Y-84370231D01*
X139996241Y-82053445D01*
X140049080Y-82010081D01*
X140092445Y-81957241D01*
X140092452Y-81957234D01*
X140222156Y-81799189D01*
X140222157Y-81799188D01*
X140350764Y-81558581D01*
X140429960Y-81297507D01*
X140450000Y-81094037D01*
X140450000Y-81094028D01*
X140456700Y-81026001D01*
X140450000Y-80957974D01*
X140450000Y-72429076D01*
X140544710Y-72334366D01*
X140753189Y-72022356D01*
X140896791Y-71675668D01*
X140945000Y-71433306D01*
X140945001Y-88582019D01*
G04 #@! TA.AperFunction,Conductor*
D25*
G36*
X140945001Y-88582019D02*
G01*
X140931618Y-88475773D01*
X140812988Y-88119765D01*
X140684871Y-87880076D01*
X140392852Y-87751753D01*
X139244605Y-88900000D01*
X140392852Y-90048247D01*
X140684871Y-89919924D01*
X140852723Y-89584305D01*
X140945001Y-89247477D01*
X140945001Y-99670000D01*
X130337715Y-99670000D01*
X130421355Y-99620178D01*
X130637588Y-99425269D01*
X130811641Y-99191920D01*
X130936825Y-98929099D01*
X130981476Y-98781890D01*
X130860155Y-98552000D01*
X129667000Y-98552000D01*
X129667000Y-98572000D01*
X129413000Y-98572000D01*
X129413000Y-98552000D01*
X129393000Y-98552000D01*
X129393000Y-98298000D01*
X129413000Y-98298000D01*
X129413000Y-96012000D01*
X129667000Y-96012000D01*
X129667000Y-98298000D01*
X130860155Y-98298000D01*
X130981476Y-98068110D01*
X130936825Y-97920901D01*
X130811641Y-97658080D01*
X130637588Y-97424731D01*
X130421355Y-97229822D01*
X130295745Y-97155000D01*
X130421355Y-97080178D01*
X130637588Y-96885269D01*
X130811641Y-96651920D01*
X130936825Y-96389099D01*
X130981476Y-96241890D01*
X130860155Y-96012000D01*
X129667000Y-96012000D01*
X129413000Y-96012000D01*
X129393000Y-96012000D01*
X129393000Y-95758000D01*
X129413000Y-95758000D01*
X129413000Y-93472000D01*
X129667000Y-93472000D01*
X129667000Y-95758000D01*
X130860155Y-95758000D01*
X130981476Y-95528110D01*
X130936825Y-95380901D01*
X130811641Y-95118080D01*
X130637588Y-94884731D01*
X130421355Y-94689822D01*
X130295745Y-94615000D01*
X130421355Y-94540178D01*
X130637588Y-94345269D01*
X130811641Y-94111920D01*
X130936825Y-93849099D01*
X130981476Y-93701890D01*
X130860155Y-93472000D01*
X129667000Y-93472000D01*
X129413000Y-93472000D01*
X129393000Y-93472000D01*
X129393000Y-93218000D01*
X129413000Y-93218000D01*
X129413000Y-92024186D01*
X129667000Y-92024186D01*
X129667000Y-93218000D01*
X130860155Y-93218000D01*
X130981476Y-92988110D01*
X130936825Y-92840901D01*
X130811641Y-92578080D01*
X130637588Y-92344731D01*
X130421355Y-92149822D01*
X130171252Y-92000843D01*
X129896891Y-91903519D01*
X129667000Y-92024186D01*
X129413000Y-92024186D01*
X129183109Y-91903519D01*
X128908748Y-92000843D01*
X128658645Y-92149822D01*
X128462498Y-92326626D01*
X128439502Y-92250820D01*
X128385000Y-92148856D01*
X128385000Y-91568685D01*
X131296741Y-88656945D01*
X131349580Y-88613581D01*
X131392945Y-88560741D01*
X131392952Y-88560734D01*
X131522657Y-88402688D01*
X131651264Y-88162081D01*
X131686818Y-88044872D01*
X131750000Y-88044872D01*
X131750000Y-88485128D01*
X131835890Y-88916925D01*
X132004369Y-89323669D01*
X132248962Y-89689729D01*
X132560271Y-90001038D01*
X132926331Y-90245631D01*
X133333075Y-90414110D01*
X133764872Y-90500000D01*
X134205128Y-90500000D01*
X134636925Y-90414110D01*
X135043669Y-90245631D01*
X135070277Y-90227852D01*
X137916753Y-90227852D01*
X138045076Y-90519871D01*
X138380695Y-90687723D01*
X138742611Y-90786874D01*
X139116916Y-90813514D01*
X139489227Y-90766618D01*
X139845235Y-90647988D01*
X140084924Y-90519871D01*
X140213247Y-90227852D01*
X139065000Y-89079605D01*
X137916753Y-90227852D01*
X135070277Y-90227852D01*
X135409729Y-90001038D01*
X135721038Y-89689729D01*
X135965631Y-89323669D01*
X136119616Y-88951916D01*
X137151486Y-88951916D01*
X137198382Y-89324227D01*
X137317012Y-89680235D01*
X137445129Y-89919924D01*
X137737148Y-90048247D01*
X138885395Y-88900000D01*
X137737148Y-87751753D01*
X137445129Y-87880076D01*
X137277277Y-88215695D01*
X137178126Y-88577611D01*
X137151486Y-88951916D01*
X136119616Y-88951916D01*
X136134110Y-88916925D01*
X136220000Y-88485128D01*
X136220000Y-88044872D01*
X136134110Y-87613075D01*
X136117158Y-87572148D01*
X137916753Y-87572148D01*
X139065000Y-88720395D01*
X140213247Y-87572148D01*
X140084924Y-87280129D01*
X139749305Y-87112277D01*
X139387389Y-87013126D01*
X139013084Y-86986486D01*
X138640773Y-87033382D01*
X138284765Y-87152012D01*
X138045076Y-87280129D01*
X137916753Y-87572148D01*
X136117158Y-87572148D01*
X135965631Y-87206331D01*
X135721038Y-86840271D01*
X135409729Y-86528962D01*
X135043669Y-86284369D01*
X134636925Y-86115890D01*
X134205128Y-86030000D01*
X133764872Y-86030000D01*
X133333075Y-86115890D01*
X132926331Y-86284369D01*
X132560271Y-86528962D01*
X132248962Y-86840271D01*
X132004369Y-87206331D01*
X131835890Y-87613075D01*
X131750000Y-88044872D01*
X131686818Y-88044872D01*
X131730460Y-87901007D01*
X131731338Y-87892089D01*
X131750500Y-87697537D01*
X131750500Y-87697529D01*
X131757200Y-87629500D01*
X131750500Y-87561471D01*
X131750500Y-85981185D01*
X132907686Y-84824000D01*
X136583971Y-84824000D01*
X136652000Y-84830700D01*
X136720029Y-84824000D01*
X136720037Y-84824000D01*
X136923507Y-84803960D01*
X137184581Y-84724764D01*
X137425188Y-84596157D01*
X137636081Y-84423081D01*
X137679454Y-84370231D01*
X139996241Y-82053445D01*
X140049080Y-82010081D01*
X140092445Y-81957241D01*
X140092452Y-81957234D01*
X140222156Y-81799189D01*
X140222157Y-81799188D01*
X140350764Y-81558581D01*
X140429960Y-81297507D01*
X140450000Y-81094037D01*
X140450000Y-81094028D01*
X140456700Y-81026001D01*
X140450000Y-80957974D01*
X140450000Y-72429076D01*
X140544710Y-72334366D01*
X140753189Y-72022356D01*
X140896791Y-71675668D01*
X140945000Y-71433306D01*
X140945001Y-88582019D01*
G37*
G04 #@! TD.AperFunction*
D24*
X140945000Y-70806693D02*
X140896791Y-70564332D01*
X140753189Y-70217644D01*
X140544710Y-69905634D01*
X140279366Y-69640290D01*
X139967356Y-69431811D01*
X139620668Y-69288209D01*
X139252626Y-69215000D01*
X138877374Y-69215000D01*
X138509332Y-69288209D01*
X138162644Y-69431811D01*
X137850634Y-69640290D01*
X137755924Y-69735000D01*
X130816605Y-69735000D01*
X129192930Y-68111326D01*
X129413000Y-67995814D01*
X129413000Y-66802000D01*
X129667000Y-66802000D01*
X129667000Y-67995814D01*
X129896891Y-68116481D01*
X130171252Y-68019157D01*
X130421355Y-67870178D01*
X130637588Y-67675269D01*
X130811641Y-67441920D01*
X130936825Y-67179099D01*
X130981476Y-67031890D01*
X130860155Y-66802000D01*
X129667000Y-66802000D01*
X129413000Y-66802000D01*
X129393000Y-66802000D01*
X129393000Y-66548000D01*
X129413000Y-66548000D01*
X129413000Y-64262000D01*
X129667000Y-64262000D01*
X129667000Y-66548000D01*
X130860155Y-66548000D01*
X130981476Y-66318110D01*
X130936825Y-66170901D01*
X130811641Y-65908080D01*
X130637588Y-65674731D01*
X130421355Y-65479822D01*
X130295745Y-65405000D01*
X130421355Y-65330178D01*
X130637588Y-65135269D01*
X130811641Y-64901920D01*
X130936825Y-64639099D01*
X130981476Y-64491890D01*
X130860155Y-64262000D01*
X129667000Y-64262000D01*
X129413000Y-64262000D01*
X129393000Y-64262000D01*
X129393000Y-64008000D01*
X129413000Y-64008000D01*
X129413000Y-61722000D01*
X129667000Y-61722000D01*
X129667000Y-64008000D01*
X130860155Y-64008000D01*
X130981476Y-63778110D01*
X130936825Y-63630901D01*
X130811641Y-63368080D01*
X130637588Y-63134731D01*
X130421355Y-62939822D01*
X130295745Y-62865000D01*
X130421355Y-62790178D01*
X130637588Y-62595269D01*
X130811641Y-62361920D01*
X130936825Y-62099099D01*
X130981476Y-61951890D01*
X130860155Y-61722000D01*
X129667000Y-61722000D01*
X129413000Y-61722000D01*
X129393000Y-61722000D01*
X129393000Y-61468000D01*
X129413000Y-61468000D01*
X129413000Y-61448000D01*
X129667000Y-61448000D01*
X129667000Y-61468000D01*
X130860155Y-61468000D01*
X130981476Y-61238110D01*
X130936825Y-61090901D01*
X130811641Y-60828080D01*
X130637588Y-60594731D01*
X130421355Y-60399822D01*
X130337715Y-60350000D01*
X140945000Y-60350000D01*
X140945000Y-70806693D01*
G04 #@! TA.AperFunction,Conductor*
D25*
G36*
X140945000Y-70806693D02*
G01*
X140896791Y-70564332D01*
X140753189Y-70217644D01*
X140544710Y-69905634D01*
X140279366Y-69640290D01*
X139967356Y-69431811D01*
X139620668Y-69288209D01*
X139252626Y-69215000D01*
X138877374Y-69215000D01*
X138509332Y-69288209D01*
X138162644Y-69431811D01*
X137850634Y-69640290D01*
X137755924Y-69735000D01*
X130816605Y-69735000D01*
X129192930Y-68111326D01*
X129413000Y-67995814D01*
X129413000Y-66802000D01*
X129667000Y-66802000D01*
X129667000Y-67995814D01*
X129896891Y-68116481D01*
X130171252Y-68019157D01*
X130421355Y-67870178D01*
X130637588Y-67675269D01*
X130811641Y-67441920D01*
X130936825Y-67179099D01*
X130981476Y-67031890D01*
X130860155Y-66802000D01*
X129667000Y-66802000D01*
X129413000Y-66802000D01*
X129393000Y-66802000D01*
X129393000Y-66548000D01*
X129413000Y-66548000D01*
X129413000Y-64262000D01*
X129667000Y-64262000D01*
X129667000Y-66548000D01*
X130860155Y-66548000D01*
X130981476Y-66318110D01*
X130936825Y-66170901D01*
X130811641Y-65908080D01*
X130637588Y-65674731D01*
X130421355Y-65479822D01*
X130295745Y-65405000D01*
X130421355Y-65330178D01*
X130637588Y-65135269D01*
X130811641Y-64901920D01*
X130936825Y-64639099D01*
X130981476Y-64491890D01*
X130860155Y-64262000D01*
X129667000Y-64262000D01*
X129413000Y-64262000D01*
X129393000Y-64262000D01*
X129393000Y-64008000D01*
X129413000Y-64008000D01*
X129413000Y-61722000D01*
X129667000Y-61722000D01*
X129667000Y-64008000D01*
X130860155Y-64008000D01*
X130981476Y-63778110D01*
X130936825Y-63630901D01*
X130811641Y-63368080D01*
X130637588Y-63134731D01*
X130421355Y-62939822D01*
X130295745Y-62865000D01*
X130421355Y-62790178D01*
X130637588Y-62595269D01*
X130811641Y-62361920D01*
X130936825Y-62099099D01*
X130981476Y-61951890D01*
X130860155Y-61722000D01*
X129667000Y-61722000D01*
X129413000Y-61722000D01*
X129393000Y-61722000D01*
X129393000Y-61468000D01*
X129413000Y-61468000D01*
X129413000Y-61448000D01*
X129667000Y-61448000D01*
X129667000Y-61468000D01*
X130860155Y-61468000D01*
X130981476Y-61238110D01*
X130936825Y-61090901D01*
X130811641Y-60828080D01*
X130637588Y-60594731D01*
X130421355Y-60399822D01*
X130337715Y-60350000D01*
X140945000Y-60350000D01*
X140945000Y-70806693D01*
G37*
G04 #@! TD.AperFunction*
M02*
