G04 #@! TF.GenerationSoftware,KiCad,Pcbnew,(5.1.8)-1*
G04 #@! TF.CreationDate,2022-10-22T17:33:47+02:00*
G04 #@! TF.ProjectId,RP_LM2596-KfzPowerSafeguard,52505f4c-4d32-4353-9936-2d4b667a506f,rev?*
G04 #@! TF.SameCoordinates,Original*
G04 #@! TF.FileFunction,Paste,Top*
G04 #@! TF.FilePolarity,Positive*
%FSLAX46Y46*%
G04 Gerber Fmt 4.6, Leading zero omitted, Abs format (unit mm)*
G04 Created by KiCad (PCBNEW (5.1.8)-1) date 2022-10-22 17:33:47*
%MOMM*%
%LPD*%
G01*
G04 APERTURE LIST*
%ADD10R,2.300000X2.500000*%
%ADD11R,1.500000X1.200000*%
%ADD12R,3.800000X2.000000*%
%ADD13R,1.500000X2.000000*%
G04 APERTURE END LIST*
D10*
X97790000Y-98035000D03*
X97790000Y-93735000D03*
X97790000Y-61985000D03*
X97790000Y-66285000D03*
D11*
X101600000Y-77785000D03*
X101600000Y-75885000D03*
X115570000Y-86675000D03*
X115570000Y-84775000D03*
G36*
G01*
X104320001Y-66835000D02*
X101419999Y-66835000D01*
G75*
G02*
X101170000Y-66585001I0J249999D01*
G01*
X101170000Y-65959999D01*
G75*
G02*
X101419999Y-65710000I249999J0D01*
G01*
X104320001Y-65710000D01*
G75*
G02*
X104570000Y-65959999I0J-249999D01*
G01*
X104570000Y-66585001D01*
G75*
G02*
X104320001Y-66835000I-249999J0D01*
G01*
G37*
G36*
G01*
X104320001Y-62560000D02*
X101419999Y-62560000D01*
G75*
G02*
X101170000Y-62310001I0J249999D01*
G01*
X101170000Y-61684999D01*
G75*
G02*
X101419999Y-61435000I249999J0D01*
G01*
X104320001Y-61435000D01*
G75*
G02*
X104570000Y-61684999I0J-249999D01*
G01*
X104570000Y-62310001D01*
G75*
G02*
X104320001Y-62560000I-249999J0D01*
G01*
G37*
G36*
G01*
X101419999Y-97460000D02*
X104320001Y-97460000D01*
G75*
G02*
X104570000Y-97709999I0J-249999D01*
G01*
X104570000Y-98335001D01*
G75*
G02*
X104320001Y-98585000I-249999J0D01*
G01*
X101419999Y-98585000D01*
G75*
G02*
X101170000Y-98335001I0J249999D01*
G01*
X101170000Y-97709999D01*
G75*
G02*
X101419999Y-97460000I249999J0D01*
G01*
G37*
G36*
G01*
X101419999Y-93185000D02*
X104320001Y-93185000D01*
G75*
G02*
X104570000Y-93434999I0J-249999D01*
G01*
X104570000Y-94060001D01*
G75*
G02*
X104320001Y-94310000I-249999J0D01*
G01*
X101419999Y-94310000D01*
G75*
G02*
X101170000Y-94060001I0J249999D01*
G01*
X101170000Y-93434999D01*
G75*
G02*
X101419999Y-93185000I249999J0D01*
G01*
G37*
D12*
X104140000Y-86335000D03*
D13*
X104140000Y-80035000D03*
X101840000Y-80035000D03*
X106440000Y-80035000D03*
X110730000Y-82525000D03*
X115330000Y-82525000D03*
X113030000Y-82525000D03*
D12*
X113030000Y-76225000D03*
G36*
G01*
X107136250Y-78260000D02*
X106223750Y-78260000D01*
G75*
G02*
X105980000Y-78016250I0J243750D01*
G01*
X105980000Y-77528750D01*
G75*
G02*
X106223750Y-77285000I243750J0D01*
G01*
X107136250Y-77285000D01*
G75*
G02*
X107380000Y-77528750I0J-243750D01*
G01*
X107380000Y-78016250D01*
G75*
G02*
X107136250Y-78260000I-243750J0D01*
G01*
G37*
G36*
G01*
X107136250Y-76385000D02*
X106223750Y-76385000D01*
G75*
G02*
X105980000Y-76141250I0J243750D01*
G01*
X105980000Y-75653750D01*
G75*
G02*
X106223750Y-75410000I243750J0D01*
G01*
X107136250Y-75410000D01*
G75*
G02*
X107380000Y-75653750I0J-243750D01*
G01*
X107380000Y-76141250D01*
G75*
G02*
X107136250Y-76385000I-243750J0D01*
G01*
G37*
G36*
G01*
X110033750Y-86175000D02*
X110946250Y-86175000D01*
G75*
G02*
X111190000Y-86418750I0J-243750D01*
G01*
X111190000Y-86906250D01*
G75*
G02*
X110946250Y-87150000I-243750J0D01*
G01*
X110033750Y-87150000D01*
G75*
G02*
X109790000Y-86906250I0J243750D01*
G01*
X109790000Y-86418750D01*
G75*
G02*
X110033750Y-86175000I243750J0D01*
G01*
G37*
G36*
G01*
X110033750Y-84300000D02*
X110946250Y-84300000D01*
G75*
G02*
X111190000Y-84543750I0J-243750D01*
G01*
X111190000Y-85031250D01*
G75*
G02*
X110946250Y-85275000I-243750J0D01*
G01*
X110033750Y-85275000D01*
G75*
G02*
X109790000Y-85031250I0J243750D01*
G01*
X109790000Y-84543750D01*
G75*
G02*
X110033750Y-84300000I243750J0D01*
G01*
G37*
G36*
G01*
X117296250Y-97340000D02*
X116383750Y-97340000D01*
G75*
G02*
X116140000Y-97096250I0J243750D01*
G01*
X116140000Y-96608750D01*
G75*
G02*
X116383750Y-96365000I243750J0D01*
G01*
X117296250Y-96365000D01*
G75*
G02*
X117540000Y-96608750I0J-243750D01*
G01*
X117540000Y-97096250D01*
G75*
G02*
X117296250Y-97340000I-243750J0D01*
G01*
G37*
G36*
G01*
X117296250Y-99215000D02*
X116383750Y-99215000D01*
G75*
G02*
X116140000Y-98971250I0J243750D01*
G01*
X116140000Y-98483750D01*
G75*
G02*
X116383750Y-98240000I243750J0D01*
G01*
X117296250Y-98240000D01*
G75*
G02*
X117540000Y-98483750I0J-243750D01*
G01*
X117540000Y-98971250D01*
G75*
G02*
X117296250Y-99215000I-243750J0D01*
G01*
G37*
G36*
G01*
X116383750Y-60805000D02*
X117296250Y-60805000D01*
G75*
G02*
X117540000Y-61048750I0J-243750D01*
G01*
X117540000Y-61536250D01*
G75*
G02*
X117296250Y-61780000I-243750J0D01*
G01*
X116383750Y-61780000D01*
G75*
G02*
X116140000Y-61536250I0J243750D01*
G01*
X116140000Y-61048750D01*
G75*
G02*
X116383750Y-60805000I243750J0D01*
G01*
G37*
G36*
G01*
X116383750Y-62680000D02*
X117296250Y-62680000D01*
G75*
G02*
X117540000Y-62923750I0J-243750D01*
G01*
X117540000Y-63411250D01*
G75*
G02*
X117296250Y-63655000I-243750J0D01*
G01*
X116383750Y-63655000D01*
G75*
G02*
X116140000Y-63411250I0J243750D01*
G01*
X116140000Y-62923750D01*
G75*
G02*
X116383750Y-62680000I243750J0D01*
G01*
G37*
G36*
G01*
X116383750Y-92555000D02*
X117296250Y-92555000D01*
G75*
G02*
X117540000Y-92798750I0J-243750D01*
G01*
X117540000Y-93286250D01*
G75*
G02*
X117296250Y-93530000I-243750J0D01*
G01*
X116383750Y-93530000D01*
G75*
G02*
X116140000Y-93286250I0J243750D01*
G01*
X116140000Y-92798750D01*
G75*
G02*
X116383750Y-92555000I243750J0D01*
G01*
G37*
G36*
G01*
X116383750Y-94430000D02*
X117296250Y-94430000D01*
G75*
G02*
X117540000Y-94673750I0J-243750D01*
G01*
X117540000Y-95161250D01*
G75*
G02*
X117296250Y-95405000I-243750J0D01*
G01*
X116383750Y-95405000D01*
G75*
G02*
X116140000Y-95161250I0J243750D01*
G01*
X116140000Y-94673750D01*
G75*
G02*
X116383750Y-94430000I243750J0D01*
G01*
G37*
G36*
G01*
X117296250Y-65590001D02*
X116383750Y-65590001D01*
G75*
G02*
X116140000Y-65346251I0J243750D01*
G01*
X116140000Y-64858751D01*
G75*
G02*
X116383750Y-64615001I243750J0D01*
G01*
X117296250Y-64615001D01*
G75*
G02*
X117540000Y-64858751I0J-243750D01*
G01*
X117540000Y-65346251D01*
G75*
G02*
X117296250Y-65590001I-243750J0D01*
G01*
G37*
G36*
G01*
X117296250Y-67465001D02*
X116383750Y-67465001D01*
G75*
G02*
X116140000Y-67221251I0J243750D01*
G01*
X116140000Y-66733751D01*
G75*
G02*
X116383750Y-66490001I243750J0D01*
G01*
X117296250Y-66490001D01*
G75*
G02*
X117540000Y-66733751I0J-243750D01*
G01*
X117540000Y-67221251D01*
G75*
G02*
X117296250Y-67465001I-243750J0D01*
G01*
G37*
G36*
G01*
X122400000Y-83641250D02*
X122400000Y-82728750D01*
G75*
G02*
X122643750Y-82485000I243750J0D01*
G01*
X123131250Y-82485000D01*
G75*
G02*
X123375000Y-82728750I0J-243750D01*
G01*
X123375000Y-83641250D01*
G75*
G02*
X123131250Y-83885000I-243750J0D01*
G01*
X122643750Y-83885000D01*
G75*
G02*
X122400000Y-83641250I0J243750D01*
G01*
G37*
G36*
G01*
X124275000Y-83641250D02*
X124275000Y-82728750D01*
G75*
G02*
X124518750Y-82485000I243750J0D01*
G01*
X125006250Y-82485000D01*
G75*
G02*
X125250000Y-82728750I0J-243750D01*
G01*
X125250000Y-83641250D01*
G75*
G02*
X125006250Y-83885000I-243750J0D01*
G01*
X124518750Y-83885000D01*
G75*
G02*
X124275000Y-83641250I0J243750D01*
G01*
G37*
G36*
G01*
X119565000Y-82728750D02*
X119565000Y-83641250D01*
G75*
G02*
X119321250Y-83885000I-243750J0D01*
G01*
X118833750Y-83885000D01*
G75*
G02*
X118590000Y-83641250I0J243750D01*
G01*
X118590000Y-82728750D01*
G75*
G02*
X118833750Y-82485000I243750J0D01*
G01*
X119321250Y-82485000D01*
G75*
G02*
X119565000Y-82728750I0J-243750D01*
G01*
G37*
G36*
G01*
X121440000Y-82728750D02*
X121440000Y-83641250D01*
G75*
G02*
X121196250Y-83885000I-243750J0D01*
G01*
X120708750Y-83885000D01*
G75*
G02*
X120465000Y-83641250I0J243750D01*
G01*
X120465000Y-82728750D01*
G75*
G02*
X120708750Y-82485000I243750J0D01*
G01*
X121196250Y-82485000D01*
G75*
G02*
X121440000Y-82728750I0J-243750D01*
G01*
G37*
G36*
G01*
X122400000Y-79831250D02*
X122400000Y-78918750D01*
G75*
G02*
X122643750Y-78675000I243750J0D01*
G01*
X123131250Y-78675000D01*
G75*
G02*
X123375000Y-78918750I0J-243750D01*
G01*
X123375000Y-79831250D01*
G75*
G02*
X123131250Y-80075000I-243750J0D01*
G01*
X122643750Y-80075000D01*
G75*
G02*
X122400000Y-79831250I0J243750D01*
G01*
G37*
G36*
G01*
X124275000Y-79831250D02*
X124275000Y-78918750D01*
G75*
G02*
X124518750Y-78675000I243750J0D01*
G01*
X125006250Y-78675000D01*
G75*
G02*
X125250000Y-78918750I0J-243750D01*
G01*
X125250000Y-79831250D01*
G75*
G02*
X125006250Y-80075000I-243750J0D01*
G01*
X124518750Y-80075000D01*
G75*
G02*
X124275000Y-79831250I0J243750D01*
G01*
G37*
G36*
G01*
X119565000Y-78918750D02*
X119565000Y-79831250D01*
G75*
G02*
X119321250Y-80075000I-243750J0D01*
G01*
X118833750Y-80075000D01*
G75*
G02*
X118590000Y-79831250I0J243750D01*
G01*
X118590000Y-78918750D01*
G75*
G02*
X118833750Y-78675000I243750J0D01*
G01*
X119321250Y-78675000D01*
G75*
G02*
X119565000Y-78918750I0J-243750D01*
G01*
G37*
G36*
G01*
X121440000Y-78918750D02*
X121440000Y-79831250D01*
G75*
G02*
X121196250Y-80075000I-243750J0D01*
G01*
X120708750Y-80075000D01*
G75*
G02*
X120465000Y-79831250I0J243750D01*
G01*
X120465000Y-78918750D01*
G75*
G02*
X120708750Y-78675000I243750J0D01*
G01*
X121196250Y-78675000D01*
G75*
G02*
X121440000Y-78918750I0J-243750D01*
G01*
G37*
G36*
G01*
X124275000Y-76021250D02*
X124275000Y-75108750D01*
G75*
G02*
X124518750Y-74865000I243750J0D01*
G01*
X125006250Y-74865000D01*
G75*
G02*
X125250000Y-75108750I0J-243750D01*
G01*
X125250000Y-76021250D01*
G75*
G02*
X125006250Y-76265000I-243750J0D01*
G01*
X124518750Y-76265000D01*
G75*
G02*
X124275000Y-76021250I0J243750D01*
G01*
G37*
G36*
G01*
X122400000Y-76021250D02*
X122400000Y-75108750D01*
G75*
G02*
X122643750Y-74865000I243750J0D01*
G01*
X123131250Y-74865000D01*
G75*
G02*
X123375000Y-75108750I0J-243750D01*
G01*
X123375000Y-76021250D01*
G75*
G02*
X123131250Y-76265000I-243750J0D01*
G01*
X122643750Y-76265000D01*
G75*
G02*
X122400000Y-76021250I0J243750D01*
G01*
G37*
G36*
G01*
X121440000Y-75108750D02*
X121440000Y-76021250D01*
G75*
G02*
X121196250Y-76265000I-243750J0D01*
G01*
X120708750Y-76265000D01*
G75*
G02*
X120465000Y-76021250I0J243750D01*
G01*
X120465000Y-75108750D01*
G75*
G02*
X120708750Y-74865000I243750J0D01*
G01*
X121196250Y-74865000D01*
G75*
G02*
X121440000Y-75108750I0J-243750D01*
G01*
G37*
G36*
G01*
X119565000Y-75108750D02*
X119565000Y-76021250D01*
G75*
G02*
X119321250Y-76265000I-243750J0D01*
G01*
X118833750Y-76265000D01*
G75*
G02*
X118590000Y-76021250I0J243750D01*
G01*
X118590000Y-75108750D01*
G75*
G02*
X118833750Y-74865000I243750J0D01*
G01*
X119321250Y-74865000D01*
G75*
G02*
X119565000Y-75108750I0J-243750D01*
G01*
G37*
M02*
